SplineFontDB: 3.0
FontName: ClematisMono-Regular
FullName: Clematis Mono
FamilyName: Clematis Mono
Weight: Book
Copyright: Copyright 2011 Canonical Ltd.  Licensed under the Ubuntu Font Licence 1.0\n(C) 2017 Uzuki.
Version: 0.2.2
ItalicAngle: 0
UnderlinePosition: -133
UnderlineWidth: 20
Ascent: 800
Descent: 200
LayerCount: 2
Layer: 0 1 "+gMyXYgAA"  1
Layer: 1 1 "+Uk2XYgAA"  0
XUID: [1021 283 709330389 28537]
FSType: 0
OS2Version: 3
OS2_WeightWidthSlopeOnly: 0
OS2_UseTypoMetrics: 0
CreationTime: 1304432203
ModificationTime: 1506582301
PfmFamily: 17
TTFWeight: 400
TTFWidth: 5
LineGap: 0
VLineGap: 0
Panose: 2 11 5 9 3 6 2 3 2 4
OS2TypoAscent: 693
OS2TypoAOffset: 0
OS2TypoDescent: -165
OS2TypoDOffset: 0
OS2TypoLinegap: 49
OS2WinAscent: 830
OS2WinAOffset: 0
OS2WinDescent: 170
OS2WinDOffset: 0
HheadAscent: 830
HheadAOffset: 0
HheadDescent: -170
HheadDOffset: 0
OS2SubXSize: 700
OS2SubYSize: 650
OS2SubXOff: 0
OS2SubYOff: 140
OS2SupXSize: 700
OS2SupYSize: 650
OS2SupXOff: 0
OS2SupYOff: 477
OS2StrikeYSize: 50
OS2StrikeYPos: 250
OS2Vendor: 'DAMA'
OS2CodePages: 2000009f.56010000
OS2UnicodeRanges: e00002ff.5000205b.00000000.00000000
Lookup: 1 0 0 "'locl' +Vv0w+1cwV99W+mcJMG5bV19i in +MOkwxjDzZYdbVwAA lookup 0"  {"'locl' +Vv0w+1cwV99W+mcJMG5bV19i in +MOkwxjDzZYdbVwAA lookup 0 +MLUw1jDGMPww1jDr"  } ['locl' ('latn' <'AZE ' > ) ]
Lookup: 1 0 0 "'locl' +Vv0w+1cwV99W+mcJMG5bV19i in +MOkwxjDzZYdbVwAA lookup 1"  {"'locl' +Vv0w+1cwV99W+mcJMG5bV19i in +MOkwxjDzZYdbVwAA lookup 1 +MLUw1jDGMPww1jDr"  } ['locl' ('latn' <'TRK ' > ) ]
Lookup: 1 0 0 "'locl' +Vv0w+1cwV99W+mcJMG5bV19i in +MOkwxjDzZYdbVwAA lookup 2"  {"'locl' +Vv0w+1cwV99W+mcJMG5bV19i in +MOkwxjDzZYdbVwAA lookup 2 +MLUw1jDGMPww1jDr"  } ['locl' ('latn' <'CRT ' > ) ]
Lookup: 1 0 0 "'locl' +Vv0w+1cwV99W+mcJMG5bV19i in +MK0w6jDrZYdbVwAA lookup 3"  {"'locl' +Vv0w+1cwV99W+mcJMG5bV19i in +MK0w6jDrZYdbVwAA lookup 3 +MLUw1jDGMPww1jDr"  } ['locl' ('cyrl' <'BGR ' > ) ]

StartChar: SF030000.001
Encoding: 65536 -1 0
Width: 500
Flags: W
LayerCount: 2
Fore
SplineSet
432 54 m 1,0,-1
 432 756 l 1,1,-1
 108 756 l 1,2,-1
 108 54 l 1,3,-1
 432 54 l 1,0,-1
54 0 m 1,4,-1
 54 810 l 1,5,-1
 486 810 l 1,6,-1
 486 0 l 1,7,-1
 54 0 l 1,4,-1
EndSplineSet
EndChar

StartChar: exclam
Encoding: 33 33 4
Width: 500
Flags: W
LayerCount: 2
Fore
SplineSet
316 487 m 2,0,1
 316 447 316 447 315 413.5 c 128,-1,2
 314 380 314 380 311.5 350 c 128,-1,3
 309 320 309 320 305.5 290 c 128,-1,4
 302 260 302 260 299 228 c 1,5,-1
 238 228 l 1,6,7
 235 260 235 260 231.5 290 c 128,-1,8
 228 320 228 320 225 350 c 128,-1,9
 222 380 222 380 221 413.5 c 128,-1,10
 220 447 220 447 220 487 c 2,11,-1
 220 669 l 1,12,-1
 316 669 l 1,13,-1
 316 487 l 2,0,1
268 -13 m 0,14,15
 239 -13 239 -13 217 7 c 128,-1,16
 195 27 195 27 195 60.5 c 128,-1,17
 195 94 195 94 217 114 c 128,-1,18
 239 134 239 134 268 134 c 0,19,20
 298 134 298 134 319 114 c 128,-1,21
 340 94 340 94 340 60.5 c 128,-1,22
 340 27 340 27 319 7 c 128,-1,23
 298 -13 298 -13 268 -13 c 0,14,15
EndSplineSet
EndChar

StartChar: quotedbl
Encoding: 34 34 5
Width: 500
Flags: W
LayerCount: 2
Fore
SplineSet
222 733 m 1,0,-1
 222 685 l 2,1,2
 222 637 222 637 217 576 c 128,-1,3
 212 515 212 515 203 464 c 1,4,-1
 158 464 l 1,5,6
 150 515 150 515 144.5 576 c 128,-1,7
 139 637 139 637 139 686 c 2,8,-1
 139 733 l 1,9,-1
 222 733 l 1,0,-1
401 733 m 1,10,-1
 401 685 l 2,11,12
 401 637 401 637 395.5 576 c 128,-1,13
 390 515 390 515 382 464 c 1,14,-1
 337 464 l 1,15,16
 328 515 328 515 323 576 c 128,-1,17
 318 637 318 637 318 686 c 2,18,-1
 318 733 l 1,19,-1
 401 733 l 1,10,-1
EndSplineSet
EndChar

StartChar: numbersign
Encoding: 35 35 6
Width: 500
Flags: W
LayerCount: 2
Fore
SplineSet
347 0 m 1,0,-1
 266 0 l 1,1,-1
 299 176 l 1,2,-1
 179 176 l 1,3,-1
 146 0 l 1,4,-1
 65 0 l 1,5,-1
 98 176 l 1,6,-1
 29 176 l 1,7,-1
 29 248 l 1,8,-1
 112 248 l 1,9,-1
 145 420 l 1,10,-1
 29 420 l 1,11,-1
 29 491 l 1,12,-1
 160 491 l 1,13,-1
 193 669 l 1,14,-1
 274 669 l 1,15,-1
 241 491 l 1,16,-1
 361 491 l 1,17,-1
 393 669 l 1,18,-1
 474 669 l 1,19,-1
 442 491 l 1,20,-1
 511 491 l 1,21,-1
 511 420 l 1,22,-1
 428 420 l 1,23,-1
 394 248 l 1,24,-1
 511 248 l 1,25,-1
 511 176 l 1,26,-1
 380 176 l 1,27,-1
 347 0 l 1,0,-1
346 420 m 1,28,-1
 227 420 l 1,29,-1
 193 248 l 1,30,-1
 312 248 l 1,31,-1
 346 420 l 1,28,-1
EndSplineSet
EndChar

StartChar: dollar
Encoding: 36 36 7
Width: 500
Flags: W
LayerCount: 2
Fore
SplineSet
230 558 m 1,0,1
 209 553 209 553 197 543 c 0,2,3
 167 521 167 521 165 481 c 1,4,5
 165 458 165 458 174.5 443 c 128,-1,6
 184 428 184 428 201 416 c 0,7,8
 214 407 214 407 230 399 c 1,9,-1
 230 558 l 1,0,1
311 564 m 1,10,-1
 311 367 l 1,11,12
 339 356 339 356 365 343 c 1,13,14
 400 328 400 328 425.5 306.5 c 128,-1,15
 451 285 451 285 467 255 c 128,-1,16
 483 225 483 225 483 183 c 0,17,18
 483 119 483 119 441 74.5 c 128,-1,19
 399 30 399 30 311 19 c 1,20,-1
 311 0 l 1,21,-1
 311 -105 l 1,22,-1
 231 -105 l 1,23,-1
 231 16 l 1,24,25
 163 18 163 18 121 31 c 128,-1,26
 79 44 79 44 58 56 c 1,27,-1
 82 131 l 1,28,29
 111 117 111 117 151 104 c 0,30,31
 183 94 183 94 231 92 c 1,32,-1
 231 303 l 1,33,-1
 230 303 l 1,34,35
 201 314 201 314 172.5 327 c 128,-1,36
 144 340 144 340 121.5 359 c 128,-1,37
 99 378 99 378 85 404.5 c 128,-1,38
 71 431 71 431 71 470 c 0,39,40
 71 539 71 539 112 582 c 128,-1,41
 153 625 153 625 231 637 c 1,42,-1
 231 748 l 1,43,-1
 311 748 l 1,44,-1
 311 640 l 1,45,46
 354 638 354 638 390.5 630 c 128,-1,47
 427 622 427 622 448 613 c 1,48,-1
 430 538 l 1,49,50
 407 547 407 547 373 555 c 0,51,52
 347 562 347 562 311 564 c 1,10,-1
311 96 m 1,53,54
 315 97 315 97 318 97 c 0,55,56
 344 103 344 103 359 114.5 c 128,-1,57
 374 126 374 126 380.5 142 c 128,-1,58
 387 158 387 158 387 176 c 0,59,60
 387 203 387 203 374 222 c 0,61,62
 361 240 361 240 339 255 c 0,63,64
 326 264 326 264 311 271 c 1,65,-1
 311 96 l 1,53,54
EndSplineSet
EndChar

StartChar: percent
Encoding: 37 37 8
Width: 500
Flags: W
LayerCount: 2
Fore
SplineSet
103 0 m 1,0,-1
 27 0 l 1,1,-1
 436 669 l 1,2,-1
 512 669 l 1,3,-1
 103 0 l 1,0,-1
19 515 m 128,-1,5
 19 597 19 597 50.5 640 c 128,-1,6
 82 683 82 683 137 683 c 128,-1,7
 192 683 192 683 223.5 640 c 128,-1,8
 255 597 255 597 255 515 c 128,-1,9
 255 433 255 433 223.5 390 c 128,-1,10
 192 347 192 347 137 347 c 128,-1,11
 82 347 82 347 50.5 390 c 128,-1,4
 19 433 19 433 19 515 c 128,-1,5
188 515.5 m 128,-1,13
 188 564 188 564 175 595 c 128,-1,14
 162 626 162 626 137 626 c 128,-1,15
 112 626 112 626 98.5 595 c 128,-1,16
 85 564 85 564 85 515.5 c 128,-1,17
 85 467 85 467 98.5 435.5 c 128,-1,18
 112 404 112 404 137 404 c 128,-1,19
 162 404 162 404 175 435.5 c 128,-1,12
 188 467 188 467 188 515.5 c 128,-1,13
286 153 m 128,-1,21
 286 235 286 235 317 278 c 128,-1,22
 348 321 348 321 403 321 c 128,-1,23
 458 321 458 321 489.5 278 c 128,-1,24
 521 235 521 235 521 153 c 128,-1,25
 521 71 521 71 489.5 28.5 c 128,-1,26
 458 -14 458 -14 403 -14 c 128,-1,27
 348 -14 348 -14 317 28.5 c 128,-1,20
 286 71 286 71 286 153 c 128,-1,21
455 153.5 m 128,-1,29
 455 202 455 202 441.5 233.5 c 128,-1,30
 428 265 428 265 403 265 c 128,-1,31
 378 265 378 265 365 233.5 c 128,-1,32
 352 202 352 202 352 153.5 c 128,-1,33
 352 105 352 105 365 73.5 c 128,-1,34
 378 42 378 42 403 42 c 128,-1,35
 428 42 428 42 441.5 73.5 c 128,-1,28
 455 105 455 105 455 153.5 c 128,-1,29
EndSplineSet
EndChar

StartChar: ampersand
Encoding: 38 38 9
Width: 500
Flags: W
LayerCount: 2
Fore
SplineSet
294 306 m 1,0,1
 312 284 312 284 332 262 c 128,-1,2
 352 240 352 240 373 215 c 1,3,4
 382 245 382 245 388 280.5 c 128,-1,5
 394 316 394 316 397 360 c 1,6,-1
 472 350 l 1,7,8
 466 287 466 287 453.5 238 c 128,-1,9
 441 189 441 189 422 149 c 1,10,11
 447 114 447 114 469.5 77.5 c 128,-1,12
 492 41 492 41 511 0 c 1,13,-1
 417 0 l 1,14,15
 399 38 399 38 376 72 c 1,16,17
 341 29 341 29 298.5 10 c 128,-1,18
 256 -9 256 -9 210 -9 c 0,19,20
 169 -9 169 -9 136.5 4.5 c 128,-1,21
 104 18 104 18 81 42 c 128,-1,22
 58 66 58 66 45.5 97.5 c 128,-1,23
 33 129 33 129 33 163 c 0,24,25
 33 214 33 214 59.5 266 c 128,-1,26
 86 318 86 318 144 362 c 1,27,28
 116 400 116 400 98.5 438.5 c 128,-1,29
 81 477 81 477 81 518 c 0,30,31
 81 560 81 560 94.5 591.5 c 128,-1,32
 108 623 108 623 130.5 643 c 128,-1,33
 153 663 153 663 183 673.5 c 128,-1,34
 213 684 213 684 244 684 c 0,35,36
 272 684 272 684 299 675 c 128,-1,37
 326 666 326 666 346.5 648.5 c 128,-1,38
 367 631 367 631 379.5 605 c 128,-1,39
 392 579 392 579 392 545 c 0,40,41
 392 495 392 495 359.5 443 c 128,-1,42
 327 391 327 391 257 347 c 1,43,-1
 294 306 l 1,0,1
186 308 m 1,44,45
 155 280 155 280 139 243 c 128,-1,46
 123 206 123 206 123 172 c 0,47,48
 123 130 123 130 144.5 102.5 c 128,-1,49
 166 75 166 75 197.5 67.5 c 128,-1,50
 229 60 229 60 265.5 76 c 128,-1,51
 302 92 302 92 333 135 c 1,52,53
 297 184 297 184 259 225.5 c 128,-1,54
 221 267 221 267 186 308 c 1,44,45
311 536 m 0,55,56
 311 575 311 575 290 594 c 128,-1,57
 269 613 269 613 242 613 c 0,58,59
 214 613 214 613 189.5 591 c 128,-1,60
 165 569 165 569 165 525 c 0,61,62
 165 494 165 494 175 467 c 128,-1,63
 185 440 185 440 216 399 c 1,64,65
 268 431 268 431 289.5 468 c 128,-1,66
 311 505 311 505 311 536 c 0,55,56
EndSplineSet
EndChar

StartChar: quotesingle
Encoding: 39 39 10
Width: 500
Flags: W
LayerCount: 2
Fore
SplineSet
316 733 m 1,0,-1
 316 685 l 2,1,2
 316 661 316 661 314.5 630 c 128,-1,3
 313 599 313 599 310.5 566.5 c 128,-1,4
 308 534 308 534 304.5 502 c 128,-1,5
 301 470 301 470 297 445 c 1,6,-1
 242 445 l 1,7,8
 238 470 238 470 234.5 502 c 128,-1,9
 231 534 231 534 228.5 566.5 c 128,-1,10
 226 599 226 599 224 630.5 c 128,-1,11
 222 662 222 662 222 686 c 2,12,-1
 222 733 l 1,13,-1
 316 733 l 1,0,-1
EndSplineSet
EndChar

StartChar: parenleft
Encoding: 40 40 11
Width: 500
Flags: W
LayerCount: 2
Fore
SplineSet
415 692 m 1,0,1
 315 614 315 614 261.5 512.5 c 128,-1,2
 208 411 208 411 208 292 c 0,3,4
 208 232 208 232 220.5 177.5 c 128,-1,5
 233 123 233 123 258.5 73.5 c 128,-1,6
 284 24 284 24 323.5 -22.5 c 128,-1,7
 363 -69 363 -69 417 -116 c 1,8,-1
 368 -180 l 1,9,10
 244 -88 244 -88 183 33 c 128,-1,11
 122 154 122 154 122 289 c 0,12,13
 122 423 122 423 183.5 545 c 128,-1,14
 245 667 245 667 368 757 c 1,15,-1
 416 692 l 1,16,-1
 415 692 l 1,0,1
EndSplineSet
Substitution2: "'case' +WSdlh1tXfUQwf3UoMGuKv2V0MFcwX1tXX2IA lookup 17 +MLUw1jDGMPww1jDr" Parenleft
EndChar

StartChar: parenright
Encoding: 41 41 12
Width: 500
Flags: W
LayerCount: 2
Fore
SplineSet
124 -116 m 1,0,1
 224 -38 224 -38 278 63.5 c 128,-1,2
 332 165 332 165 332 285 c 0,3,4
 332 345 332 345 319.5 399.5 c 128,-1,5
 307 454 307 454 281 503.5 c 128,-1,6
 255 553 255 553 215.5 599.5 c 128,-1,7
 176 646 176 646 122 692 c 1,8,-1
 171 757 l 1,9,10
 295 665 295 665 356 543.5 c 128,-1,11
 417 422 417 422 417 287 c 0,12,13
 417 220 417 220 401.5 155.5 c 128,-1,14
 386 91 386 91 355 31 c 128,-1,15
 324 -29 324 -29 278 -82.5 c 128,-1,16
 232 -136 232 -136 171 -180 c 1,17,-1
 123 -116 l 1,18,-1
 124 -116 l 1,0,1
EndSplineSet
Substitution2: "'case' +WSdlh1tXfUQwf3UoMGuKv2V0MFcwX1tXX2IA lookup 17 +MLUw1jDGMPww1jDr" Parenright
EndChar

StartChar: asterisk
Encoding: 42 42 13
Width: 500
Flags: W
LayerCount: 2
Fore
SplineSet
310 267 m 1,0,1
 312 264 312 264 370 210 c 0,2,3
 380 201 380 201 423 147 c 1,4,-1
 428 141 l 1,5,-1
 352 86 l 1,6,-1
 347 93 l 1,7,8
 331 112 331 112 306 164 c 0,9,10
 288 202 288 202 271 238 c 1,11,12
 255 205 255 205 235 164 c 1,13,14
 218 126 218 126 192 93 c 1,15,-1
 187 87 l 1,16,-1
 112 141 l 1,17,-1
 118 148 l 1,18,19
 161 200 161 200 172 211 c 0,20,21
 203 240 203 240 231 267 c 1,22,23
 192 272 192 272 149 278 c 0,24,25
 122 282 122 282 69 297 c 2,26,-1
 62 299 l 1,27,-1
 91 388 l 1,28,-1
 98 384 l 1,29,30
 170 353 170 353 174 351 c 0,31,32
 213 333 213 333 247 313 c 1,33,34
 239 352 239 352 232 394 c 1,35,36
 225 427 225 427 225 477 c 2,37,-1
 225 485 l 1,38,-1
 318 485 l 1,39,-1
 318 477 l 2,40,41
 318 439 318 439 310 394 c 1,42,43
 304 352 304 352 295 313 c 1,44,45
 331 334 331 334 367 352 c 1,46,47
 406 370 406 370 443 383 c 1,48,-1
 450 387 l 1,49,-1
 478 298 l 1,50,-1
 472 296 l 2,51,52
 440 285 440 285 392 278 c 0,53,54
 350 271 350 271 310 267 c 1,0,1
EndSplineSet
EndChar

StartChar: plus
Encoding: 43 43 14
Width: 500
Flags: W
LayerCount: 2
Fore
SplineSet
50 322 m 1,0,-1
 231 322 l 1,1,-1
 231 521 l 1,2,-1
 309 521 l 1,3,-1
 309 322 l 1,4,-1
 491 322 l 1,5,-1
 491 246 l 1,6,-1
 309 246 l 1,7,-1
 309 46 l 1,8,-1
 231 46 l 1,9,-1
 231 246 l 1,10,-1
 50 246 l 1,11,-1
 50 322 l 1,0,-1
EndSplineSet
EndChar

StartChar: comma
Encoding: 44 44 15
Width: 500
Flags: W
LayerCount: 2
Fore
SplineSet
161 -85 m 1,0,1
 180 -81 180 -81 199 -76.5 c 128,-1,2
 218 -72 218 -72 234.5 -64 c 128,-1,3
 251 -56 251 -56 263.5 -43.5 c 128,-1,4
 276 -31 276 -31 284 -10 c 1,5,6
 249 -7 249 -7 233.5 16.5 c 128,-1,7
 218 40 218 40 218 63 c 0,8,9
 218 106 218 106 242.5 128 c 128,-1,10
 267 150 267 150 298 150 c 0,11,12
 338 150 338 150 358.5 121.5 c 128,-1,13
 379 93 379 93 379 52 c 0,14,15
 379 21 379 21 366.5 -13.5 c 128,-1,16
 354 -48 354 -48 328.5 -77.5 c 128,-1,17
 303 -107 303 -107 265.5 -128 c 128,-1,18
 228 -149 228 -149 176 -156 c 1,19,-1
 161 -85 l 1,0,1
EndSplineSet
EndChar

StartChar: hyphen
Encoding: 45 45 16
Width: 500
Flags: W
LayerCount: 2
Fore
SplineSet
50 322 m 1,0,-1
 491 322 l 1,1,-1
 491 246 l 1,2,-1
 50 246 l 1,3,-1
 50 322 l 1,0,-1
EndSplineSet
Substitution2: "'case' +WSdlh1tXfUQwf3UoMGuKv2V0MFcwX1tXX2IA lookup 17 +MLUw1jDGMPww1jDr" Hyphen
EndChar

StartChar: period
Encoding: 46 46 17
Width: 500
Flags: W
LayerCount: 2
Fore
SplineSet
350 69 m 0,0,1
 350 37 350 37 328.5 12 c 128,-1,2
 307 -13 307 -13 271 -13 c 0,3,4
 234 -13 234 -13 212.5 12 c 128,-1,5
 191 37 191 37 191 69 c 0,6,7
 191 102 191 102 212.5 127 c 128,-1,8
 234 152 234 152 271 152 c 0,9,10
 307 152 307 152 328.5 127 c 128,-1,11
 350 102 350 102 350 69 c 0,0,1
EndSplineSet
EndChar

StartChar: slash
Encoding: 47 47 18
Width: 500
Flags: W
LayerCount: 2
Fore
SplineSet
166 -178 m 1,0,-1
 75 -178 l 1,1,-1
 376 755 l 1,2,-1
 465 755 l 1,3,-1
 166 -178 l 1,0,-1
EndSplineSet
Substitution2: "'case' +WSdlh1tXfUQwf3UoMGuKv2V0MFcwX1tXX2IA lookup 17 +MLUw1jDGMPww1jDr" Slash
Substitution2: "'ss02' +MLkwvzCkMOswuzDDMMgA-2 lookup 14 +MLUw1jDGMPww1jDr" fraction
Substitution2: "'frac' +ZZwwgTBuUgZlcAAA lookup 12 +MLUw1jDGMPww1jDr" fraction
EndChar

StartChar: zero
Encoding: 48 48 19
Width: 500
Flags: W
LayerCount: 2
Fore
SplineSet
372 525 m 1,0,1
 357 562 357 562 332 583.5 c 128,-1,2
 307 605 307 605 270 605 c 128,-1,3
 233 605 233 605 208.5 583.5 c 128,-1,4
 184 562 184 562 168.5 525 c 128,-1,5
 153 488 153 488 146.5 439 c 128,-1,6
 140 390 140 390 140 335 c 0,7,8
 140 281 140 281 147 233 c 1,9,-1
 372 525 l 1,0,1
394 433 m 1,10,-1
 170 143 l 1,11,12
 185 107 185 107 208 86 c 0,13,14
 233 64 233 64 270 64.5 c 128,-1,15
 307 65 307 65 331.5 86.5 c 128,-1,16
 356 108 356 108 371.5 144.5 c 128,-1,17
 387 181 387 181 393.5 230.5 c 128,-1,18
 400 280 400 280 400 335 c 1,19,20
 399 387 399 387 394 433 c 1,10,-1
50 334.5 m 128,-1,22
 50 503 50 503 107.5 593.5 c 128,-1,23
 165 684 165 684 270 684 c 0,24,25
 376 684 376 684 433 593.5 c 128,-1,26
 490 503 490 503 490 334.5 c 128,-1,27
 490 166 490 166 433 76 c 128,-1,28
 376 -14 376 -14 270 -14 c 0,29,30
 165 -14 165 -14 107.5 76 c 128,-1,21
 50 166 50 166 50 334.5 c 128,-1,22
EndSplineSet
Substitution2: "'ss02' +MLkwvzCkMOswuzDDMMgA-2 lookup 15 +MLUw1jDGMPww1jDr" zerosuperior
Substitution2: "'sinf' +edFbZmWHcy51KE4LMGQwTWWHW1cA lookup 11 +MLUw1jDGMPww1jDr" zero.sinf
Substitution2: "'subs' +TgswZDBNZYdbVwAA lookup 10 +MLUw1jDGMPww1jDr" zero.sinf
Substitution2: "'sups' +TgowZDBNZYdbVwAA lookup 9 +MLUw1jDGMPww1jDr" zero.sups
Substitution2: "'dnom' +UgZrzQAA lookup 8 +MLUw1jDGMPww1jDr" zeroinferior
Substitution2: "'numr' +UgZbUAAA lookup 6 +MLUw1jDGMPww1jDr" zerosuperior
EndChar

StartChar: one
Encoding: 49 49 20
Width: 500
Flags: W
LayerCount: 2
Fore
SplineSet
81 530 m 1,0,1
 136 552 136 552 188 585 c 128,-1,2
 240 618 240 618 284 669 c 1,3,-1
 347 669 l 1,4,-1
 347 0 l 1,5,-1
 258 0 l 1,6,-1
 258 544 l 1,7,8
 246 533 246 533 229.5 522 c 128,-1,9
 213 511 213 511 193 500 c 128,-1,10
 173 489 173 489 151.5 479.5 c 128,-1,11
 130 470 130 470 109 463 c 1,12,-1
 81 530 l 1,0,1
EndSplineSet
Substitution2: "'ss02' +MLkwvzCkMOswuzDDMMgA-2 lookup 15 +MLUw1jDGMPww1jDr" onesuperior
Substitution2: "'sinf' +edFbZmWHcy51KE4LMGQwTWWHW1cA lookup 11 +MLUw1jDGMPww1jDr" one.sinf
Substitution2: "'subs' +TgswZDBNZYdbVwAA lookup 10 +MLUw1jDGMPww1jDr" one.sinf
Substitution2: "'sups' +TgowZDBNZYdbVwAA lookup 9 +MLUw1jDGMPww1jDr" one.sups
Substitution2: "'dnom' +UgZrzQAA lookup 8 +MLUw1jDGMPww1jDr" oneinferior
Substitution2: "'numr' +UgZbUAAA lookup 6 +MLUw1jDGMPww1jDr" onesuperior
EndChar

StartChar: two
Encoding: 50 50 21
Width: 500
Flags: W
LayerCount: 2
Fore
SplineSet
454 498 m 0,0,1
 454 463 454 463 440.5 431 c 128,-1,2
 427 399 427 399 404.5 367.5 c 128,-1,3
 382 336 382 336 354 305.5 c 128,-1,4
 326 275 326 275 297 246 c 0,5,6
 281 230 281 230 259.5 207.5 c 128,-1,7
 238 185 238 185 218.5 161 c 128,-1,8
 199 137 199 137 186 114.5 c 128,-1,9
 173 92 173 92 173 76 c 1,10,-1
 481 76 l 1,11,-1
 481 0 l 1,12,-1
 76 0 l 1,13,14
 75 5 75 5 75 11 c 128,-1,15
 75 17 75 17 75 23 c 0,16,17
 75 68 75 68 90 107 c 128,-1,18
 105 146 105 146 128.5 180.5 c 128,-1,19
 152 215 152 215 182 245.5 c 128,-1,20
 212 276 212 276 241 306 c 0,21,22
 265 330 265 330 287 352.5 c 128,-1,23
 309 375 309 375 325.5 397.5 c 128,-1,24
 342 420 342 420 352.5 444.5 c 128,-1,25
 363 469 363 469 363 495 c 0,26,27
 363 524 363 524 354 544.5 c 128,-1,28
 345 565 345 565 329 578.5 c 128,-1,29
 313 592 313 592 292.5 598.5 c 128,-1,30
 272 605 272 605 248 605 c 0,31,32
 220 605 220 605 197 597.5 c 128,-1,33
 174 590 174 590 156 579 c 128,-1,34
 138 568 138 568 125 558 c 128,-1,35
 112 548 112 548 106 541 c 1,36,-1
 62 604 l 1,37,38
 71 614 71 614 88 628 c 128,-1,39
 105 642 105 642 129 654 c 128,-1,40
 153 666 153 666 183.5 675 c 128,-1,41
 214 684 214 684 248 684 c 0,42,43
 353 684 353 684 403.5 636 c 128,-1,44
 454 588 454 588 454 498 c 0,0,1
EndSplineSet
Substitution2: "'ss02' +MLkwvzCkMOswuzDDMMgA-2 lookup 15 +MLUw1jDGMPww1jDr" twosuperior
Substitution2: "'sinf' +edFbZmWHcy51KE4LMGQwTWWHW1cA lookup 11 +MLUw1jDGMPww1jDr" two.sinf
Substitution2: "'subs' +TgswZDBNZYdbVwAA lookup 10 +MLUw1jDGMPww1jDr" two.sinf
Substitution2: "'sups' +TgowZDBNZYdbVwAA lookup 9 +MLUw1jDGMPww1jDr" two.sups
Substitution2: "'dnom' +UgZrzQAA lookup 8 +MLUw1jDGMPww1jDr" twoinferior
Substitution2: "'numr' +UgZbUAAA lookup 6 +MLUw1jDGMPww1jDr" twosuperior
EndChar

StartChar: three
Encoding: 51 51 22
Width: 500
Flags: W
LayerCount: 2
Fore
SplineSet
229 65 m 0,0,1
 314 65 314 65 350.5 99 c 128,-1,2
 387 133 387 133 387 190 c 0,3,4
 387 227 387 227 371.5 251.5 c 128,-1,5
 356 276 356 276 331.5 291.5 c 128,-1,6
 307 307 307 307 274.5 313.5 c 128,-1,7
 242 320 242 320 206 320 c 2,8,-1
 184 320 l 1,9,-1
 184 392 l 1,10,-1
 215 392 l 2,11,12
 239 392 239 392 264 397 c 128,-1,13
 289 402 289 402 310.5 414.5 c 128,-1,14
 332 427 332 427 344.5 448.5 c 128,-1,15
 357 470 357 470 357 503 c 0,16,17
 357 558 357 558 323 581.5 c 128,-1,18
 289 605 289 605 244 605 c 0,19,20
 198 605 198 605 165.5 591.5 c 128,-1,21
 133 578 133 578 111 564 c 1,22,-1
 77 632 l 1,23,24
 100 648 100 648 145.5 666 c 128,-1,25
 191 684 191 684 247 684 c 0,26,27
 300 684 300 684 338 671 c 128,-1,28
 376 658 376 658 400 634 c 128,-1,29
 424 610 424 610 436 578 c 128,-1,30
 448 546 448 546 448 509 c 0,31,32
 448 456 448 456 420.5 419 c 128,-1,33
 393 382 393 382 350 363 c 1,34,35
 402 348 402 348 439.5 304 c 128,-1,36
 477 260 477 260 477 188 c 0,37,38
 477 145 477 145 462.5 107.5 c 128,-1,39
 448 70 448 70 418.5 43 c 128,-1,40
 389 16 389 16 342 1 c 128,-1,41
 295 -14 295 -14 230 -14 c 0,42,43
 205 -14 205 -14 178.5 -10 c 128,-1,44
 152 -6 152 -6 129.5 -0.5 c 128,-1,45
 107 5 107 5 89 11 c 128,-1,46
 71 17 71 17 64 21 c 1,47,-1
 81 97 l 1,48,49
 98 88 98 88 136 76.5 c 128,-1,50
 174 65 174 65 229 65 c 0,0,1
EndSplineSet
Substitution2: "'ss02' +MLkwvzCkMOswuzDDMMgA-2 lookup 15 +MLUw1jDGMPww1jDr" threesuperior
Substitution2: "'sinf' +edFbZmWHcy51KE4LMGQwTWWHW1cA lookup 11 +MLUw1jDGMPww1jDr" three.sinf
Substitution2: "'subs' +TgswZDBNZYdbVwAA lookup 10 +MLUw1jDGMPww1jDr" three.sinf
Substitution2: "'sups' +TgowZDBNZYdbVwAA lookup 9 +MLUw1jDGMPww1jDr" three.sups
Substitution2: "'dnom' +UgZrzQAA lookup 8 +MLUw1jDGMPww1jDr" threeinferior
Substitution2: "'numr' +UgZbUAAA lookup 6 +MLUw1jDGMPww1jDr" threesuperior
EndChar

StartChar: four
Encoding: 52 52 23
Width: 500
Flags: W
LayerCount: 2
Fore
SplineSet
39 231 m 1,0,1
 57 274 57 274 89 330.5 c 128,-1,2
 121 387 121 387 161 447 c 128,-1,3
 201 507 201 507 246.5 564.5 c 128,-1,4
 292 622 292 622 338 669 c 1,5,-1
 424 669 l 1,6,-1
 424 244 l 1,7,-1
 503 244 l 1,8,-1
 503 171 l 1,9,-1
 424 171 l 1,10,-1
 424 0 l 1,11,-1
 338 0 l 1,12,-1
 338 171 l 1,13,-1
 39 171 l 1,14,-1
 39 231 l 1,0,1
338 563 m 1,15,16
 309 532 309 532 279 494 c 128,-1,17
 249 456 249 456 221 414.5 c 128,-1,18
 193 373 193 373 169 329.5 c 128,-1,19
 145 286 145 286 125 244 c 1,20,-1
 338 244 l 1,21,-1
 338 563 l 1,15,16
EndSplineSet
Substitution2: "'ss02' +MLkwvzCkMOswuzDDMMgA-2 lookup 15 +MLUw1jDGMPww1jDr" foursuperior
Substitution2: "'sinf' +edFbZmWHcy51KE4LMGQwTWWHW1cA lookup 11 +MLUw1jDGMPww1jDr" four.sinf
Substitution2: "'subs' +TgswZDBNZYdbVwAA lookup 10 +MLUw1jDGMPww1jDr" four.sinf
Substitution2: "'sups' +TgowZDBNZYdbVwAA lookup 9 +MLUw1jDGMPww1jDr" four.sups
Substitution2: "'dnom' +UgZrzQAA lookup 8 +MLUw1jDGMPww1jDr" fourinferior
Substitution2: "'numr' +UgZbUAAA lookup 6 +MLUw1jDGMPww1jDr" foursuperior
EndChar

StartChar: five
Encoding: 53 53 24
Width: 500
Flags: W
LayerCount: 2
Fore
SplineSet
201 410 m 1,0,1
 346 405 346 405 411.5 346.5 c 128,-1,2
 477 288 477 288 477 190 c 0,3,4
 477 146 477 146 463 108 c 128,-1,5
 449 70 449 70 419.5 43 c 128,-1,6
 390 16 390 16 344 1 c 128,-1,7
 298 -14 298 -14 235 -14 c 0,8,9
 209 -14 209 -14 184 -10 c 128,-1,10
 159 -6 159 -6 136 -1 c 128,-1,11
 113 4 113 4 96 10 c 128,-1,12
 79 16 79 16 71 21 c 1,13,-1
 89 97 l 1,14,15
 106 88 106 88 142 76.5 c 128,-1,16
 178 65 178 65 233 65 c 0,17,18
 276 65 276 65 305.5 74.5 c 128,-1,19
 335 84 335 84 352.5 101 c 128,-1,20
 370 118 370 118 378.5 139.5 c 128,-1,21
 387 161 387 161 387 185 c 0,22,23
 387 222 387 222 374.5 250.5 c 128,-1,24
 362 279 362 279 331 298.5 c 128,-1,25
 300 318 300 318 246.5 328 c 128,-1,26
 193 338 193 338 112 338 c 1,27,28
 118 386 118 386 122 427.5 c 128,-1,29
 126 469 126 469 129 508.5 c 128,-1,30
 132 548 132 548 133.5 586.5 c 128,-1,31
 135 625 135 625 137 669 c 1,32,-1
 459 669 l 1,33,-1
 459 593 l 1,34,-1
 215 593 l 1,35,36
 214 578 214 578 212.5 553.5 c 128,-1,37
 211 529 211 529 208.5 502 c 128,-1,38
 206 475 206 475 204 450 c 128,-1,39
 202 425 202 425 201 410 c 1,0,1
EndSplineSet
Substitution2: "'ss02' +MLkwvzCkMOswuzDDMMgA-2 lookup 15 +MLUw1jDGMPww1jDr" fivesuperior
Substitution2: "'sinf' +edFbZmWHcy51KE4LMGQwTWWHW1cA lookup 11 +MLUw1jDGMPww1jDr" five.sinf
Substitution2: "'subs' +TgswZDBNZYdbVwAA lookup 10 +MLUw1jDGMPww1jDr" five.sinf
Substitution2: "'sups' +TgowZDBNZYdbVwAA lookup 9 +MLUw1jDGMPww1jDr" five.sups
Substitution2: "'dnom' +UgZrzQAA lookup 8 +MLUw1jDGMPww1jDr" fiveinferior
Substitution2: "'numr' +UgZbUAAA lookup 6 +MLUw1jDGMPww1jDr" fivesuperior
EndChar

StartChar: six
Encoding: 54 54 25
Width: 500
Flags: W
LayerCount: 2
Fore
SplineSet
58 268 m 0,0,1
 58 365 58 365 84.5 440 c 128,-1,2
 111 515 111 515 160.5 566 c 128,-1,3
 210 617 210 617 280 644 c 128,-1,4
 350 671 350 671 438 672 c 1,5,-1
 446 596 l 1,6,7
 389 595 389 595 342 583.5 c 128,-1,8
 295 572 295 572 258 547 c 128,-1,9
 221 522 221 522 196.5 482 c 128,-1,10
 172 442 172 442 159 383 c 1,11,12
 185 395 185 395 215.5 402.5 c 128,-1,13
 246 410 246 410 281 410 c 0,14,15
 337 410 337 410 376.5 393 c 128,-1,16
 416 376 416 376 439.5 347.5 c 128,-1,17
 463 319 463 319 474 281 c 128,-1,18
 485 243 485 243 485 203 c 0,19,20
 485 166 485 166 473 128 c 128,-1,21
 461 90 461 90 436 58 c 128,-1,22
 411 26 411 26 372.5 6 c 128,-1,23
 334 -14 334 -14 280 -14 c 0,24,25
 169 -14 169 -14 113.5 60.5 c 128,-1,26
 58 135 58 135 58 268 c 0,0,1
271 337 m 0,27,28
 236 337 236 337 207.5 330.5 c 128,-1,29
 179 324 179 324 150 311 c 1,30,31
 149 300 149 300 149 290 c 128,-1,32
 149 280 149 280 149 268 c 0,33,34
 149 226 149 226 155 188.5 c 128,-1,35
 161 151 161 151 175.5 122.5 c 128,-1,36
 190 94 190 94 215 77 c 128,-1,37
 240 60 240 60 279 60 c 0,38,39
 311 60 311 60 332.5 73.5 c 128,-1,40
 354 87 354 87 368 108 c 128,-1,41
 382 129 382 129 388 154 c 128,-1,42
 394 179 394 179 394 202 c 0,43,44
 394 268 394 268 364.5 302.5 c 128,-1,45
 335 337 335 337 271 337 c 0,27,28
EndSplineSet
Substitution2: "'ss02' +MLkwvzCkMOswuzDDMMgA-2 lookup 15 +MLUw1jDGMPww1jDr" sixsuperior
Substitution2: "'sinf' +edFbZmWHcy51KE4LMGQwTWWHW1cA lookup 11 +MLUw1jDGMPww1jDr" six.sinf
Substitution2: "'subs' +TgswZDBNZYdbVwAA lookup 10 +MLUw1jDGMPww1jDr" six.sinf
Substitution2: "'sups' +TgowZDBNZYdbVwAA lookup 9 +MLUw1jDGMPww1jDr" six.sups
Substitution2: "'dnom' +UgZrzQAA lookup 8 +MLUw1jDGMPww1jDr" sixinferior
Substitution2: "'numr' +UgZbUAAA lookup 6 +MLUw1jDGMPww1jDr" sixsuperior
EndChar

StartChar: seven
Encoding: 55 55 26
Width: 500
Flags: W
LayerCount: 2
Fore
SplineSet
167 0 m 1,0,1
 172 77 172 77 194.5 162.5 c 128,-1,2
 217 248 217 248 248.5 328.5 c 128,-1,3
 280 409 280 409 317.5 477.5 c 128,-1,4
 355 546 355 546 392 591 c 1,5,-1
 68 591 l 1,6,-1
 68 669 l 1,7,-1
 491 669 l 1,8,-1
 491 594 l 1,9,10
 459 556 459 556 421 492.5 c 128,-1,11
 383 429 383 429 349 349.5 c 128,-1,12
 315 270 315 270 290.5 180 c 128,-1,13
 266 90 266 90 259 0 c 1,14,-1
 167 0 l 1,0,1
EndSplineSet
Substitution2: "'ss02' +MLkwvzCkMOswuzDDMMgA-2 lookup 15 +MLUw1jDGMPww1jDr" sevensuperior
Substitution2: "'sinf' +edFbZmWHcy51KE4LMGQwTWWHW1cA lookup 11 +MLUw1jDGMPww1jDr" seven.sinf
Substitution2: "'subs' +TgswZDBNZYdbVwAA lookup 10 +MLUw1jDGMPww1jDr" seven.sinf
Substitution2: "'sups' +TgowZDBNZYdbVwAA lookup 9 +MLUw1jDGMPww1jDr" seven.sups
Substitution2: "'dnom' +UgZrzQAA lookup 8 +MLUw1jDGMPww1jDr" seveninferior
Substitution2: "'numr' +UgZbUAAA lookup 6 +MLUw1jDGMPww1jDr" sevensuperior
EndChar

StartChar: eight
Encoding: 56 56 27
Width: 500
Flags: W
LayerCount: 2
Fore
SplineSet
485 174 m 0,0,1
 485 90 485 90 431.5 38 c 128,-1,2
 378 -14 378 -14 269 -14 c 0,3,4
 206 -14 206 -14 165 2.5 c 128,-1,5
 124 19 124 19 100 45.5 c 128,-1,6
 76 72 76 72 65.5 104.5 c 128,-1,7
 55 137 55 137 55 168 c 0,8,9
 55 225 55 225 86.5 269.5 c 128,-1,10
 118 314 118 314 161 341 c 1,11,12
 69 393 69 393 69 500 c 0,13,14
 69 537 69 537 83 570.5 c 128,-1,15
 97 604 97 604 123 628.5 c 128,-1,16
 149 653 149 653 186.5 668.5 c 128,-1,17
 224 684 224 684 270 684 c 0,18,19
 324 684 324 684 362.5 667.5 c 128,-1,20
 401 651 401 651 424.5 625.5 c 128,-1,21
 448 600 448 600 459 569.5 c 128,-1,22
 470 539 470 539 470 510 c 0,23,24
 470 453 470 453 440.5 411 c 128,-1,25
 411 369 411 369 374 345 c 1,26,27
 485 292 485 292 485 174 c 0,0,1
141 167 m 0,28,29
 141 150 141 150 147.5 131 c 128,-1,30
 154 112 154 112 169.5 96 c 128,-1,31
 185 80 185 80 209.5 69.5 c 128,-1,32
 234 59 234 59 270 59 c 0,33,34
 303 59 303 59 327.5 68.5 c 128,-1,35
 352 78 352 78 367.5 93.5 c 128,-1,36
 383 109 383 109 391 128.5 c 128,-1,37
 399 148 399 148 399 167 c 0,38,39
 399 229 399 229 354.5 262 c 128,-1,40
 310 295 310 295 232 312 c 1,41,42
 189 288 189 288 165 252.5 c 128,-1,43
 141 217 141 217 141 167 c 0,28,29
383 510 m 0,44,45
 383 524 383 524 376.5 541.5 c 128,-1,46
 370 559 370 559 356.5 574 c 128,-1,47
 343 589 343 589 321.5 599 c 128,-1,48
 300 609 300 609 270 609 c 0,49,50
 239 609 239 609 218 599.5 c 128,-1,51
 197 590 197 590 182.5 575.5 c 128,-1,52
 168 561 168 561 162.5 543 c 128,-1,53
 157 525 157 525 157 508 c 0,54,55
 157 464 157 464 188.5 425.5 c 128,-1,56
 220 387 220 387 294 369 c 1,57,58
 335 393 335 393 359 425.5 c 128,-1,59
 383 458 383 458 383 510 c 0,44,45
EndSplineSet
Substitution2: "'ss02' +MLkwvzCkMOswuzDDMMgA-2 lookup 15 +MLUw1jDGMPww1jDr" eightsuperior
Substitution2: "'sinf' +edFbZmWHcy51KE4LMGQwTWWHW1cA lookup 11 +MLUw1jDGMPww1jDr" eight.sinf
Substitution2: "'subs' +TgswZDBNZYdbVwAA lookup 10 +MLUw1jDGMPww1jDr" eight.sinf
Substitution2: "'sups' +TgowZDBNZYdbVwAA lookup 9 +MLUw1jDGMPww1jDr" eight.sups
Substitution2: "'dnom' +UgZrzQAA lookup 8 +MLUw1jDGMPww1jDr" eightinferior
Substitution2: "'numr' +UgZbUAAA lookup 6 +MLUw1jDGMPww1jDr" eightsuperior
EndChar

StartChar: nine
Encoding: 57 57 28
Width: 500
Flags: W
LayerCount: 2
Fore
SplineSet
483 401 m 0,0,1
 483 201 483 201 385.5 100 c 128,-1,2
 288 -1 288 -1 93 -2 c 1,3,-1
 90 73 l 1,4,5
 211 73 211 73 285 121.5 c 128,-1,6
 359 170 359 170 382 287 c 1,7,8
 356 275 356 275 325 268 c 128,-1,9
 294 261 294 261 259 261 c 0,10,11
 202 261 202 261 163 278 c 128,-1,12
 124 295 124 295 100.5 323.5 c 128,-1,13
 77 352 77 352 66 389 c 128,-1,14
 55 426 55 426 55 467 c 0,15,16
 55 504 55 504 67 542 c 128,-1,17
 79 580 79 580 104 611.5 c 128,-1,18
 129 643 129 643 167.5 663.5 c 128,-1,19
 206 684 206 684 260 684 c 0,20,21
 370 684 370 684 426.5 608.5 c 128,-1,22
 483 533 483 533 483 401 c 0,0,1
269 335 m 0,23,24
 304 335 304 335 333.5 341.5 c 128,-1,25
 363 348 363 348 391 360 c 1,26,27
 392 371 392 371 392 380.5 c 128,-1,28
 392 390 392 390 392 401 c 0,29,30
 392 443 392 443 386 480.5 c 128,-1,31
 380 518 380 518 365.5 546.5 c 128,-1,32
 351 575 351 575 325.5 591.5 c 128,-1,33
 300 608 300 608 261 608 c 0,34,35
 229 608 229 608 207.5 594.5 c 128,-1,36
 186 581 186 581 172 561 c 128,-1,37
 158 541 158 541 152 516 c 128,-1,38
 146 491 146 491 146 469 c 0,39,40
 146 403 146 403 175.5 369 c 128,-1,41
 205 335 205 335 269 335 c 0,23,24
EndSplineSet
Substitution2: "'ss02' +MLkwvzCkMOswuzDDMMgA-2 lookup 15 +MLUw1jDGMPww1jDr" ninesuperior
Substitution2: "'sinf' +edFbZmWHcy51KE4LMGQwTWWHW1cA lookup 11 +MLUw1jDGMPww1jDr" nine.sinf
Substitution2: "'subs' +TgswZDBNZYdbVwAA lookup 10 +MLUw1jDGMPww1jDr" nine.sinf
Substitution2: "'sups' +TgowZDBNZYdbVwAA lookup 9 +MLUw1jDGMPww1jDr" nine.sups
Substitution2: "'dnom' +UgZrzQAA lookup 8 +MLUw1jDGMPww1jDr" nineinferior
Substitution2: "'numr' +UgZbUAAA lookup 6 +MLUw1jDGMPww1jDr" ninesuperior
EndChar

StartChar: colon
Encoding: 58 58 29
Width: 500
Flags: W
LayerCount: 2
Fore
SplineSet
350 418 m 0,0,1
 350 386 350 386 328.5 361 c 128,-1,2
 307 336 307 336 271 336 c 0,3,4
 234 336 234 336 212.5 361 c 128,-1,5
 191 386 191 386 191 418 c 0,6,7
 191 451 191 451 212.5 476 c 128,-1,8
 234 501 234 501 271 501 c 0,9,10
 307 501 307 501 328.5 476 c 128,-1,11
 350 451 350 451 350 418 c 0,0,1
350 69 m 0,12,13
 350 37 350 37 328.5 12 c 128,-1,14
 307 -13 307 -13 271 -13 c 0,15,16
 234 -13 234 -13 212.5 12 c 128,-1,17
 191 37 191 37 191 69 c 0,18,19
 191 102 191 102 212.5 127 c 128,-1,20
 234 152 234 152 271 152 c 0,21,22
 307 152 307 152 328.5 127 c 128,-1,23
 350 102 350 102 350 69 c 0,12,13
EndSplineSet
EndChar

StartChar: semicolon
Encoding: 59 59 30
Width: 500
Flags: W
LayerCount: 2
Fore
SplineSet
350 418 m 0,0,1
 350 386 350 386 328.5 361 c 128,-1,2
 307 336 307 336 271 336 c 0,3,4
 234 336 234 336 212.5 361 c 128,-1,5
 191 386 191 386 191 418 c 0,6,7
 191 451 191 451 212.5 476 c 128,-1,8
 234 501 234 501 271 501 c 0,9,10
 307 501 307 501 328.5 476 c 128,-1,11
 350 451 350 451 350 418 c 0,0,1
135 -85 m 1,12,13
 154 -81 154 -81 173 -76.5 c 128,-1,14
 192 -72 192 -72 208.5 -64 c 128,-1,15
 225 -56 225 -56 238 -43.5 c 128,-1,16
 251 -31 251 -31 258 -10 c 1,17,18
 223 -7 223 -7 207.5 16.5 c 128,-1,19
 192 40 192 40 192 63 c 0,20,21
 192 106 192 106 216.5 128 c 128,-1,22
 241 150 241 150 272 150 c 0,23,24
 312 150 312 150 332.5 121.5 c 128,-1,25
 353 93 353 93 353 52 c 0,26,27
 353 21 353 21 340.5 -13.5 c 128,-1,28
 328 -48 328 -48 303 -77.5 c 128,-1,29
 278 -107 278 -107 240 -128 c 128,-1,30
 202 -149 202 -149 150 -156 c 1,31,-1
 135 -85 l 1,12,13
EndSplineSet
EndChar

StartChar: less
Encoding: 60 60 31
Width: 500
Flags: W
LayerCount: 2
Fore
SplineSet
152 275 m 1,0,-1
 495 134 l 1,1,-1
 470 59 l 1,2,-1
 53 237 l 1,3,-1
 53 313 l 1,4,-1
 470 490 l 1,5,-1
 495 416 l 1,6,-1
 152 275 l 1,0,-1
EndSplineSet
EndChar

StartChar: equal
Encoding: 61 61 32
Width: 500
Flags: W
LayerCount: 2
Fore
SplineSet
50 219 m 1,0,-1
 491 219 l 1,1,-1
 491 143 l 1,2,-1
 50 143 l 1,3,-1
 50 219 l 1,0,-1
50 424 m 1,4,-1
 491 424 l 1,5,-1
 491 348 l 1,6,-1
 50 348 l 1,7,-1
 50 424 l 1,4,-1
EndSplineSet
EndChar

StartChar: greater
Encoding: 62 62 33
Width: 500
Flags: W
LayerCount: 2
Fore
SplineSet
53 416 m 1,0,-1
 78 490 l 1,1,-1
 495 313 l 1,2,-1
 495 237 l 1,3,-1
 78 59 l 1,4,-1
 53 134 l 1,5,-1
 395 275 l 1,6,-1
 53 416 l 1,0,-1
EndSplineSet
EndChar

StartChar: question
Encoding: 63 63 34
Width: 500
Flags: W
LayerCount: 2
Fore
SplineSet
200 228 m 1,0,-1
 199 248 l 1,1,2
 199 294 199 294 222.5 328.5 c 128,-1,3
 246 363 246 363 274.5 392 c 128,-1,4
 303 421 303 421 327 450.5 c 128,-1,5
 351 480 351 480 351 517 c 0,6,7
 351 558 351 558 325 583 c 128,-1,8
 299 608 299 608 248 608 c 0,9,10
 217 608 217 608 186.5 600.5 c 128,-1,11
 156 593 156 593 124 576 c 1,12,-1
 99 645 l 1,13,14
 131 663 131 663 172.5 673.5 c 128,-1,15
 214 684 214 684 260 684 c 0,16,17
 315 684 315 684 350.5 668.5 c 128,-1,18
 386 653 386 653 406.5 630 c 128,-1,19
 427 607 427 607 435 579 c 128,-1,20
 443 551 443 551 443 525 c 0,21,22
 443 493 443 493 430.5 467.5 c 128,-1,23
 418 442 418 442 399.5 419 c 128,-1,24
 381 396 381 396 359.5 375.5 c 128,-1,25
 338 355 338 355 319.5 333 c 128,-1,26
 301 311 301 311 288.5 285 c 128,-1,27
 276 259 276 259 276 228 c 1,28,-1
 200 228 l 1,0,-1
246 -13 m 0,29,30
 216 -13 216 -13 195 7 c 128,-1,31
 174 27 174 27 174 60.5 c 128,-1,32
 174 94 174 94 195 114 c 128,-1,33
 216 134 216 134 246 134 c 0,34,35
 275 134 275 134 297 114 c 128,-1,36
 319 94 319 94 319 60.5 c 128,-1,37
 319 27 319 27 297 7 c 128,-1,38
 275 -13 275 -13 246 -13 c 0,29,30
EndSplineSet
EndChar

StartChar: at
Encoding: 64 64 35
Width: 500
Flags: W
LayerCount: 2
Fore
SplineSet
505 68 m 1,0,1
 473 55 473 55 439.5 50 c 128,-1,2
 406 45 406 45 378 45 c 0,3,4
 340 45 340 45 307.5 57.5 c 128,-1,5
 275 70 275 70 251 96 c 128,-1,6
 227 122 227 122 213.5 162.5 c 128,-1,7
 200 203 200 203 200 259 c 0,8,9
 200 359 200 359 251.5 411.5 c 128,-1,10
 303 464 303 464 387 464 c 0,11,12
 396 464 396 464 403.5 463.5 c 128,-1,13
 411 463 411 463 420 462 c 1,14,15
 420 530 420 530 392 570 c 128,-1,16
 364 610 364 610 302 610 c 0,17,18
 264 610 264 610 233 591.5 c 128,-1,19
 202 573 202 573 179.5 532.5 c 128,-1,20
 157 492 157 492 144 428.5 c 128,-1,21
 131 365 131 365 131 274 c 0,22,23
 131 206 131 206 144 143 c 128,-1,24
 157 80 157 80 184.5 32.5 c 128,-1,25
 212 -15 212 -15 254.5 -43.5 c 128,-1,26
 297 -72 297 -72 356 -72 c 0,27,28
 399 -72 399 -72 446 -58 c 1,29,-1
 455 -131 l 1,30,31
 398 -146 398 -146 349 -146 c 0,32,33
 270 -146 270 -146 212 -111 c 128,-1,34
 154 -76 154 -76 117 -18.5 c 128,-1,35
 80 39 80 39 61.5 112.5 c 128,-1,36
 43 186 43 186 43 262 c 0,37,38
 43 373 43 373 63 453.5 c 128,-1,39
 83 534 83 534 118 584.5 c 128,-1,40
 153 635 153 635 199.5 659.5 c 128,-1,41
 246 684 246 684 300 684 c 0,42,43
 395 684 395 684 450 619.5 c 128,-1,44
 505 555 505 555 505 441 c 2,45,-1
 505 68 l 1,0,1
286 259 m 0,46,47
 286 237 286 237 289 212.5 c 128,-1,48
 292 188 292 188 301.5 167 c 128,-1,49
 311 146 311 146 329 131.5 c 128,-1,50
 347 117 347 117 378 117 c 0,51,52
 387 117 387 117 397.5 118 c 128,-1,53
 408 119 408 119 420 122 c 1,54,-1
 420 387 l 1,55,56
 410 390 410 390 401 391 c 128,-1,57
 392 392 392 392 383 392 c 0,58,59
 337 392 337 392 311.5 355.5 c 128,-1,60
 286 319 286 319 286 259 c 0,46,47
EndSplineSet
Substitution2: "'case' +WSdlh1tXfUQwf3UoMGuKv2V0MFcwX1tXX2IA lookup 17 +MLUw1jDGMPww1jDr" At
EndChar

StartChar: A
Encoding: 65 65 36
Width: 500
Flags: W
LayerCount: 2
Fore
SplineSet
436 0 m 1,0,-1
 396 175 l 1,1,-1
 139 175 l 1,2,-1
 100 0 l 1,3,-1
 10 0 l 1,4,5
 28 71 28 71 50.5 154.5 c 128,-1,6
 73 238 73 238 99.5 325.5 c 128,-1,7
 126 413 126 413 155.5 501 c 128,-1,8
 185 589 185 589 217 669 c 1,9,-1
 327 669 l 1,10,11
 358 589 358 589 387 501 c 128,-1,12
 416 413 416 413 441.5 325.5 c 128,-1,13
 467 238 467 238 489.5 154.5 c 128,-1,14
 512 71 512 71 530 0 c 1,15,-1
 436 0 l 1,0,-1
269 591 m 1,16,17
 244 523 244 523 215 433 c 128,-1,18
 186 343 186 343 160 248 c 1,19,-1
 376 248 l 1,20,21
 351 345 351 345 322.5 435.5 c 128,-1,22
 294 526 294 526 269 591 c 1,16,17
EndSplineSet
EndChar

StartChar: B
Encoding: 66 66 37
Width: 500
Flags: W
LayerCount: 2
Fore
SplineSet
220 -5 m 0,0,1
 204 -5 204 -5 182.5 -4 c 128,-1,2
 161 -3 161 -3 139.5 -1.5 c 128,-1,3
 118 0 118 0 96.5 3 c 128,-1,4
 75 6 75 6 58 11 c 1,5,-1
 58 659 l 1,6,7
 74 663 74 663 95.5 666.5 c 128,-1,8
 117 670 117 670 139 671.5 c 128,-1,9
 161 673 161 673 182 674 c 128,-1,10
 203 675 203 675 220 675 c 0,11,12
 270 675 270 675 313 666.5 c 128,-1,13
 356 658 356 658 388 637.5 c 128,-1,14
 420 617 420 617 438 583.5 c 128,-1,15
 456 550 456 550 456 500 c 0,16,17
 456 476 456 476 448.5 454 c 128,-1,18
 441 432 441 432 427.5 412.5 c 128,-1,19
 414 393 414 393 396 378.5 c 128,-1,20
 378 364 378 364 357 356 c 1,21,22
 412 341 412 341 449.5 300.5 c 128,-1,23
 487 260 487 260 487 195 c 0,24,25
 487 96 487 96 423 45.5 c 128,-1,26
 359 -5 359 -5 220 -5 c 0,0,1
147 312 m 1,27,-1
 147 73 l 1,28,29
 149 72 149 72 171 70.5 c 128,-1,30
 193 69 193 69 226.5 69 c 128,-1,31
 260 69 260 69 291 74.5 c 128,-1,32
 322 80 322 80 345.5 94.5 c 128,-1,33
 369 109 369 109 384 133 c 128,-1,34
 399 157 399 157 399 194 c 0,35,36
 399 227 399 227 385.5 250 c 128,-1,37
 372 273 372 273 349.5 286.5 c 128,-1,38
 327 300 327 300 298 306 c 128,-1,39
 269 312 269 312 238 312 c 2,40,-1
 147 312 l 1,27,-1
147 386 m 1,41,-1
 217 386 l 2,42,43
 244 386 244 386 271 391 c 128,-1,44
 298 396 298 396 319.5 408 c 128,-1,45
 341 420 341 420 354 440.5 c 128,-1,46
 367 461 367 461 367 492 c 0,47,48
 367 521 367 521 355 542 c 128,-1,49
 343 563 343 563 324 576 c 128,-1,50
 305 589 305 589 279.5 594 c 128,-1,51
 254 599 254 599 226 599 c 128,-1,52
 198 599 198 599 177 598.5 c 128,-1,53
 156 598 156 598 147 596 c 1,54,-1
 147 386 l 1,41,-1
EndSplineSet
EndChar

StartChar: C
Encoding: 67 67 38
Width: 500
Flags: W
LayerCount: 2
Fore
SplineSet
497 28 m 1,0,1
 459 6 459 6 416.5 -4 c 128,-1,2
 374 -14 374 -14 325 -14 c 0,3,4
 266 -14 266 -14 215.5 7 c 128,-1,5
 165 28 165 28 128.5 70.5 c 128,-1,6
 92 113 92 113 71 179 c 128,-1,7
 50 245 50 245 50 335 c 0,8,9
 50 420 50 420 72 485 c 128,-1,10
 94 550 94 550 132 594 c 128,-1,11
 170 638 170 638 220.5 661 c 128,-1,12
 271 684 271 684 328 684 c 0,13,14
 368 684 368 684 409.5 673 c 128,-1,15
 451 662 451 662 491 637 c 1,16,-1
 465 564 l 1,17,18
 394 605 394 605 332 605 c 0,19,20
 288 605 288 605 252.5 586 c 128,-1,21
 217 567 217 567 192 531.5 c 128,-1,22
 167 496 167 496 153.5 446 c 128,-1,23
 140 396 140 396 140 335 c 0,24,25
 140 266 140 266 155 215 c 128,-1,26
 170 164 170 164 195.5 130.5 c 128,-1,27
 221 97 221 97 257.5 81 c 128,-1,28
 294 65 294 65 336 65 c 0,29,30
 367 65 367 65 401.5 73 c 128,-1,31
 436 81 436 81 473 102 c 1,32,-1
 497 28 l 1,0,1
EndSplineSet
EndChar

StartChar: D
Encoding: 68 68 39
Width: 500
Flags: W
LayerCount: 2
Fore
SplineSet
497 335 m 0,0,1
 497 242 497 242 473.5 177 c 128,-1,2
 450 112 450 112 409.5 71.5 c 128,-1,3
 369 31 369 31 313.5 13 c 128,-1,4
 258 -5 258 -5 193 -5 c 0,5,6
 126 -5 126 -5 58 11 c 1,7,-1
 58 659 l 1,8,9
 126 675 126 675 193 675 c 0,10,11
 258 675 258 675 313.5 656.5 c 128,-1,12
 369 638 369 638 409.5 597 c 128,-1,13
 450 556 450 556 473.5 491.5 c 128,-1,14
 497 427 497 427 497 335 c 0,0,1
147 75 m 1,15,16
 174 72 174 72 202 71 c 1,17,18
 251 71 251 71 288.5 85.5 c 128,-1,19
 326 100 326 100 352 132 c 128,-1,20
 378 164 378 164 392 214.5 c 128,-1,21
 406 265 406 265 406 335 c 0,22,23
 406 471 406 471 353.5 534.5 c 128,-1,24
 301 598 301 598 199 598 c 0,25,26
 185 598 185 598 171.5 597.5 c 128,-1,27
 158 597 158 597 147 595 c 1,28,-1
 147 75 l 1,15,16
EndSplineSet
EndChar

StartChar: E
Encoding: 69 69 40
Width: 500
Flags: W
LayerCount: 2
Fore
SplineSet
98 0 m 1,0,-1
 98 669 l 1,1,-1
 473 669 l 1,2,-1
 473 593 l 1,3,-1
 187 593 l 1,4,-1
 187 388 l 1,5,-1
 437 388 l 1,6,-1
 437 312 l 1,7,-1
 187 312 l 1,8,-1
 187 76 l 1,9,-1
 497 76 l 1,10,-1
 497 0 l 1,11,-1
 98 0 l 1,0,-1
EndSplineSet
EndChar

StartChar: F
Encoding: 70 70 41
Width: 500
Flags: W
LayerCount: 2
Fore
SplineSet
98 0 m 1,0,-1
 98 669 l 1,1,-1
 477 669 l 1,2,-1
 477 593 l 1,3,-1
 187 593 l 1,4,-1
 187 384 l 1,5,-1
 443 384 l 1,6,-1
 443 310 l 1,7,-1
 187 310 l 1,8,-1
 187 0 l 1,9,-1
 98 0 l 1,0,-1
EndSplineSet
EndChar

StartChar: G
Encoding: 71 71 42
Width: 500
Flags: W
LayerCount: 2
Fore
SplineSet
403 244 m 1,0,-1
 328 244 l 1,1,-1
 328 330 l 1,2,-1
 491 329 l 1,3,-1
 491 16 l 1,4,5
 470 8 470 8 425 -3 c 128,-1,6
 380 -14 380 -14 319 -14 c 0,7,8
 259 -14 259 -14 209 9 c 128,-1,9
 159 32 159 32 124 76.5 c 128,-1,10
 89 121 89 121 69.5 186.5 c 128,-1,11
 50 252 50 252 50 335 c 0,12,13
 50 419 50 419 71.5 484 c 128,-1,14
 93 549 93 549 130 593 c 128,-1,15
 167 637 167 637 217 660.5 c 128,-1,16
 267 684 267 684 324 684 c 0,17,18
 361 684 361 684 389 678.5 c 128,-1,19
 417 673 417 673 437 665.5 c 128,-1,20
 457 658 457 658 470 650 c 128,-1,21
 483 642 483 642 489 637 c 1,22,-1
 460 563 l 1,23,24
 435 582 435 582 401 594.5 c 128,-1,25
 367 607 367 607 329 607 c 0,26,27
 288 607 288 607 253 587.5 c 128,-1,28
 218 568 218 568 193 532.5 c 128,-1,29
 168 497 168 497 154 446.5 c 128,-1,30
 140 396 140 396 140 335 c 0,31,32
 140 275 140 275 152.5 225 c 128,-1,33
 165 175 165 175 189 139.5 c 128,-1,34
 213 104 213 104 248 84 c 128,-1,35
 283 64 283 64 328 64 c 0,36,37
 359 64 359 64 376.5 68 c 128,-1,38
 394 72 394 72 403 77 c 1,39,-1
 403 244 l 1,0,-1
EndSplineSet
EndChar

StartChar: H
Encoding: 72 72 43
Width: 500
Flags: W
LayerCount: 2
Fore
SplineSet
403 669 m 1,0,-1
 491 669 l 1,1,-1
 491 0 l 1,2,-1
 403 0 l 1,3,-1
 403 311 l 1,4,-1
 137 311 l 1,5,-1
 137 0 l 1,6,-1
 49 0 l 1,7,-1
 49 669 l 1,8,-1
 137 669 l 1,9,-1
 137 387 l 1,10,-1
 403 387 l 1,11,-1
 403 669 l 1,0,-1
EndSplineSet
EndChar

StartChar: I
Encoding: 73 73 44
Width: 500
Flags: W
LayerCount: 2
Fore
SplineSet
314 593 m 1,0,-1
 314 76 l 1,1,-1
 444 76 l 1,2,-1
 444 0 l 1,3,-1
 96 0 l 1,4,-1
 96 76 l 1,5,-1
 226 76 l 1,6,-1
 226 593 l 1,7,-1
 96 593 l 1,8,-1
 96 669 l 1,9,-1
 444 669 l 1,10,-1
 444 593 l 1,11,-1
 314 593 l 1,0,-1
EndSplineSet
EndChar

StartChar: J
Encoding: 74 74 45
Width: 500
Flags: W
LayerCount: 2
Fore
SplineSet
365 593 m 1,0,-1
 365 669 l 1,1,-1
 454 669 l 1,2,-1
 454 215 l 2,3,4
 454 167 454 167 443.5 125 c 128,-1,5
 433 83 433 83 407.5 52.5 c 128,-1,6
 382 22 382 22 339.5 4 c 128,-1,7
 297 -14 297 -14 232 -14 c 128,-1,8
 167 -14 167 -14 123 4.5 c 128,-1,9
 79 23 79 23 58 40 c 1,10,-1
 94 112 l 1,11,12
 115 97 115 97 149 80 c 128,-1,13
 183 63 183 63 228 63 c 0,14,15
 297 63 297 63 331 99.5 c 128,-1,16
 365 136 365 136 365 224 c 2,17,-1
 365 593 l 1,0,-1
EndSplineSet
EndChar

StartChar: K
Encoding: 75 75 46
Width: 500
Flags: W
LayerCount: 2
Fore
SplineSet
508 669 m 1,0,1
 455 590 455 590 391.5 512 c 128,-1,2
 328 434 328 434 255 356 c 1,3,4
 290 327 290 327 328.5 288 c 128,-1,5
 367 249 367 249 404.5 203.5 c 128,-1,6
 442 158 442 158 475 106 c 128,-1,7
 508 54 508 54 530 0 c 1,8,-1
 430 0 l 1,9,10
 403 50 403 50 371.5 97.5 c 128,-1,11
 340 145 340 145 305 186 c 128,-1,12
 270 227 270 227 232.5 261 c 128,-1,13
 195 295 195 295 158 320 c 1,14,-1
 158 0 l 1,15,-1
 69 0 l 1,16,-1
 69 669 l 1,17,-1
 158 669 l 1,18,-1
 158 370 l 1,19,20
 228 442 228 442 292 521 c 128,-1,21
 356 600 356 600 405 669 c 1,22,-1
 508 669 l 1,0,1
EndSplineSet
EndChar

StartChar: L
Encoding: 76 76 47
Width: 500
Flags: W
LayerCount: 2
Fore
SplineSet
497 76 m 1,0,-1
 497 0 l 1,1,-1
 98 0 l 1,2,-1
 98 669 l 1,3,-1
 187 669 l 1,4,-1
 187 76 l 1,5,-1
 497 76 l 1,0,-1
EndSplineSet
EndChar

StartChar: M
Encoding: 77 77 48
Width: 500
Flags: W
LayerCount: 2
Fore
SplineSet
271 336 m 1,0,-1
 375 669 l 1,1,-1
 458 669 l 1,2,3
 480 511 480 511 489 345.5 c 128,-1,4
 498 180 498 180 505 0 c 1,5,-1
 419 0 l 1,6,7
 418 58 418 58 417 126 c 128,-1,8
 416 194 416 194 414.5 266.5 c 128,-1,9
 413 339 413 339 411 413.5 c 128,-1,10
 409 488 409 488 407 558 c 1,11,-1
 310 254 l 1,12,-1
 232 254 l 1,13,-1
 133 558 l 1,14,15
 132 488 132 488 130.5 414 c 128,-1,16
 129 340 129 340 127 267 c 128,-1,17
 125 194 125 194 123.5 126 c 128,-1,18
 122 58 122 58 121 0 c 1,19,-1
 35 0 l 1,20,21
 38 82 38 82 42 168.5 c 128,-1,22
 46 255 46 255 52 340.5 c 128,-1,23
 58 426 58 426 66.5 509 c 128,-1,24
 75 592 75 592 84 669 c 1,25,-1
 166 669 l 1,26,-1
 271 336 l 1,0,-1
EndSplineSet
EndChar

StartChar: N
Encoding: 78 78 49
Width: 500
Flags: W
LayerCount: 2
Fore
SplineSet
390 0 m 1,0,1
 353 90 353 90 320.5 162.5 c 128,-1,2
 288 235 288 235 258.5 299 c 128,-1,3
 229 363 229 363 200 419.5 c 128,-1,4
 171 476 171 476 140 534 c 1,5,-1
 140 0 l 1,6,-1
 59 0 l 1,7,-1
 59 669 l 1,8,-1
 150 669 l 1,9,10
 194 588 194 588 227 527.5 c 128,-1,11
 260 467 260 467 287.5 410 c 128,-1,12
 315 353 315 353 341 293 c 128,-1,13
 367 233 367 233 400 154 c 1,14,-1
 400 669 l 1,15,-1
 481 669 l 1,16,-1
 481 0 l 1,17,-1
 390 0 l 1,0,1
EndSplineSet
EndChar

StartChar: O
Encoding: 79 79 50
Width: 500
Flags: W
LayerCount: 2
Fore
SplineSet
31 334.5 m 128,-1,1
 31 424 31 424 48.5 490 c 128,-1,2
 66 556 66 556 97.5 599 c 128,-1,3
 129 642 129 642 172.5 663 c 128,-1,4
 216 684 216 684 270 684 c 0,5,6
 323 684 323 684 367 663 c 128,-1,7
 411 642 411 642 442.5 599 c 128,-1,8
 474 556 474 556 492 490 c 128,-1,9
 510 424 510 424 510 334.5 c 128,-1,10
 510 245 510 245 492 179 c 128,-1,11
 474 113 474 113 442.5 70 c 128,-1,12
 411 27 411 27 367 6.5 c 128,-1,13
 323 -14 323 -14 270 -14 c 0,14,15
 216 -14 216 -14 172.5 6.5 c 128,-1,16
 129 27 129 27 97.5 70 c 128,-1,17
 66 113 66 113 48.5 179 c 128,-1,0
 31 245 31 245 31 334.5 c 128,-1,1
122 335 m 128,-1,19
 122 203 122 203 157.5 133 c 128,-1,20
 193 63 193 63 268 63 c 0,21,22
 344 63 344 63 381.5 133 c 128,-1,23
 419 203 419 203 419 335 c 128,-1,24
 419 467 419 467 381 537 c 128,-1,25
 343 607 343 607 268 607 c 128,-1,26
 193 607 193 607 157.5 537 c 128,-1,18
 122 467 122 467 122 335 c 128,-1,19
EndSplineSet
EndChar

StartChar: P
Encoding: 80 80 51
Width: 500
Flags: W
LayerCount: 2
Fore
SplineSet
254 675 m 0,0,1
 313 675 313 675 358 660 c 128,-1,2
 403 645 403 645 432.5 617.5 c 128,-1,3
 462 590 462 590 476.5 552 c 128,-1,4
 491 514 491 514 491 468 c 0,5,6
 491 363 491 363 429.5 306 c 128,-1,7
 368 249 368 249 245 249 c 2,8,-1
 167 249 l 1,9,-1
 167 0 l 1,10,-1
 79 0 l 1,11,-1
 79 659 l 1,12,13
 98 663 98 663 121.5 666.5 c 128,-1,14
 145 670 145 670 168 672 c 128,-1,15
 191 674 191 674 213.5 674.5 c 128,-1,16
 236 675 236 675 254 675 c 0,0,1
260 598 m 0,17,18
 232 598 232 598 206 597.5 c 128,-1,19
 180 597 180 597 167 595 c 1,20,-1
 167 325 l 1,21,-1
 241 325 l 2,22,23
 322 325 322 325 361.5 357.5 c 128,-1,24
 401 390 401 390 401 464 c 0,25,26
 400 598 400 598 260 598 c 0,17,18
EndSplineSet
EndChar

StartChar: Q
Encoding: 81 81 52
Width: 500
Flags: W
LayerCount: 2
Fore
SplineSet
31 334 m 0,0,1
 31 424 31 424 48.5 489.5 c 128,-1,2
 66 555 66 555 97.5 597.5 c 128,-1,3
 129 640 129 640 172.5 661.5 c 128,-1,4
 216 683 216 683 270 683 c 0,5,6
 323 683 323 683 367 661.5 c 128,-1,7
 411 640 411 640 442.5 597.5 c 128,-1,8
 474 555 474 555 492 489 c 128,-1,9
 510 423 510 423 510 334 c 0,10,11
 510 254 510 254 496 193 c 128,-1,12
 482 132 482 132 456 88.5 c 128,-1,13
 430 45 430 45 393 20.5 c 128,-1,14
 356 -4 356 -4 312 -12 c 1,15,16
 315 -34 315 -34 330.5 -49.5 c 128,-1,17
 346 -65 346 -65 369 -76 c 128,-1,18
 392 -87 392 -87 421.5 -95 c 128,-1,19
 451 -103 451 -103 484 -107 c 1,20,-1
 463 -178 l 1,21,22
 419 -170 419 -170 378.5 -158.5 c 128,-1,23
 338 -147 338 -147 305.5 -127.5 c 128,-1,24
 273 -108 273 -108 250.5 -80 c 128,-1,25
 228 -52 228 -52 220 -11 c 1,26,27
 133 7 133 7 82 91 c 128,-1,28
 31 175 31 175 31 334 c 0,0,1
122 333.5 m 128,-1,30
 122 202 122 202 157.5 132 c 128,-1,31
 193 62 193 62 268 62 c 0,32,33
 344 62 344 62 381.5 132 c 128,-1,34
 419 202 419 202 419 333.5 c 128,-1,35
 419 465 419 465 381 535.5 c 128,-1,36
 343 606 343 606 268 606 c 128,-1,37
 193 606 193 606 157.5 535.5 c 128,-1,29
 122 465 122 465 122 333.5 c 128,-1,30
EndSplineSet
EndChar

StartChar: R
Encoding: 82 82 53
Width: 500
Flags: W
LayerCount: 2
Fore
SplineSet
465 464 m 0,0,1
 465 402 465 402 433 355.5 c 128,-1,2
 401 309 401 309 346 283 c 1,3,4
 362 257 362 257 382 224 c 128,-1,5
 402 191 402 191 422.5 154 c 128,-1,6
 443 117 443 117 463 77.5 c 128,-1,7
 483 38 483 38 500 0 c 1,8,-1
 405 0 l 1,9,10
 373 78 373 78 334.5 149 c 128,-1,11
 296 220 296 220 260 265 c 1,12,13
 254 264 254 264 241.5 264 c 128,-1,14
 229 264 229 264 225 264 c 2,15,-1
 149 264 l 1,16,-1
 149 0 l 1,17,-1
 59 0 l 1,18,-1
 59 659 l 1,19,20
 75 663 75 663 96.5 666.5 c 128,-1,21
 118 670 118 670 140 671.5 c 128,-1,22
 162 673 162 673 183.5 674 c 128,-1,23
 205 675 205 675 222 675 c 0,24,25
 343 675 343 675 404 622 c 128,-1,26
 465 569 465 569 465 464 c 0,0,1
230 598 m 0,27,28
 205 598 205 598 182 597.5 c 128,-1,29
 159 597 159 597 149 595 c 1,30,-1
 149 337 l 1,31,-1
 206 337 l 2,32,33
 245 337 245 337 276 342.5 c 128,-1,34
 307 348 307 348 329 362.5 c 128,-1,35
 351 377 351 377 363 402.5 c 128,-1,36
 375 428 375 428 375 469 c 0,37,38
 375 508 375 508 363 532.5 c 128,-1,39
 351 557 351 557 331.5 571.5 c 128,-1,40
 312 586 312 586 285.5 592 c 128,-1,41
 259 598 259 598 230 598 c 0,27,28
EndSplineSet
EndChar

StartChar: S
Encoding: 83 83 54
Width: 500
Flags: W
LayerCount: 2
Fore
SplineSet
253 63 m 0,0,1
 321 63 321 63 356.5 88.5 c 128,-1,2
 392 114 392 114 392 166 c 0,3,4
 392 197 392 197 379 219.5 c 128,-1,5
 366 242 366 242 344.5 258.5 c 128,-1,6
 323 275 323 275 296 287.5 c 128,-1,7
 269 300 269 300 241 311 c 0,8,9
 209 324 209 324 179 340 c 128,-1,10
 149 356 149 356 126 378 c 128,-1,11
 103 400 103 400 89.5 429 c 128,-1,12
 76 458 76 458 76 498 c 0,13,14
 76 585 76 585 131 634.5 c 128,-1,15
 186 684 186 684 284 684 c 0,16,17
 311 684 311 684 337.5 680 c 128,-1,18
 364 676 364 676 386.5 670.5 c 128,-1,19
 409 665 409 665 427 657.5 c 128,-1,20
 445 650 445 650 456 643 c 1,21,-1
 428 568 l 1,22,23
 406 581 406 581 368 594 c 128,-1,24
 330 607 330 607 284 607 c 0,25,26
 235 607 235 607 199.5 582.5 c 128,-1,27
 164 558 164 558 164 510 c 0,28,29
 164 482 164 482 174.5 462.5 c 128,-1,30
 185 443 185 443 202.5 428.5 c 128,-1,31
 220 414 220 414 244 402 c 128,-1,32
 268 390 268 390 296 378 c 0,33,34
 337 361 337 361 371 343.5 c 128,-1,35
 405 326 405 326 429.5 302.5 c 128,-1,36
 454 279 454 279 467.5 246.5 c 128,-1,37
 481 214 481 214 481 167 c 0,38,39
 481 80 481 80 422 33 c 128,-1,40
 363 -14 363 -14 253 -14 c 0,41,42
 217 -14 217 -14 185.5 -9 c 128,-1,43
 154 -4 154 -4 130 3.5 c 128,-1,44
 106 11 106 11 87.5 18.5 c 128,-1,45
 69 26 69 26 59 32 c 1,46,-1
 86 106 l 1,47,48
 108 94 108 94 150.5 78.5 c 128,-1,49
 193 63 193 63 253 63 c 0,0,1
EndSplineSet
EndChar

StartChar: T
Encoding: 84 84 55
Width: 500
Flags: W
LayerCount: 2
Fore
SplineSet
498 669 m 1,0,-1
 498 593 l 1,1,-1
 314 593 l 1,2,-1
 314 0 l 1,3,-1
 226 0 l 1,4,-1
 226 593 l 1,5,-1
 42 593 l 1,6,-1
 42 669 l 1,7,-1
 498 669 l 1,0,-1
EndSplineSet
EndChar

StartChar: U
Encoding: 85 85 56
Width: 500
Flags: W
LayerCount: 2
Fore
SplineSet
270 -14 m 128,-1,1
 211 -14 211 -14 169 3.5 c 128,-1,2
 127 21 127 21 101.5 52 c 128,-1,3
 76 83 76 83 64 128.5 c 128,-1,4
 52 174 52 174 52 230 c 2,5,-1
 52 669 l 1,6,-1
 140 669 l 1,7,-1
 140 240 l 2,8,9
 140 189 140 189 149.5 155 c 128,-1,10
 159 121 159 121 175.5 100.5 c 128,-1,11
 192 80 192 80 216 71.5 c 128,-1,12
 240 63 240 63 270 63 c 128,-1,13
 300 63 300 63 324 71.5 c 128,-1,14
 348 80 348 80 364.5 100.5 c 128,-1,15
 381 121 381 121 390.5 155 c 128,-1,16
 400 189 400 189 400 240 c 2,17,-1
 400 669 l 1,18,-1
 488 669 l 1,19,-1
 488 230 l 2,20,21
 488 174 488 174 476 128.5 c 128,-1,22
 464 83 464 83 438.5 52 c 128,-1,23
 413 21 413 21 371 3.5 c 128,-1,0
 329 -14 329 -14 270 -14 c 128,-1,1
EndSplineSet
EndChar

StartChar: V
Encoding: 86 86 57
Width: 500
Flags: W
LayerCount: 2
Fore
SplineSet
110 669 m 1,0,1
 123 601 123 601 143 520.5 c 128,-1,2
 163 440 163 440 185 359.5 c 128,-1,3
 207 279 207 279 230 205.5 c 128,-1,4
 253 132 253 132 272 77 c 1,5,6
 289 132 289 132 312.5 206.5 c 128,-1,7
 336 281 336 281 358.5 361.5 c 128,-1,8
 381 442 381 442 401 522 c 128,-1,9
 421 602 421 602 434 669 c 1,10,-1
 527 669 l 1,11,12
 518 626 518 626 499 553 c 128,-1,13
 480 480 480 480 453 389.5 c 128,-1,14
 426 299 426 299 393 198 c 128,-1,15
 360 97 360 97 324 0 c 1,16,-1
 214 0 l 1,17,18
 181 97 181 97 149 197.5 c 128,-1,19
 117 298 117 298 90 388 c 128,-1,20
 63 478 63 478 43.5 551.5 c 128,-1,21
 24 625 24 625 14 669 c 1,22,-1
 110 669 l 1,0,1
EndSplineSet
EndChar

StartChar: W
Encoding: 87 87 58
Width: 500
Flags: W
LayerCount: 2
Fore
SplineSet
165 0 m 1,0,-1
 82 0 l 1,1,2
 72 66 72 66 65 145.5 c 128,-1,3
 58 225 58 225 52 311 c 128,-1,4
 46 397 46 397 42 488 c 128,-1,5
 38 579 38 579 35 669 c 1,6,-1
 121 669 l 1,7,-1
 133 110 l 1,8,-1
 230 415 l 1,9,-1
 308 415 l 1,10,-1
 407 110 l 1,11,-1
 419 669 l 1,12,-1
 505 669 l 1,13,14
 502 578 502 578 497 487 c 128,-1,15
 492 396 492 396 486 310.5 c 128,-1,16
 480 225 480 225 472 146 c 128,-1,17
 464 67 464 67 456 0 c 1,18,-1
 374 0 l 1,19,-1
 269 333 l 1,20,-1
 165 0 l 1,0,-1
EndSplineSet
EndChar

StartChar: X
Encoding: 88 88 59
Width: 500
Flags: W
LayerCount: 2
Fore
SplineSet
415 0 m 1,0,1
 403 29 403 29 386.5 66 c 128,-1,2
 370 103 370 103 352 141.5 c 128,-1,3
 334 180 334 180 313 219 c 128,-1,4
 292 258 292 258 269 292 c 1,5,6
 231 232 231 232 193.5 153.5 c 128,-1,7
 156 75 156 75 123 0 c 1,8,-1
 27 0 l 1,9,10
 63 80 63 80 110.5 173.5 c 128,-1,11
 158 267 158 267 212 353 c 1,12,-1
 38 669 l 1,13,-1
 136 669 l 1,14,-1
 267 413 l 1,15,-1
 407 669 l 1,16,-1
 503 669 l 1,17,-1
 326 356 l 1,18,19
 378 272 378 272 426.5 181.5 c 128,-1,20
 475 91 475 91 513 0 c 1,21,-1
 415 0 l 1,0,1
EndSplineSet
EndChar

StartChar: Y
Encoding: 89 89 60
Width: 500
Flags: W
LayerCount: 2
Fore
SplineSet
227 0 m 1,0,-1
 227 248 l 1,1,2
 161 356 161 356 107.5 459 c 128,-1,3
 54 562 54 562 14 669 c 1,4,-1
 113 669 l 1,5,6
 144 578 144 578 185 495.5 c 128,-1,7
 226 413 226 413 272 325 c 1,8,9
 322 417 322 417 360.5 499.5 c 128,-1,10
 399 582 399 582 430 669 c 1,11,-1
 527 669 l 1,12,13
 486 563 486 563 433 462.5 c 128,-1,14
 380 362 380 362 315 251 c 1,15,-1
 315 0 l 1,16,-1
 227 0 l 1,0,-1
EndSplineSet
EndChar

StartChar: Z
Encoding: 90 90 61
Width: 500
Flags: W
LayerCount: 2
Fore
SplineSet
483 599 m 1,0,1
 448 551 448 551 405.5 486 c 128,-1,2
 363 421 363 421 318.5 350 c 128,-1,3
 274 279 274 279 232.5 207 c 128,-1,4
 191 135 191 135 160 76 c 1,5,-1
 491 76 l 1,6,-1
 491 0 l 1,7,-1
 58 0 l 1,8,-1
 58 58 l 1,9,10
 91 126 91 126 132 198 c 128,-1,11
 173 270 173 270 215 339 c 128,-1,12
 257 408 257 408 299 473 c 128,-1,13
 341 538 341 538 380 593 c 1,14,-1
 75 593 l 1,15,-1
 75 669 l 1,16,-1
 483 669 l 1,17,-1
 483 599 l 1,0,1
EndSplineSet
EndChar

StartChar: bracketleft
Encoding: 91 91 62
Width: 500
Flags: W
LayerCount: 2
Fore
SplineSet
154 755 m 1,0,-1
 413 755 l 1,1,-1
 413 685 l 1,2,-1
 239 685 l 1,3,-1
 239 -108 l 1,4,-1
 413 -108 l 1,5,-1
 413 -178 l 1,6,-1
 154 -178 l 1,7,-1
 154 755 l 1,0,-1
EndSplineSet
Substitution2: "'case' +WSdlh1tXfUQwf3UoMGuKv2V0MFcwX1tXX2IA lookup 17 +MLUw1jDGMPww1jDr" Bracketleft
EndChar

StartChar: backslash
Encoding: 92 92 63
Width: 500
Flags: W
LayerCount: 2
Fore
SplineSet
76 755 m 1,0,-1
 165 755 l 1,1,-1
 464 -178 l 1,2,-1
 374 -178 l 1,3,-1
 76 755 l 1,0,-1
EndSplineSet
Substitution2: "'case' +WSdlh1tXfUQwf3UoMGuKv2V0MFcwX1tXX2IA lookup 17 +MLUw1jDGMPww1jDr" Backslash
EndChar

StartChar: bracketright
Encoding: 93 93 64
Width: 500
Flags: W
LayerCount: 2
Fore
SplineSet
386 -178 m 1,0,-1
 127 -178 l 1,1,-1
 127 -108 l 1,2,-1
 301 -108 l 1,3,-1
 301 685 l 1,4,-1
 127 685 l 1,5,-1
 127 755 l 1,6,-1
 386 755 l 1,7,-1
 386 -178 l 1,0,-1
EndSplineSet
Substitution2: "'case' +WSdlh1tXfUQwf3UoMGuKv2V0MFcwX1tXX2IA lookup 17 +MLUw1jDGMPww1jDr" Bracketright
EndChar

StartChar: asciicircum
Encoding: 94 94 65
Width: 500
Flags: W
LayerCount: 2
Fore
SplineSet
310 669 m 1,0,-1
 497 340 l 1,1,-1
 426 303 l 1,2,-1
 270 576 l 1,3,-1
 114 303 l 1,4,-1
 43 340 l 1,5,-1
 230 669 l 1,6,-1
 310 669 l 1,0,-1
EndSplineSet
EndChar

StartChar: underscore
Encoding: 95 95 66
Width: 500
Flags: W
LayerCount: 2
Fore
SplineSet
50 -103 m 1,0,-1
 491 -103 l 1,1,-1
 491 -178 l 1,2,-1
 50 -178 l 1,3,-1
 50 -103 l 1,0,-1
EndSplineSet
EndChar

StartChar: grave
Encoding: 96 96 67
Width: 500
Flags: W
LayerCount: 2
Fore
SplineSet
233 748 m 1,0,-1
 356 599 l 1,1,-1
 311 559 l 1,2,-1
 176 691 l 1,3,-1
 233 748 l 1,0,-1
EndSplineSet
EndChar

StartChar: a
Encoding: 97 97 68
Width: 500
Flags: W
LayerCount: 2
Fore
SplineSet
275 64 m 0,0,1
 308 64 308 64 335 66 c 128,-1,2
 362 68 362 68 379 71 c 1,3,-1
 379 220 l 1,4,5
 362 225 362 225 337.5 228.5 c 128,-1,6
 313 232 313 232 286 232 c 0,7,8
 261 232 261 232 237.5 228.5 c 128,-1,9
 214 225 214 225 195.5 215 c 128,-1,10
 177 205 177 205 165 189.5 c 128,-1,11
 153 174 153 174 153 150 c 0,12,13
 153 101 153 101 186 82.5 c 128,-1,14
 219 64 219 64 275 64 c 0,0,1
267 513 m 0,15,16
 323 513 323 513 361.5 499 c 128,-1,17
 400 485 400 485 423.5 460 c 128,-1,18
 447 435 447 435 457 399.5 c 128,-1,19
 467 364 467 364 467 322 c 2,20,-1
 467 9 l 1,21,22
 436 4 436 4 384.5 -4 c 128,-1,23
 333 -12 333 -12 279 -12 c 0,24,25
 238 -12 238 -12 199 -5 c 128,-1,26
 160 2 160 2 129.5 20 c 128,-1,27
 99 38 99 38 81 69 c 128,-1,28
 63 100 63 100 63 149 c 0,29,30
 63 192 63 192 81.5 222 c 128,-1,31
 100 252 100 252 130 270 c 128,-1,32
 160 288 160 288 198.5 296.5 c 128,-1,33
 237 305 237 305 275 305 c 0,34,35
 328 305 328 305 379 293 c 1,36,-1
 379 318 l 2,37,38
 379 341 379 341 374 361.5 c 128,-1,39
 369 382 369 382 355.5 399.5 c 128,-1,40
 342 417 342 417 319 427 c 128,-1,41
 296 437 296 437 259 437 c 0,42,43
 213 437 213 437 178.5 430.5 c 128,-1,44
 144 424 144 424 125 418 c 1,45,-1
 114 491 l 1,46,47
 132 500 132 500 175 506.5 c 128,-1,48
 218 513 218 513 267 513 c 0,15,16
EndSplineSet
Substitution2: "'case' +WSdlh1tXfUQwf3UoMGuKv2V0MFcwX1tXX2IA lookup 18 +MLUw1jDGMPww1jDr" A
Substitution2: "'ordn' +Xo9lcAAA in +MOkwxjDzZYdbVwAA lookup 7 +MLUw1jDGMPww1jDr" ordfeminine
EndChar

StartChar: b
Encoding: 98 98 69
Width: 500
Flags: W
LayerCount: 2
Fore
SplineSet
166 483 m 1,0,1
 182 493 182 493 213 503 c 128,-1,2
 244 513 244 513 282 513 c 0,3,4
 333 513 333 513 373 493.5 c 128,-1,5
 413 474 413 474 440.5 439.5 c 128,-1,6
 468 405 468 405 482.5 357 c 128,-1,7
 497 309 497 309 497 251 c 0,8,9
 497 191 497 191 479.5 142 c 128,-1,10
 462 93 462 93 431 59 c 128,-1,11
 400 25 400 25 355.5 6.5 c 128,-1,12
 311 -12 311 -12 257 -12 c 0,13,14
 198 -12 198 -12 151.5 -3.5 c 128,-1,15
 105 5 105 5 77 14 c 1,16,-1
 77 733 l 1,17,-1
 166 748 l 1,18,-1
 166 483 l 1,0,1
166 78 m 1,19,20
 187 73 187 73 207.5 70 c 128,-1,21
 228 67 228 67 246 67 c 0,22,23
 321 67 321 67 363 113 c 128,-1,24
 405 159 405 159 405 251 c 0,25,26
 405 290 405 290 397.5 323.5 c 128,-1,27
 390 357 390 357 373.5 381.5 c 128,-1,28
 357 406 357 406 332 420 c 128,-1,29
 307 434 307 434 271 434 c 0,30,31
 240 434 240 434 210.5 421.5 c 128,-1,32
 181 409 181 409 166 395 c 1,33,-1
 166 78 l 1,19,20
EndSplineSet
Substitution2: "'case' +WSdlh1tXfUQwf3UoMGuKv2V0MFcwX1tXX2IA lookup 18 +MLUw1jDGMPww1jDr" B
EndChar

StartChar: c
Encoding: 99 99 70
Width: 500
Flags: W
LayerCount: 2
Fore
SplineSet
53 249 m 0,0,1
 53 317 53 317 74.5 367 c 128,-1,2
 96 417 96 417 134 449.5 c 128,-1,3
 172 482 172 482 222 497.5 c 128,-1,4
 272 513 272 513 329 513 c 0,5,6
 366 513 366 513 402 508 c 128,-1,7
 438 503 438 503 480 490 c 1,8,-1
 459 414 l 1,9,10
 423 427 423 427 393.5 430.5 c 128,-1,11
 364 434 364 434 334 434 c 0,12,13
 295 434 295 434 260.5 424 c 128,-1,14
 226 414 226 414 200.5 391.5 c 128,-1,15
 175 369 175 369 160 334 c 128,-1,16
 145 299 145 299 145 249 c 0,17,18
 145 201 145 201 159 167.5 c 128,-1,19
 173 134 173 134 198.5 112 c 128,-1,20
 224 90 224 90 259.5 79 c 128,-1,21
 295 68 295 68 338 68 c 0,22,23
 373 68 373 68 404.5 72 c 128,-1,24
 436 76 436 76 474 89 c 1,25,-1
 487 14 l 1,26,27
 449 0 449 0 410.5 -6 c 128,-1,28
 372 -12 372 -12 326 -12 c 0,29,30
 266 -12 266 -12 215.5 5 c 128,-1,31
 165 22 165 22 129 54 c 128,-1,32
 93 86 93 86 73 135 c 128,-1,33
 53 184 53 184 53 249 c 0,0,1
EndSplineSet
Substitution2: "'case' +WSdlh1tXfUQwf3UoMGuKv2V0MFcwX1tXX2IA lookup 18 +MLUw1jDGMPww1jDr" C
EndChar

StartChar: d
Encoding: 100 100 71
Width: 500
Flags: W
LayerCount: 2
Fore
SplineSet
374 395 m 1,0,1
 359 409 359 409 329.5 421.5 c 128,-1,2
 300 434 300 434 269 434 c 0,3,4
 233 434 233 434 208 420 c 128,-1,5
 183 406 183 406 166.5 381.5 c 128,-1,6
 150 357 150 357 142.5 323 c 128,-1,7
 135 289 135 289 135 251 c 0,8,9
 135 164 135 164 176 116 c 128,-1,10
 217 68 217 68 283 68 c 0,11,12
 316 68 316 68 339.5 71.5 c 128,-1,13
 363 75 363 75 374 78 c 1,14,-1
 374 395 l 1,0,1
374 733 m 1,15,-1
 463 748 l 1,16,-1
 463 14 l 1,17,18
 434 5 434 5 388.5 -3.5 c 128,-1,19
 343 -12 343 -12 283 -12 c 0,20,21
 229 -12 229 -12 184.5 6.5 c 128,-1,22
 140 25 140 25 109 59 c 128,-1,23
 78 93 78 93 60.5 141.5 c 128,-1,24
 43 190 43 190 43 251 c 0,25,26
 43 309 43 309 57.5 357 c 128,-1,27
 72 405 72 405 100.5 439.5 c 128,-1,28
 129 474 129 474 168 493.5 c 128,-1,29
 207 513 207 513 258 513 c 0,30,31
 298 513 298 513 328.5 503.5 c 128,-1,32
 359 494 359 494 374 483 c 1,33,-1
 374 733 l 1,15,-1
EndSplineSet
Substitution2: "'case' +WSdlh1tXfUQwf3UoMGuKv2V0MFcwX1tXX2IA lookup 18 +MLUw1jDGMPww1jDr" D
EndChar

StartChar: e
Encoding: 101 101 72
Width: 500
Flags: W
LayerCount: 2
Fore
SplineSet
280 513 m 0,0,1
 382 513 382 513 436.5 450 c 128,-1,2
 491 387 491 387 491 258 c 2,3,-1
 491 227 l 1,4,-1
 133 227 l 1,5,6
 138 149 138 149 184 108.5 c 128,-1,7
 230 68 230 68 313 68 c 0,8,9
 361 68 361 68 394.5 75.5 c 128,-1,10
 428 83 428 83 445 92 c 1,11,-1
 457 16 l 1,12,13
 441 7 441 7 398.5 -2.5 c 128,-1,14
 356 -12 356 -12 303 -12 c 0,15,16
 238 -12 238 -12 189 8 c 128,-1,17
 140 28 140 28 108 62.5 c 128,-1,18
 76 97 76 97 59.5 145 c 128,-1,19
 43 193 43 193 43 249 c 0,20,21
 43 316 43 316 63.5 366 c 128,-1,22
 84 416 84 416 117.5 448.5 c 128,-1,23
 151 481 151 481 193.5 497 c 128,-1,24
 236 513 236 513 280 513 c 0,0,1
401 299 m 1,25,26
 401 363 401 363 367.5 400 c 128,-1,27
 334 437 334 437 279 437 c 0,28,29
 248 437 248 437 222.5 425.5 c 128,-1,30
 197 414 197 414 178.5 394.5 c 128,-1,31
 160 375 160 375 149 350 c 128,-1,32
 138 325 138 325 135 299 c 1,33,-1
 401 299 l 1,25,26
EndSplineSet
Substitution2: "'case' +WSdlh1tXfUQwf3UoMGuKv2V0MFcwX1tXX2IA lookup 18 +MLUw1jDGMPww1jDr" E
EndChar

StartChar: f
Encoding: 102 102 73
Width: 500
Flags: W
LayerCount: 2
Fore
SplineSet
174 0 m 1,0,-1
 174 427 l 1,1,-1
 68 427 l 1,2,-1
 68 501 l 1,3,-1
 174 501 l 1,4,-1
 174 546 l 2,5,6
 174 604 174 604 190 642.5 c 128,-1,7
 206 681 206 681 232.5 705 c 128,-1,8
 259 729 259 729 294 738.5 c 128,-1,9
 329 748 329 748 368 748 c 128,-1,10
 407 748 407 748 446.5 739.5 c 128,-1,11
 486 731 486 731 521 719 c 1,12,-1
 504 643 l 1,13,14
 480 655 480 655 444.5 663.5 c 128,-1,15
 409 672 409 672 373 672 c 0,16,17
 350 672 350 672 330 666 c 128,-1,18
 310 660 310 660 295 645.5 c 128,-1,19
 280 631 280 631 271 606.5 c 128,-1,20
 262 582 262 582 262 545 c 2,21,-1
 262 501 l 1,22,-1
 464 501 l 1,23,-1
 464 427 l 1,24,-1
 262 427 l 1,25,-1
 262 0 l 1,26,-1
 174 0 l 1,0,-1
EndSplineSet
Substitution2: "'case' +WSdlh1tXfUQwf3UoMGuKv2V0MFcwX1tXX2IA lookup 18 +MLUw1jDGMPww1jDr" F
EndChar

StartChar: g
Encoding: 103 103 74
Width: 500
Flags: W
LayerCount: 2
Fore
SplineSet
374 46 m 1,0,1
 359 37 359 37 327.5 27.5 c 128,-1,2
 296 18 296 18 255 18 c 0,3,4
 211 18 211 18 172.5 33 c 128,-1,5
 134 48 134 48 105.5 77.5 c 128,-1,6
 77 107 77 107 60 153 c 128,-1,7
 43 199 43 199 43 261 c 0,8,9
 43 316 43 316 59 362 c 128,-1,10
 75 408 75 408 104.5 441.5 c 128,-1,11
 134 475 134 475 177 494 c 128,-1,12
 220 513 220 513 275 513 c 0,13,14
 340 513 340 513 386 504 c 128,-1,15
 432 495 432 495 463 486 c 1,16,-1
 463 39 l 2,17,18
 463 -78 463 -78 404.5 -129.5 c 128,-1,19
 346 -181 346 -181 227 -181 c 0,20,21
 178 -181 178 -181 138.5 -173.5 c 128,-1,22
 99 -166 99 -166 69 -156 c 1,23,-1
 85 -77 l 1,24,25
 113 -89 113 -89 149.5 -96.5 c 128,-1,26
 186 -104 186 -104 229 -104 c 0,27,28
 307 -104 307 -104 340.5 -72.5 c 128,-1,29
 374 -41 374 -41 374 29 c 2,30,-1
 374 46 l 1,0,1
374 422 m 1,31,32
 361 426 361 426 338 430 c 128,-1,33
 315 434 315 434 276 434 c 0,34,35
 207 434 207 434 171 386.5 c 128,-1,36
 135 339 135 339 135 260 c 0,37,38
 135 217 135 217 145.5 186.5 c 128,-1,39
 156 156 156 156 173.5 136 c 128,-1,40
 191 116 191 116 214 106.5 c 128,-1,41
 237 97 237 97 262 97 c 0,42,43
 295 97 295 97 325 107 c 128,-1,44
 355 117 355 117 374 130 c 1,45,-1
 374 422 l 1,31,32
EndSplineSet
Substitution2: "'case' +WSdlh1tXfUQwf3UoMGuKv2V0MFcwX1tXX2IA lookup 18 +MLUw1jDGMPww1jDr" G
EndChar

StartChar: h
Encoding: 104 104 75
Width: 500
Flags: W
LayerCount: 2
Fore
SplineSet
77 0 m 1,0,-1
 77 733 l 1,1,-1
 166 748 l 1,2,-1
 166 494 l 1,3,4
 188 503 188 503 215 507.5 c 128,-1,5
 242 512 242 512 268 512 c 0,6,7
 325 512 325 512 363.5 495 c 128,-1,8
 402 478 402 478 424.5 448 c 128,-1,9
 447 418 447 418 457 376 c 128,-1,10
 467 334 467 334 467 283 c 2,11,-1
 467 0 l 1,12,-1
 378 0 l 1,13,-1
 378 264 l 2,14,15
 378 357 378 357 352 395 c 128,-1,16
 326 433 326 433 259 433 c 0,17,18
 231 433 231 433 204.5 427 c 128,-1,19
 178 421 178 421 166 416 c 1,20,-1
 166 0 l 1,21,-1
 77 0 l 1,0,-1
EndSplineSet
Substitution2: "'case' +WSdlh1tXfUQwf3UoMGuKv2V0MFcwX1tXX2IA lookup 18 +MLUw1jDGMPww1jDr" H
EndChar

StartChar: i
Encoding: 105 105 76
Width: 500
Flags: W
LayerCount: 2
Fore
SplineSet
329 579 m 0,0,1
 301 579 301 579 280.5 598.5 c 128,-1,2
 260 618 260 618 260 651.5 c 128,-1,3
 260 685 260 685 280.5 704.5 c 128,-1,4
 301 724 301 724 329 724 c 0,5,6
 358 724 358 724 378.5 704.5 c 128,-1,7
 399 685 399 685 399 651.5 c 128,-1,8
 399 618 399 618 378.5 598.5 c 128,-1,9
 358 579 358 579 329 579 c 0,0,1
286 427 m 1,10,-1
 141 427 l 1,11,-1
 141 501 l 1,12,-1
 375 501 l 1,13,-1
 375 0 l 1,14,-1
 286 0 l 1,15,-1
 286 427 l 1,10,-1
EndSplineSet
Substitution2: "'case' +WSdlh1tXfUQwf3UoMGuKv2V0MFcwX1tXX2IA lookup 18 +MLUw1jDGMPww1jDr" I
Substitution2: "'locl' +Vv0w+1cwV99W+mcJMG5bV19i in +MOkwxjDzZYdbVwAA lookup 2 +MLUw1jDGMPww1jDr" i.locl
Substitution2: "'locl' +Vv0w+1cwV99W+mcJMG5bV19i in +MOkwxjDzZYdbVwAA lookup 1 +MLUw1jDGMPww1jDr" i.locl
Substitution2: "'locl' +Vv0w+1cwV99W+mcJMG5bV19i in +MOkwxjDzZYdbVwAA lookup 0 +MLUw1jDGMPww1jDr" i.locl
EndChar

StartChar: j
Encoding: 106 106 77
Width: 500
Flags: W
LayerCount: 2
Fore
SplineSet
370 579 m 0,0,1
 342 579 342 579 321.5 598.5 c 128,-1,2
 301 618 301 618 301 651.5 c 128,-1,3
 301 685 301 685 321.5 704.5 c 128,-1,4
 342 724 342 724 370 724 c 0,5,6
 399 724 399 724 419.5 704.5 c 128,-1,7
 440 685 440 685 440 651.5 c 128,-1,8
 440 618 440 618 419.5 598.5 c 128,-1,9
 399 579 399 579 370 579 c 0,0,1
325 427 m 1,10,-1
 325 501 l 1,11,-1
 415 501 l 1,12,-1
 415 5 l 2,13,14
 415 -47 415 -47 400.5 -83 c 128,-1,15
 386 -119 386 -119 361.5 -141.5 c 128,-1,16
 337 -164 337 -164 305 -174 c 128,-1,17
 273 -184 273 -184 238 -184 c 0,18,19
 197 -184 197 -184 155 -175 c 128,-1,20
 113 -166 113 -166 77 -148 c 1,21,-1
 104 -72 l 1,22,23
 131 -85 131 -85 164 -94.5 c 128,-1,24
 197 -104 197 -104 227 -104 c 0,25,26
 270 -104 270 -104 298 -81.5 c 128,-1,27
 326 -59 326 -59 326 4 c 2,28,-1
 326 427 l 1,29,-1
 325 427 l 1,10,-1
EndSplineSet
Substitution2: "'case' +WSdlh1tXfUQwf3UoMGuKv2V0MFcwX1tXX2IA lookup 18 +MLUw1jDGMPww1jDr" J
EndChar

StartChar: k
Encoding: 107 107 78
Width: 500
Flags: W
LayerCount: 2
Fore
SplineSet
257 275 m 1,0,1
 286 253 286 253 323 220.5 c 128,-1,2
 360 188 360 188 396 150 c 128,-1,3
 432 112 432 112 464.5 72.5 c 128,-1,4
 497 33 497 33 516 0 c 1,5,-1
 410 0 l 1,6,7
 389 33 389 33 359 68.5 c 128,-1,8
 329 104 329 104 295 136 c 128,-1,9
 261 168 261 168 227 195 c 128,-1,10
 193 222 193 222 166 241 c 1,11,-1
 166 0 l 1,12,-1
 77 0 l 1,13,-1
 77 733 l 1,14,-1
 166 748 l 1,15,-1
 166 292 l 1,16,17
 225 344 225 344 285 395 c 128,-1,18
 345 446 345 446 392 501 c 1,19,-1
 497 501 l 1,20,21
 451 446 451 446 385.5 387.5 c 128,-1,22
 320 329 320 329 257 275 c 1,0,1
EndSplineSet
Substitution2: "'case' +WSdlh1tXfUQwf3UoMGuKv2V0MFcwX1tXX2IA lookup 18 +MLUw1jDGMPww1jDr" K
EndChar

StartChar: l
Encoding: 108 108 79
Width: 500
Flags: W
LayerCount: 2
Fore
SplineSet
365 -12 m 0,0,1
 317 -12 317 -12 286 1 c 128,-1,2
 255 14 255 14 237 40 c 1,3,4
 216 68 216 68 211 104 c 0,5,6
 203 159 203 159 203 193 c 2,7,-1
 203 743 l 1,8,-1
 292 743 l 1,9,-1
 292 193 l 2,10,11
 292 155 292 155 296.5 131.5 c 128,-1,12
 301 108 301 108 311.5 93.5 c 128,-1,13
 322 79 322 79 337 73.5 c 128,-1,14
 352 68 352 68 373 68 c 0,15,16
 404 68 404 68 431 75.5 c 128,-1,17
 458 83 458 83 473 92 c 1,18,-1
 486 16 l 1,19,20
 480 13 480 13 468 8 c 128,-1,21
 456 3 456 3 439.5 -1 c 128,-1,22
 423 -5 423 -5 404.5 -8.5 c 128,-1,23
 386 -12 386 -12 365 -12 c 0,0,1
EndSplineSet
Substitution2: "'case' +WSdlh1tXfUQwf3UoMGuKv2V0MFcwX1tXX2IA lookup 18 +MLUw1jDGMPww1jDr" L
EndChar

StartChar: m
Encoding: 109 109 80
Width: 500
Flags: W
LayerCount: 2
Fore
SplineSet
44 487 m 1,0,1
 109 512 109 512 166 512 c 0,2,3
 197 512 197 512 225 503 c 128,-1,4
 253 494 253 494 272 474 c 1,5,6
 318 512 318 512 372 512 c 0,7,8
 398 512 398 512 421 502 c 128,-1,9
 444 492 444 492 462 473 c 128,-1,10
 480 454 480 454 490.5 424.5 c 128,-1,11
 501 395 501 395 501 356 c 2,12,-1
 501 0 l 1,13,-1
 420 0 l 1,14,-1
 420 359 l 2,15,16
 420 398 420 398 403 418 c 128,-1,17
 386 438 386 438 360 438 c 0,18,19
 347 438 347 438 333 432 c 128,-1,20
 319 426 319 426 307 411 c 1,21,22
 313 386 313 386 313 356 c 2,23,-1
 313 193 l 1,24,-1
 232 193 l 1,25,-1
 232 357 l 2,26,27
 232 395 232 395 220 416.5 c 128,-1,28
 208 438 208 438 174 438 c 0,29,30
 152 438 152 438 125 429 c 1,31,-1
 125 0 l 1,32,-1
 44 0 l 1,33,-1
 44 487 l 1,0,1
EndSplineSet
Substitution2: "'case' +WSdlh1tXfUQwf3UoMGuKv2V0MFcwX1tXX2IA lookup 18 +MLUw1jDGMPww1jDr" M
EndChar

StartChar: n
Encoding: 110 110 81
Width: 500
Flags: W
LayerCount: 2
Fore
SplineSet
77 487 m 1,0,1
 126 499 126 499 173.5 505.5 c 128,-1,2
 221 512 221 512 264 512 c 0,3,4
 364 512 364 512 415.5 460 c 128,-1,5
 467 408 467 408 467 294 c 2,6,-1
 467 0 l 1,7,-1
 378 0 l 1,8,-1
 378 278 l 2,9,10
 378 327 378 327 369.5 357 c 128,-1,11
 361 387 361 387 345 403.5 c 128,-1,12
 329 420 329 420 307 426.5 c 128,-1,13
 285 433 285 433 259 433 c 0,14,15
 237 433 237 433 213 430.5 c 128,-1,16
 189 428 189 428 166 423 c 1,17,-1
 166 0 l 1,18,-1
 77 0 l 1,19,-1
 77 487 l 1,0,1
EndSplineSet
Substitution2: "'case' +WSdlh1tXfUQwf3UoMGuKv2V0MFcwX1tXX2IA lookup 18 +MLUw1jDGMPww1jDr" N
EndChar

StartChar: o
Encoding: 111 111 82
Width: 500
Flags: W
LayerCount: 2
Fore
SplineSet
497 250.5 m 128,-1,1
 497 191 497 191 480 143 c 128,-1,2
 463 95 463 95 433 60.5 c 128,-1,3
 403 26 403 26 361 7 c 128,-1,4
 319 -12 319 -12 269 -12 c 0,5,6
 220 -12 220 -12 178.5 7 c 128,-1,7
 137 26 137 26 107 60.5 c 128,-1,8
 77 95 77 95 60 143 c 128,-1,9
 43 191 43 191 43 250.5 c 128,-1,10
 43 310 43 310 60 358.5 c 128,-1,11
 77 407 77 407 107 441 c 128,-1,12
 137 475 137 475 178.5 494 c 128,-1,13
 220 513 220 513 269 513 c 0,14,15
 319 513 319 513 361 494 c 128,-1,16
 403 475 403 475 433 441 c 128,-1,17
 463 407 463 407 480 358.5 c 128,-1,0
 497 310 497 310 497 250.5 c 128,-1,1
405 251 m 0,18,19
 405 336 405 336 368.5 385 c 128,-1,20
 332 434 332 434 269 434 c 0,21,22
 207 434 207 434 171 385 c 128,-1,23
 135 336 135 336 135 251 c 0,24,25
 135 167 135 167 171 117.5 c 128,-1,26
 207 68 207 68 269 68 c 0,27,28
 332 68 332 68 368.5 117.5 c 128,-1,29
 405 167 405 167 405 251 c 0,18,19
EndSplineSet
Substitution2: "'case' +WSdlh1tXfUQwf3UoMGuKv2V0MFcwX1tXX2IA lookup 18 +MLUw1jDGMPww1jDr" O
Substitution2: "'ordn' +Xo9lcAAA in +MOkwxjDzZYdbVwAA lookup 7 +MLUw1jDGMPww1jDr" ordmasculine
EndChar

StartChar: p
Encoding: 112 112 83
Width: 500
Flags: W
LayerCount: 2
Fore
SplineSet
405 249 m 0,0,1
 405 336 405 336 364 384.5 c 128,-1,2
 323 433 323 433 257 433 c 0,3,4
 220 433 220 433 199 430 c 128,-1,5
 178 427 178 427 166 422 c 1,6,-1
 166 106 l 1,7,8
 181 92 181 92 210.5 80 c 128,-1,9
 240 68 240 68 271 68 c 0,10,11
 307 68 307 68 332 82 c 128,-1,12
 357 96 357 96 373.5 120.5 c 128,-1,13
 390 145 390 145 397.5 177.5 c 128,-1,14
 405 210 405 210 405 249 c 0,0,1
497 249 m 0,15,16
 497 192 497 192 482.5 144 c 128,-1,17
 468 96 468 96 440.5 61.5 c 128,-1,18
 413 27 413 27 373 7.5 c 128,-1,19
 333 -12 333 -12 282 -12 c 0,20,21
 242 -12 242 -12 211.5 -2 c 128,-1,22
 181 8 181 8 166 19 c 1,23,-1
 166 -178 l 1,24,-1
 77 -178 l 1,25,-1
 77 486 l 1,26,27
 106 495 106 495 152 503.5 c 128,-1,28
 198 512 198 512 257 512 c 0,29,30
 311 512 311 512 355.5 493.5 c 128,-1,31
 400 475 400 475 431 441 c 128,-1,32
 462 407 462 407 479.5 358 c 128,-1,33
 497 309 497 309 497 249 c 0,15,16
EndSplineSet
Substitution2: "'case' +WSdlh1tXfUQwf3UoMGuKv2V0MFcwX1tXX2IA lookup 18 +MLUw1jDGMPww1jDr" P
EndChar

StartChar: q
Encoding: 113 113 84
Width: 500
Flags: W
LayerCount: 2
Fore
SplineSet
135 249 m 0,0,1
 135 210 135 210 143 177.5 c 128,-1,2
 151 145 151 145 167.5 120.5 c 128,-1,3
 184 96 184 96 209 82 c 128,-1,4
 234 68 234 68 270 68 c 0,5,6
 301 68 301 68 330.5 80 c 128,-1,7
 360 92 360 92 375 106 c 1,8,-1
 375 422 l 1,9,10
 363 426 363 426 342 429.5 c 128,-1,11
 321 433 321 433 284 433 c 0,12,13
 218 433 218 433 176.5 384.5 c 128,-1,14
 135 336 135 336 135 249 c 0,0,1
43 249 m 0,15,16
 43 309 43 309 60.5 358 c 128,-1,17
 78 407 78 407 109 441 c 128,-1,18
 140 475 140 475 185 493.5 c 128,-1,19
 230 512 230 512 284 512 c 0,20,21
 342 512 342 512 387 503 c 128,-1,22
 432 494 432 494 463 485 c 1,23,-1
 463 -178 l 1,24,-1
 374 -178 l 1,25,-1
 374 19 l 1,26,27
 358 8 358 8 327.5 -2 c 128,-1,28
 297 -12 297 -12 259 -12 c 0,29,30
 208 -12 208 -12 168.5 7.5 c 128,-1,31
 129 27 129 27 101 61.5 c 128,-1,32
 73 96 73 96 58 144 c 128,-1,33
 43 192 43 192 43 249 c 0,15,16
EndSplineSet
Substitution2: "'case' +WSdlh1tXfUQwf3UoMGuKv2V0MFcwX1tXX2IA lookup 18 +MLUw1jDGMPww1jDr" Q
EndChar

StartChar: r
Encoding: 114 114 85
Width: 500
Flags: W
LayerCount: 2
Fore
SplineSet
116 0 m 1,0,-1
 116 474 l 1,1,2
 226 512 226 512 338 512 c 0,3,4
 373 512 373 512 404 509.5 c 128,-1,5
 435 507 435 507 473 498 c 1,6,-1
 457 419 l 1,7,8
 422 429 422 429 395.5 431.5 c 128,-1,9
 369 434 369 434 338 434 c 0,10,11
 272 434 272 434 204 416 c 1,12,-1
 204 0 l 1,13,-1
 116 0 l 1,0,-1
EndSplineSet
Substitution2: "'case' +WSdlh1tXfUQwf3UoMGuKv2V0MFcwX1tXX2IA lookup 18 +MLUw1jDGMPww1jDr" R
EndChar

StartChar: s
Encoding: 115 115 86
Width: 500
Flags: W
LayerCount: 2
Fore
SplineSet
379 125 m 0,0,1
 379 152 379 152 357 169.5 c 128,-1,2
 335 187 335 187 302 200 c 128,-1,3
 269 213 269 213 230 225.5 c 128,-1,4
 191 238 191 238 158 256 c 128,-1,5
 125 274 125 274 103 301 c 128,-1,6
 81 328 81 328 81 372 c 0,7,8
 81 432 81 432 130 472.5 c 128,-1,9
 179 513 179 513 284 513 c 0,10,11
 325 513 325 513 369 507 c 128,-1,12
 413 501 413 501 444 491 c 1,13,-1
 428 411 l 1,14,15
 419 415 419 415 404 420.5 c 128,-1,16
 389 426 389 426 369.5 429.5 c 128,-1,17
 350 433 350 433 328 435 c 128,-1,18
 306 437 306 437 285 437 c 0,19,20
 168 437 168 437 168 374 c 0,21,22
 168 351 168 351 190.5 335.5 c 128,-1,23
 213 320 213 320 246.5 307 c 128,-1,24
 280 294 280 294 318.5 280.5 c 128,-1,25
 357 267 357 267 390.5 247.5 c 128,-1,26
 424 228 424 228 446.5 200.5 c 128,-1,27
 469 173 469 173 469 131 c 0,28,29
 469 63 469 63 416 25.5 c 128,-1,30
 363 -12 363 -12 248 -12 c 0,31,32
 196 -12 196 -12 153 -3.5 c 128,-1,33
 110 5 110 5 71 23 c 1,34,-1
 89 104 l 1,35,36
 127 87 127 87 168.5 75.5 c 128,-1,37
 210 64 210 64 257 64 c 0,38,39
 379 63 379 63 379 125 c 0,0,1
EndSplineSet
Substitution2: "'case' +WSdlh1tXfUQwf3UoMGuKv2V0MFcwX1tXX2IA lookup 18 +MLUw1jDGMPww1jDr" S
EndChar

StartChar: t
Encoding: 116 116 87
Width: 500
Flags: W
LayerCount: 2
Fore
SplineSet
262 501 m 1,0,-1
 474 501 l 1,1,-1
 474 427 l 1,2,-1
 262 427 l 1,3,-1
 262 193 l 2,4,5
 262 155 262 155 267.5 131.5 c 128,-1,6
 273 108 273 108 285.5 93.5 c 128,-1,7
 298 79 298 79 317.5 73.5 c 128,-1,8
 337 68 337 68 365 68 c 0,9,10
 404 68 404 68 427.5 74.5 c 128,-1,11
 451 81 451 81 473 92 c 1,12,-1
 486 16 l 1,13,14
 471 10 471 10 438 -1 c 128,-1,15
 405 -12 405 -12 356 -12 c 0,16,17
 300 -12 300 -12 264.5 1 c 128,-1,18
 229 14 229 14 209 40 c 128,-1,19
 189 66 189 66 181.5 104.5 c 128,-1,20
 174 143 174 143 174 193 c 2,21,-1
 174 427 l 1,22,-1
 68 427 l 1,23,-1
 68 501 l 1,24,-1
 174 501 l 1,25,-1
 174 642 l 1,26,-1
 262 657 l 1,27,-1
 262 501 l 1,0,-1
EndSplineSet
Substitution2: "'case' +WSdlh1tXfUQwf3UoMGuKv2V0MFcwX1tXX2IA lookup 18 +MLUw1jDGMPww1jDr" T
EndChar

StartChar: u
Encoding: 117 117 88
Width: 500
Flags: W
LayerCount: 2
Fore
SplineSet
463 14 m 1,0,1
 434 6 434 6 386 -2.5 c 128,-1,2
 338 -11 338 -11 273 -11 c 0,3,4
 216 -11 216 -11 178 6 c 128,-1,5
 140 23 140 23 116.5 53.5 c 128,-1,6
 93 84 93 84 83 126 c 128,-1,7
 73 168 73 168 73 219 c 2,8,-1
 73 501 l 1,9,-1
 162 501 l 1,10,-1
 162 239 l 2,11,12
 162 146 162 146 189.5 107 c 128,-1,13
 217 68 217 68 282 68 c 0,14,15
 296 68 296 68 310.5 69 c 128,-1,16
 325 70 325 70 338 71.5 c 128,-1,17
 351 73 351 73 360.5 75 c 128,-1,18
 370 77 370 77 374 78 c 1,19,-1
 374 501 l 1,20,-1
 463 501 l 1,21,-1
 463 14 l 1,0,1
EndSplineSet
Substitution2: "'case' +WSdlh1tXfUQwf3UoMGuKv2V0MFcwX1tXX2IA lookup 18 +MLUw1jDGMPww1jDr" U
EndChar

StartChar: v
Encoding: 118 118 89
Width: 500
Flags: W
LayerCount: 2
Fore
SplineSet
508 501 m 1,0,1
 489 431 489 431 463.5 363.5 c 128,-1,2
 438 296 438 296 412.5 231.5 c 128,-1,3
 387 167 387 167 360 109 c 128,-1,4
 333 51 333 51 308 0 c 1,5,-1
 227 0 l 1,6,7
 176 102 176 102 124 231.5 c 128,-1,8
 72 361 72 361 32 501 c 1,9,-1
 130 501 l 1,10,11
 143 453 143 453 159.5 400.5 c 128,-1,12
 176 348 176 348 194.5 295 c 128,-1,13
 213 242 213 242 232 193 c 128,-1,14
 251 144 251 144 269 105 c 1,15,16
 287 144 287 144 307 193 c 128,-1,17
 327 242 327 242 346.5 295 c 128,-1,18
 366 348 366 348 384 401 c 128,-1,19
 402 454 402 454 415 501 c 1,20,-1
 508 501 l 1,0,1
EndSplineSet
Substitution2: "'case' +WSdlh1tXfUQwf3UoMGuKv2V0MFcwX1tXX2IA lookup 18 +MLUw1jDGMPww1jDr" V
EndChar

StartChar: w
Encoding: 119 119 90
Width: 500
Flags: W
LayerCount: 2
Fore
SplineSet
370 0 m 1,0,1
 354 37 354 37 342 67 c 128,-1,2
 330 97 330 97 319 127.5 c 128,-1,3
 308 158 308 158 296.5 191 c 128,-1,4
 285 224 285 224 270 266 c 1,5,6
 255 224 255 224 243 191 c 128,-1,7
 231 158 231 158 219.5 127.5 c 128,-1,8
 208 97 208 97 196 67 c 128,-1,9
 184 37 184 37 167 0 c 1,10,-1
 100 0 l 1,11,12
 70 133 70 133 50 263 c 128,-1,13
 30 393 30 393 21 501 c 1,14,-1
 105 501 l 1,15,16
 108 459 108 459 112 418.5 c 128,-1,17
 116 378 116 378 121 333.5 c 128,-1,18
 126 289 126 289 133 237.5 c 128,-1,19
 140 186 140 186 149 121 c 1,20,21
 166 164 166 164 178 196.5 c 128,-1,22
 190 229 190 229 200 258 c 128,-1,23
 210 287 210 287 219 317.5 c 128,-1,24
 228 348 228 348 239 386 c 1,25,-1
 306 386 l 1,26,27
 317 348 317 348 325.5 317.5 c 128,-1,28
 334 287 334 287 343.5 258 c 128,-1,29
 353 229 353 229 364 196.5 c 128,-1,30
 375 164 375 164 391 122 c 1,31,32
 401 181 401 181 408.5 232 c 128,-1,33
 416 283 416 283 421.5 328 c 128,-1,34
 427 373 427 373 431 415 c 128,-1,35
 435 457 435 457 438 501 c 1,36,-1
 519 501 l 1,37,38
 514 447 514 447 506.5 385.5 c 128,-1,39
 499 324 499 324 488 259 c 128,-1,40
 477 194 477 194 464 128 c 128,-1,41
 451 62 451 62 437 0 c 1,42,-1
 370 0 l 1,0,1
EndSplineSet
Substitution2: "'case' +WSdlh1tXfUQwf3UoMGuKv2V0MFcwX1tXX2IA lookup 18 +MLUw1jDGMPww1jDr" W
EndChar

StartChar: x
Encoding: 120 120 91
Width: 500
Flags: W
LayerCount: 2
Fore
SplineSet
410 0 m 1,0,1
 399 22 399 22 383.5 47.5 c 128,-1,2
 368 73 368 73 350 101 c 128,-1,3
 332 129 332 129 312 156 c 128,-1,4
 292 183 292 183 272 206 c 1,5,6
 253 181 253 181 231.5 154 c 128,-1,7
 210 127 210 127 190 99.5 c 128,-1,8
 170 72 170 72 152.5 46.5 c 128,-1,9
 135 21 135 21 123 0 c 1,10,-1
 31 0 l 1,11,12
 67 65 67 65 118.5 133.5 c 128,-1,13
 170 202 170 202 219 264 c 1,14,-1
 39 501 l 1,15,-1
 139 501 l 1,16,-1
 274 326 l 1,17,-1
 399 501 l 1,18,-1
 494 501 l 1,19,-1
 328 269 l 1,20,21
 377 205 377 205 426 136 c 128,-1,22
 475 67 475 67 510 0 c 1,23,-1
 410 0 l 1,0,1
EndSplineSet
Substitution2: "'case' +WSdlh1tXfUQwf3UoMGuKv2V0MFcwX1tXX2IA lookup 18 +MLUw1jDGMPww1jDr" X
EndChar

StartChar: y
Encoding: 121 121 92
Width: 500
Flags: W
LayerCount: 2
Fore
SplineSet
55 -94 m 1,0,1
 65 -99 65 -99 82.5 -102.5 c 128,-1,2
 100 -106 100 -106 116 -106 c 0,3,4
 169 -106 169 -106 198.5 -82.5 c 128,-1,5
 228 -59 228 -59 253 -6 c 1,6,7
 193 108 193 108 139.5 239 c 128,-1,8
 86 370 86 370 52 501 c 1,9,-1
 149 501 l 1,10,11
 160 458 160 458 174.5 407.5 c 128,-1,12
 189 357 189 357 207.5 304.5 c 128,-1,13
 226 252 226 252 247 198.5 c 128,-1,14
 268 145 268 145 292 96 c 1,15,16
 309 146 309 146 324 194.5 c 128,-1,17
 339 243 339 243 352 292 c 128,-1,18
 365 341 365 341 378 392.5 c 128,-1,19
 391 444 391 444 405 501 c 1,20,-1
 498 501 l 1,21,22
 463 361 463 361 420.5 229 c 128,-1,23
 378 97 378 97 329 -15 c 0,24,25
 311 -58 311 -58 290 -89.5 c 128,-1,26
 269 -121 269 -121 244 -141.5 c 128,-1,27
 219 -162 219 -162 188 -171.5 c 128,-1,28
 157 -181 157 -181 117 -181 c 0,29,30
 96 -181 96 -181 72 -176 c 128,-1,31
 48 -171 48 -171 39 -166 c 1,32,-1
 55 -94 l 1,0,1
EndSplineSet
Substitution2: "'case' +WSdlh1tXfUQwf3UoMGuKv2V0MFcwX1tXX2IA lookup 18 +MLUw1jDGMPww1jDr" Y
EndChar

StartChar: z
Encoding: 122 122 93
Width: 500
Flags: W
LayerCount: 2
Fore
SplineSet
454 434 m 1,0,1
 435 411 435 411 401 370.5 c 128,-1,2
 367 330 367 330 329 281 c 128,-1,3
 291 232 291 232 253 178 c 128,-1,4
 215 124 215 124 186 76 c 1,5,-1
 461 76 l 1,6,-1
 461 0 l 1,7,-1
 79 0 l 1,8,-1
 79 59 l 1,9,10
 102 102 102 102 136 153.5 c 128,-1,11
 170 205 170 205 206.5 255.5 c 128,-1,12
 243 306 243 306 278 351 c 128,-1,13
 313 396 313 396 339 427 c 1,14,-1
 93 427 l 1,15,-1
 93 501 l 1,16,-1
 454 501 l 1,17,-1
 454 434 l 1,0,1
EndSplineSet
Substitution2: "'case' +WSdlh1tXfUQwf3UoMGuKv2V0MFcwX1tXX2IA lookup 18 +MLUw1jDGMPww1jDr" Z
EndChar

StartChar: braceleft
Encoding: 123 123 94
Width: 500
Flags: W
LayerCount: 2
Fore
SplineSet
85 323 m 1,0,-1
 129 323 l 2,1,2
 147 323 147 323 161 331 c 128,-1,3
 175 339 175 339 184 352.5 c 128,-1,4
 193 366 193 366 198 383 c 128,-1,5
 203 400 203 400 203 417 c 2,6,-1
 203 591 l 2,7,8
 203 631 203 631 211 661 c 128,-1,9
 219 691 219 691 238.5 712 c 128,-1,10
 258 733 258 733 291 744 c 128,-1,11
 324 755 324 755 374 755 c 2,12,-1
 461 755 l 1,13,-1
 461 685 l 1,14,-1
 369 685 l 2,15,16
 324 685 324 685 305 664.5 c 128,-1,17
 286 644 286 644 286 590 c 2,18,-1
 286 441 l 2,19,20
 286 369 286 369 264.5 334.5 c 128,-1,21
 243 300 243 300 215 288 c 1,22,23
 243 275 243 275 264.5 239.5 c 128,-1,24
 286 204 286 204 286 136 c 2,25,-1
 286 -13 l 2,26,27
 286 -67 286 -67 305.5 -87.5 c 128,-1,28
 325 -108 325 -108 370 -108 c 2,29,-1
 461 -108 l 1,30,-1
 461 -178 l 1,31,-1
 374 -178 l 2,32,33
 324 -178 324 -178 291 -167.5 c 128,-1,34
 258 -157 258 -157 238.5 -135.5 c 128,-1,35
 219 -114 219 -114 211 -84 c 128,-1,36
 203 -54 203 -54 203 -14 c 2,37,-1
 203 160 l 2,38,39
 203 176 203 176 198 193 c 128,-1,40
 193 210 193 210 184 223.5 c 128,-1,41
 175 237 175 237 161.5 245.5 c 128,-1,42
 148 254 148 254 130 254 c 2,43,-1
 85 254 l 1,44,-1
 85 323 l 1,0,-1
EndSplineSet
Substitution2: "'case' +WSdlh1tXfUQwf3UoMGuKv2V0MFcwX1tXX2IA lookup 17 +MLUw1jDGMPww1jDr" Braceleft
EndChar

StartChar: bar
Encoding: 124 124 95
Width: 500
Flags: W
LayerCount: 2
Fore
SplineSet
229 755 m 1,0,-1
 312 755 l 1,1,-1
 312 -178 l 1,2,-1
 229 -178 l 1,3,-1
 229 755 l 1,0,-1
EndSplineSet
EndChar

StartChar: braceright
Encoding: 125 125 96
Width: 500
Flags: W
LayerCount: 2
Fore
SplineSet
455 254 m 1,0,-1
 411 254 l 2,1,2
 393 254 393 254 379.5 246 c 128,-1,3
 366 238 366 238 357 224.5 c 128,-1,4
 348 211 348 211 343 194 c 128,-1,5
 338 177 338 177 338 160 c 2,6,-1
 338 -14 l 2,7,8
 338 -54 338 -54 330 -84 c 128,-1,9
 322 -114 322 -114 302 -135.5 c 128,-1,10
 282 -157 282 -157 249 -167.5 c 128,-1,11
 216 -178 216 -178 166 -178 c 2,12,-1
 79 -178 l 1,13,-1
 79 -108 l 1,14,-1
 171 -108 l 2,15,16
 216 -108 216 -108 235 -87.5 c 128,-1,17
 254 -67 254 -67 254 -13 c 2,18,-1
 254 136 l 2,19,20
 254 208 254 208 275.5 242 c 128,-1,21
 297 276 297 276 325 288 c 1,22,23
 297 301 297 301 275.5 337 c 128,-1,24
 254 373 254 373 254 441 c 2,25,-1
 254 590 l 2,26,27
 254 644 254 644 234.5 664.5 c 128,-1,28
 215 685 215 685 170 685 c 2,29,-1
 79 685 l 1,30,-1
 79 755 l 1,31,-1
 166 755 l 2,32,33
 216 755 216 755 249 744 c 128,-1,34
 282 733 282 733 302 712 c 128,-1,35
 322 691 322 691 330 661 c 128,-1,36
 338 631 338 631 338 591 c 2,37,-1
 338 417 l 2,38,39
 338 401 338 401 342.5 384 c 128,-1,40
 347 367 347 367 356 353.5 c 128,-1,41
 365 340 365 340 378.5 331.5 c 128,-1,42
 392 323 392 323 410 323 c 2,43,-1
 455 323 l 1,44,-1
 455 254 l 1,0,-1
EndSplineSet
Substitution2: "'case' +WSdlh1tXfUQwf3UoMGuKv2V0MFcwX1tXX2IA lookup 17 +MLUw1jDGMPww1jDr" Braceright
EndChar

StartChar: asciitilde
Encoding: 126 126 97
Width: 500
Flags: W
LayerCount: 2
Fore
SplineSet
500 339 m 1,0,1
 497 321 497 321 489 297 c 128,-1,2
 481 273 481 273 465 252.5 c 128,-1,3
 449 232 449 232 425.5 218 c 128,-1,4
 402 204 402 204 368 204 c 0,5,6
 339 204 339 204 315 215.5 c 128,-1,7
 291 227 291 227 268 241 c 0,8,9
 242 256 242 256 218 271 c 128,-1,10
 194 286 194 286 166 286 c 0,11,12
 151 286 151 286 140.5 279 c 128,-1,13
 130 272 130 272 123 261.5 c 128,-1,14
 116 251 116 251 110.5 237.5 c 128,-1,15
 105 224 105 224 102 212 c 1,16,-1
 40 229 l 1,17,18
 43 247 43 247 51.5 271 c 128,-1,19
 60 295 60 295 75.5 315.5 c 128,-1,20
 91 336 91 336 114 350 c 128,-1,21
 137 364 137 364 172 364 c 0,22,23
 201 364 201 364 225 352.5 c 128,-1,24
 249 341 249 341 272 327 c 0,25,26
 298 312 298 312 322.5 297 c 128,-1,27
 347 282 347 282 374 282 c 0,28,29
 389 282 389 282 399.5 289 c 128,-1,30
 410 296 410 296 417 307 c 128,-1,31
 424 318 424 318 429.5 331.5 c 128,-1,32
 435 345 435 345 438 356 c 1,33,-1
 500 339 l 1,0,1
EndSplineSet
EndChar

StartChar: Euro
Encoding: 8364 8364 98
Width: 500
Flags: W
LayerCount: 2
Fore
SplineSet
114 455 m 1,0,1
 133 569 133 569 195.5 624.5 c 128,-1,2
 258 680 258 680 361 680 c 0,3,4
 404 680 404 680 431.5 675 c 128,-1,5
 459 670 459 670 485 660 c 1,6,-1
 468 584 l 1,7,8
 445 593 445 593 417.5 598.5 c 128,-1,9
 390 604 390 604 361 604 c 0,10,11
 288 604 288 604 253 563.5 c 128,-1,12
 218 523 218 523 207 455 c 1,13,-1
 422 455 l 1,14,-1
 409 386 l 1,15,-1
 198 386 l 1,16,17
 197 374 197 374 197 361.5 c 128,-1,18
 197 349 197 349 197 335 c 0,19,20
 197 323 197 323 197 311 c 128,-1,21
 197 299 197 299 198 288 c 1,22,-1
 391 288 l 1,23,-1
 378 219 l 1,24,-1
 205 219 l 1,25,26
 219 133 219 133 258.5 99.5 c 128,-1,27
 298 66 298 66 363 66 c 0,28,29
 404 66 404 66 433 73 c 128,-1,30
 462 80 462 80 485 92 c 1,31,-1
 504 15 l 1,32,33
 488 6 488 6 447.5 -3.5 c 128,-1,34
 407 -13 407 -13 357 -13 c 0,35,36
 245 -13 245 -13 186 48.5 c 128,-1,37
 127 110 127 110 112 219 c 1,38,-1
 39 219 l 1,39,-1
 39 288 l 1,40,-1
 105 288 l 1,41,42
 104 299 104 299 104 311 c 128,-1,43
 104 323 104 323 104 335 c 0,44,45
 104 349 104 349 104 361.5 c 128,-1,46
 104 374 104 374 105 386 c 1,47,-1
 39 386 l 1,48,-1
 39 455 l 1,49,-1
 114 455 l 1,0,1
EndSplineSet
EndChar

StartChar: quotesinglbase
Encoding: 8218 8218 99
Width: 500
Flags: W
LayerCount: 2
Fore
SplineSet
160 -85 m 1,0,1
 179 -81 179 -81 198 -76.5 c 128,-1,2
 217 -72 217 -72 233 -64 c 128,-1,3
 249 -56 249 -56 262 -43.5 c 128,-1,4
 275 -31 275 -31 283 -10 c 1,5,6
 248 -7 248 -7 232.5 16.5 c 128,-1,7
 217 40 217 40 217 63 c 0,8,9
 217 106 217 106 242 128 c 128,-1,10
 267 150 267 150 297 150 c 0,11,12
 337 150 337 150 357.5 121.5 c 128,-1,13
 378 93 378 93 378 52 c 0,14,15
 378 21 378 21 365.5 -13.5 c 128,-1,16
 353 -48 353 -48 327.5 -77.5 c 128,-1,17
 302 -107 302 -107 264.5 -128 c 128,-1,18
 227 -149 227 -149 176 -156 c 1,19,-1
 160 -85 l 1,0,1
EndSplineSet
EndChar

StartChar: florin
Encoding: 402 402 100
Width: 500
Flags: W
LayerCount: 2
Fore
SplineSet
68 427 m 1,0,-1
 68 501 l 1,1,-1
 174 501 l 1,2,-1
 174 546 l 2,3,4
 174 604 174 604 190 642.5 c 128,-1,5
 206 681 206 681 232.5 705 c 128,-1,6
 259 729 259 729 294 738.5 c 128,-1,7
 329 748 329 748 368 748 c 128,-1,8
 407 748 407 748 446.5 739.5 c 128,-1,9
 486 731 486 731 521 719 c 1,10,-1
 504 643 l 1,11,12
 480 655 480 655 444.5 663.5 c 128,-1,13
 409 672 409 672 373 672 c 0,14,15
 350 672 350 672 330 666 c 128,-1,16
 310 660 310 660 295 645.5 c 128,-1,17
 280 631 280 631 271 606.5 c 128,-1,18
 262 582 262 582 262 545 c 2,19,-1
 262 501 l 1,20,-1
 464 501 l 1,21,-1
 464 427 l 1,22,-1
 262 427 l 1,23,-1
 262 3 l 2,24,25
 262 -49 262 -49 247.5 -84.5 c 128,-1,26
 233 -120 233 -120 209 -142 c 128,-1,27
 185 -164 185 -164 152.5 -174 c 128,-1,28
 120 -184 120 -184 85 -184 c 0,29,30
 55 -184 55 -184 39 -180.5 c 128,-1,31
 23 -177 23 -177 8 -174 c 1,32,-1
 27 -97 l 1,33,34
 50 -106 50 -106 75 -106 c 0,35,36
 117 -106 117 -106 145.5 -82.5 c 128,-1,37
 174 -59 174 -59 174 4 c 2,38,-1
 174 427 l 1,39,-1
 68 427 l 1,0,-1
EndSplineSet
EndChar

StartChar: quotedblbase
Encoding: 8222 8222 101
Width: 500
Flags: W
LayerCount: 2
Fore
SplineSet
296 -80 m 1,0,1
 314 -76 314 -76 331.5 -72 c 128,-1,2
 349 -68 349 -68 364 -60.5 c 128,-1,3
 379 -53 379 -53 391 -41.5 c 128,-1,4
 403 -30 403 -30 409 -11 c 1,5,6
 378 -8 378 -8 362.5 13.5 c 128,-1,7
 347 35 347 35 347 59 c 0,8,9
 347 86 347 86 364 108.5 c 128,-1,10
 381 131 381 131 418 131 c 0,11,12
 449 131 449 131 472 110 c 128,-1,13
 495 89 495 89 495 41 c 0,14,15
 495 10 495 10 485.5 -20 c 128,-1,16
 476 -50 476 -50 455 -74.5 c 128,-1,17
 434 -99 434 -99 399 -117.5 c 128,-1,18
 364 -136 364 -136 311 -143 c 1,19,-1
 296 -80 l 1,0,1
45 -80 m 1,20,21
 82 -72 82 -72 113 -60.5 c 128,-1,22
 144 -49 144 -49 158 -11 c 1,23,24
 127 -8 127 -8 111 13.5 c 128,-1,25
 95 35 95 35 95 59 c 0,26,27
 95 86 95 86 113 108.5 c 128,-1,28
 131 131 131 131 166 131 c 0,29,30
 197 131 197 131 220.5 110 c 128,-1,31
 244 89 244 89 244 41 c 0,32,33
 244 10 244 10 235 -20 c 128,-1,34
 226 -50 226 -50 205 -74.5 c 128,-1,35
 184 -99 184 -99 148.5 -117.5 c 128,-1,36
 113 -136 113 -136 60 -143 c 1,37,-1
 45 -80 l 1,20,21
EndSplineSet
EndChar

StartChar: ellipsis
Encoding: 8230 8230 102
Width: 500
Flags: W
LayerCount: 2
Fore
SplineSet
507 45.5 m 128,-1,1
 507 22 507 22 491.5 4.5 c 128,-1,2
 476 -13 476 -13 450 -13 c 128,-1,3
 424 -13 424 -13 409 4.5 c 128,-1,4
 394 22 394 22 394 45.5 c 128,-1,5
 394 69 394 69 409 86.5 c 128,-1,6
 424 104 424 104 450 104 c 128,-1,7
 476 104 476 104 491.5 86.5 c 128,-1,0
 507 69 507 69 507 45.5 c 128,-1,1
327 45.5 m 128,-1,9
 327 22 327 22 312 4.5 c 128,-1,10
 297 -13 297 -13 271 -13 c 128,-1,11
 245 -13 245 -13 230 4.5 c 128,-1,12
 215 22 215 22 215 45.5 c 128,-1,13
 215 69 215 69 230 86.5 c 128,-1,14
 245 104 245 104 271 104 c 128,-1,15
 297 104 297 104 312 86.5 c 128,-1,8
 327 69 327 69 327 45.5 c 128,-1,9
148 45.5 m 128,-1,17
 148 22 148 22 132.5 4.5 c 128,-1,18
 117 -13 117 -13 91 -13 c 128,-1,19
 65 -13 65 -13 49 4.5 c 128,-1,20
 33 22 33 22 33 45.5 c 128,-1,21
 33 69 33 69 49 86.5 c 128,-1,22
 65 104 65 104 91 104 c 128,-1,23
 117 104 117 104 132.5 86.5 c 128,-1,16
 148 69 148 69 148 45.5 c 128,-1,17
EndSplineSet
EndChar

StartChar: dagger
Encoding: 8224 8224 103
Width: 500
Flags: W
LayerCount: 2
Fore
SplineSet
309 384 m 1,0,-1
 309 139 l 2,1,2
 309 58 309 58 305 -7.5 c 128,-1,3
 301 -73 301 -73 293 -139 c 1,4,-1
 248 -139 l 1,5,6
 239 -73 239 -73 235 -7.5 c 128,-1,7
 231 58 231 58 231 139 c 2,8,-1
 231 384 l 1,9,-1
 78 384 l 1,10,-1
 78 459 l 1,11,-1
 231 459 l 1,12,-1
 231 669 l 1,13,-1
 309 669 l 1,14,-1
 309 459 l 1,15,-1
 462 459 l 1,16,-1
 462 384 l 1,17,-1
 309 384 l 1,0,-1
EndSplineSet
EndChar

StartChar: daggerdbl
Encoding: 8225 8225 104
Width: 500
Flags: W
LayerCount: 2
Fore
SplineSet
309 130 m 1,0,1
 309 51 309 51 304.5 -12.5 c 128,-1,2
 300 -76 300 -76 293 -139 c 1,3,-1
 248 -139 l 1,4,5
 239 -75 239 -75 235 -12 c 128,-1,6
 231 51 231 51 231 130 c 1,7,-1
 78 130 l 1,8,-1
 78 203 l 1,9,-1
 231 203 l 1,10,-1
 231 384 l 1,11,-1
 78 384 l 1,12,-1
 78 459 l 1,13,-1
 231 459 l 1,14,-1
 231 669 l 1,15,-1
 309 669 l 1,16,-1
 309 459 l 1,17,-1
 462 459 l 1,18,-1
 462 384 l 1,19,-1
 309 384 l 1,20,-1
 309 203 l 1,21,-1
 462 203 l 1,22,-1
 462 130 l 1,23,-1
 309 130 l 1,0,1
EndSplineSet
EndChar

StartChar: circumflex
Encoding: 710 710 105
Width: 500
Flags: W
LayerCount: 2
Fore
SplineSet
270 742 m 1,0,-1
 401 604 l 1,1,-1
 364 562 l 1,2,-1
 270 646 l 1,3,-1
 176 562 l 1,4,-1
 139 604 l 1,5,-1
 270 742 l 1,0,-1
EndSplineSet
EndChar

StartChar: perthousand
Encoding: 8240 8240 106
Width: 500
Flags: W
LayerCount: 2
Fore
SplineSet
41 221 m 1,0,-1
 10 270 l 1,1,-1
 499 590 l 1,2,-1
 530 541 l 1,3,-1
 41 221 l 1,0,-1
351 134 m 0,4,5
 351 283 351 283 435 283 c 0,6,7
 521 283 521 283 522 134 c 0,8,9
 522 -14 522 -14 437 -14 c 0,10,11
 351 -14 351 -14 351 134 c 0,4,5
407 134 m 128,-1,13
 407 79 407 79 414.5 58.5 c 128,-1,14
 422 38 422 38 436 38 c 128,-1,15
 450 38 450 38 457.5 58.5 c 128,-1,16
 465 79 465 79 465 134 c 128,-1,17
 465 189 465 189 457.5 209.5 c 128,-1,18
 450 230 450 230 436 230 c 128,-1,19
 422 230 422 230 414.5 209.5 c 128,-1,12
 407 189 407 189 407 134 c 128,-1,13
138 134 m 0,20,21
 138 283 138 283 221 283 c 0,22,23
 308 283 308 283 309 134 c 0,24,25
 309 -14 309 -14 223.5 -14 c 128,-1,26
 138 -14 138 -14 138 134 c 0,20,21
193 134 m 128,-1,28
 193 79 193 79 200.5 58.5 c 128,-1,29
 208 38 208 38 222 38 c 0,30,31
 237 38 237 38 245 58.5 c 128,-1,32
 253 79 253 79 253 134 c 128,-1,33
 253 189 253 189 245.5 209.5 c 128,-1,34
 238 230 238 230 222 230 c 0,35,36
 208 230 208 230 200.5 209.5 c 128,-1,27
 193 189 193 189 193 134 c 128,-1,28
18 535 m 0,37,38
 18 683 18 683 103 683 c 0,39,40
 190 683 190 683 190 535 c 0,41,42
 190 386 190 386 104 386 c 128,-1,43
 18 386 18 386 18 535 c 0,37,38
76 535 m 128,-1,45
 76 480 76 480 83 458.5 c 128,-1,46
 90 437 90 437 104 437 c 128,-1,47
 118 437 118 437 125.5 458.5 c 128,-1,48
 133 480 133 480 133 535 c 128,-1,49
 133 590 133 590 125.5 610.5 c 128,-1,50
 118 631 118 631 104 631 c 128,-1,51
 90 631 90 631 83 610.5 c 128,-1,44
 76 590 76 590 76 535 c 128,-1,45
EndSplineSet
EndChar

StartChar: Scaron
Encoding: 352 352 107
Width: 500
Flags: W
LayerCount: 2
Fore
SplineSet
253 63 m 0,0,1
 321 63 321 63 356.5 88.5 c 128,-1,2
 392 114 392 114 392 166 c 0,3,4
 392 197 392 197 379 219.5 c 128,-1,5
 366 242 366 242 344.5 258.5 c 128,-1,6
 323 275 323 275 296 287.5 c 128,-1,7
 269 300 269 300 241 311 c 0,8,9
 209 324 209 324 179 340 c 128,-1,10
 149 356 149 356 126 378 c 128,-1,11
 103 400 103 400 89.5 429 c 128,-1,12
 76 458 76 458 76 498 c 0,13,14
 76 585 76 585 131 634.5 c 128,-1,15
 186 684 186 684 284 684 c 0,16,17
 311 684 311 684 337.5 680 c 128,-1,18
 364 676 364 676 386.5 670.5 c 128,-1,19
 409 665 409 665 427 657.5 c 128,-1,20
 445 650 445 650 456 643 c 1,21,-1
 428 568 l 1,22,23
 406 581 406 581 368 594 c 128,-1,24
 330 607 330 607 284 607 c 0,25,26
 235 607 235 607 199.5 582.5 c 128,-1,27
 164 558 164 558 164 510 c 0,28,29
 164 482 164 482 174.5 462.5 c 128,-1,30
 185 443 185 443 202.5 428.5 c 128,-1,31
 220 414 220 414 244 402 c 128,-1,32
 268 390 268 390 296 378 c 0,33,34
 337 361 337 361 371 343.5 c 128,-1,35
 405 326 405 326 429.5 302.5 c 128,-1,36
 454 279 454 279 467.5 246.5 c 128,-1,37
 481 214 481 214 481 167 c 0,38,39
 481 80 481 80 422 33 c 128,-1,40
 363 -14 363 -14 253 -14 c 0,41,42
 217 -14 217 -14 185.5 -9 c 128,-1,43
 154 -4 154 -4 130 3.5 c 128,-1,44
 106 11 106 11 87.5 18.5 c 128,-1,45
 69 26 69 26 59 32 c 1,46,-1
 86 106 l 1,47,48
 108 94 108 94 150.5 78.5 c 128,-1,49
 193 63 193 63 253 63 c 0,0,1
159 853 m 1,50,-1
 195 895 l 1,51,-1
 289 811 l 1,52,-1
 383 895 l 1,53,-1
 420 853 l 1,54,-1
 289 715 l 1,55,-1
 159 853 l 1,50,-1
EndSplineSet
EndChar

StartChar: guilsinglleft
Encoding: 8249 8249 108
Width: 500
Flags: W
LayerCount: 2
Fore
SplineSet
156 274 m 1,0,-1
 306 487 l 1,1,-1
 368 454 l 1,2,-1
 261 274 l 1,3,-1
 368 95 l 1,4,-1
 306 60 l 1,5,-1
 156 274 l 1,0,-1
EndSplineSet
Substitution2: "'case' +WSdlh1tXfUQwf3UoMGuKv2V0MFcwX1tXX2IA lookup 17 +MLUw1jDGMPww1jDr" Guilsinglleft
EndChar

StartChar: OE
Encoding: 338 338 109
Width: 500
Flags: W
LayerCount: 2
Fore
SplineSet
238 -6 m 0,0,1
 142 -6 142 -6 85.5 73 c 128,-1,2
 29 152 29 152 29 325 c 128,-1,3
 29 498 29 498 85 586.5 c 128,-1,4
 141 675 141 675 239 675 c 0,5,6
 251 675 251 675 267 673 c 128,-1,7
 283 671 283 671 298 669 c 1,8,-1
 507 669 l 1,9,-1
 507 593 l 1,10,-1
 368 593 l 1,11,-1
 368 388 l 1,12,-1
 482 388 l 1,13,-1
 482 312 l 1,14,-1
 368 312 l 1,15,-1
 368 76 l 1,16,-1
 521 76 l 1,17,-1
 521 0 l 1,18,-1
 298 0 l 1,19,20
 267 -6 267 -6 238 -6 c 0,0,1
238 598 m 0,21,22
 209 598 209 598 185.5 578.5 c 128,-1,23
 162 559 162 559 147 523.5 c 128,-1,24
 132 488 132 488 124 438 c 128,-1,25
 116 388 116 388 116 325 c 0,26,27
 116 200 116 200 146.5 135 c 128,-1,28
 177 70 177 70 238 70 c 0,29,30
 260 70 260 70 270.5 73.5 c 128,-1,31
 281 77 281 77 284 78 c 1,32,-1
 284 591 l 1,33,34
 270 596 270 596 259 597 c 128,-1,35
 248 598 248 598 238 598 c 0,21,22
EndSplineSet
EndChar

StartChar: quoteleft
Encoding: 8216 8216 110
Width: 500
Flags: W
LayerCount: 2
Fore
SplineSet
379 697 m 1,0,1
 360 693 360 693 341 688.5 c 128,-1,2
 322 684 322 684 305.5 675.5 c 128,-1,3
 289 667 289 667 276.5 654.5 c 128,-1,4
 264 642 264 642 256 621 c 1,5,6
 291 618 291 618 306.5 594.5 c 128,-1,7
 322 571 322 571 322 549 c 0,8,9
 322 506 322 506 297 483.5 c 128,-1,10
 272 461 272 461 242 461 c 0,11,12
 202 461 202 461 181.5 489.5 c 128,-1,13
 161 518 161 518 161 559 c 0,14,15
 161 590 161 590 173.5 624.5 c 128,-1,16
 186 659 186 659 210.5 688.5 c 128,-1,17
 235 718 235 718 273.5 739 c 128,-1,18
 312 760 312 760 363 767 c 1,19,-1
 379 697 l 1,0,1
EndSplineSet
EndChar

StartChar: quoteright
Encoding: 8217 8217 111
Width: 500
Flags: W
LayerCount: 2
Fore
SplineSet
160 528 m 1,0,1
 179 532 179 532 198 536.5 c 128,-1,2
 217 541 217 541 233 549 c 128,-1,3
 249 557 249 557 262 569.5 c 128,-1,4
 275 582 275 582 283 604 c 1,5,6
 248 607 248 607 232.5 630 c 128,-1,7
 217 653 217 653 217 676 c 0,8,9
 217 719 217 719 242 741.5 c 128,-1,10
 267 764 267 764 297 764 c 0,11,12
 337 764 337 764 357.5 735 c 128,-1,13
 378 706 378 706 378 665 c 0,14,15
 378 634 378 634 365.5 600 c 128,-1,16
 353 566 353 566 327.5 536.5 c 128,-1,17
 302 507 302 507 264.5 485.5 c 128,-1,18
 227 464 227 464 176 458 c 1,19,-1
 160 528 l 1,0,1
EndSplineSet
EndChar

StartChar: quotedblleft
Encoding: 8220 8220 112
Width: 500
Flags: W
LayerCount: 2
Fore
SplineSet
245 686 m 1,0,1
 227 682 227 682 209.5 678 c 128,-1,2
 192 674 192 674 177 666.5 c 128,-1,3
 162 659 162 659 150 647.5 c 128,-1,4
 138 636 138 636 132 617 c 1,5,6
 163 614 163 614 178.5 592.5 c 128,-1,7
 194 571 194 571 194 545 c 0,8,9
 194 518 194 518 177 496 c 128,-1,10
 160 474 160 474 123 474 c 0,11,12
 92 474 92 474 69 495.5 c 128,-1,13
 46 517 46 517 46 565 c 0,14,15
 46 595 46 595 55.5 625.5 c 128,-1,16
 65 656 65 656 86 680.5 c 128,-1,17
 107 705 107 705 142 723.5 c 128,-1,18
 177 742 177 742 230 748 c 1,19,-1
 245 686 l 1,0,1
495 686 m 1,20,21
 477 682 477 682 459.5 678 c 128,-1,22
 442 674 442 674 427.5 666.5 c 128,-1,23
 413 659 413 659 401 647.5 c 128,-1,24
 389 636 389 636 382 617 c 1,25,26
 413 614 413 614 429 592.5 c 128,-1,27
 445 571 445 571 445 545 c 0,28,29
 445 518 445 518 427 496 c 128,-1,30
 409 474 409 474 374 474 c 0,31,32
 343 474 343 474 319.5 495.5 c 128,-1,33
 296 517 296 517 296 565 c 0,34,35
 296 595 296 595 305 625.5 c 128,-1,36
 314 656 314 656 335 680.5 c 128,-1,37
 356 705 356 705 391.5 723.5 c 128,-1,38
 427 742 427 742 480 748 c 1,39,-1
 495 686 l 1,20,21
EndSplineSet
EndChar

StartChar: quotedblright
Encoding: 8221 8221 113
Width: 500
Flags: W
LayerCount: 2
Fore
SplineSet
295 537 m 1,0,1
 313 541 313 541 330.5 545 c 128,-1,2
 348 549 348 549 363 556.5 c 128,-1,3
 378 564 378 564 390 576 c 128,-1,4
 402 588 402 588 408 607 c 1,5,6
 377 609 377 609 361.5 630.5 c 128,-1,7
 346 652 346 652 346 677 c 0,8,9
 346 704 346 704 363 726 c 128,-1,10
 380 748 380 748 417 748 c 0,11,12
 448 748 448 748 471 726.5 c 128,-1,13
 494 705 494 705 494 658 c 0,14,15
 494 627 494 627 484.5 597 c 128,-1,16
 475 567 475 567 454 542 c 128,-1,17
 433 517 433 517 398 499 c 128,-1,18
 363 481 363 481 311 474 c 1,19,-1
 295 537 l 1,0,1
45 537 m 1,20,21
 63 541 63 541 80.5 545 c 128,-1,22
 98 549 98 549 112.5 556.5 c 128,-1,23
 127 564 127 564 139 576 c 128,-1,24
 151 588 151 588 158 607 c 1,25,26
 127 609 127 609 111 630.5 c 128,-1,27
 95 652 95 652 95 677 c 0,28,29
 95 704 95 704 113 726 c 128,-1,30
 131 748 131 748 166 748 c 0,31,32
 197 748 197 748 220.5 726.5 c 128,-1,33
 244 705 244 705 244 658 c 0,34,35
 244 627 244 627 235 597 c 128,-1,36
 226 567 226 567 205 542 c 128,-1,37
 184 517 184 517 148.5 499 c 128,-1,38
 113 481 113 481 60 474 c 1,39,-1
 45 537 l 1,20,21
EndSplineSet
EndChar

StartChar: bullet
Encoding: 8226 8226 114
Width: 500
Flags: W
LayerCount: 2
Fore
SplineSet
417 341 m 0,0,1
 417 310 417 310 406.5 282 c 128,-1,2
 396 254 396 254 377.5 233 c 128,-1,3
 359 212 359 212 331 199.5 c 128,-1,4
 303 187 303 187 270 187 c 0,5,6
 235 187 235 187 208 199.5 c 128,-1,7
 181 212 181 212 162.5 233 c 128,-1,8
 144 254 144 254 133.5 282 c 128,-1,9
 123 310 123 310 123 341 c 0,10,11
 123 371 123 371 133.5 399.5 c 128,-1,12
 144 428 144 428 162.5 449.5 c 128,-1,13
 181 471 181 471 208 483.5 c 128,-1,14
 235 496 235 496 270 496 c 0,15,16
 303 496 303 496 331 483.5 c 128,-1,17
 359 471 359 471 377.5 449.5 c 128,-1,18
 396 428 396 428 406.5 399.5 c 128,-1,19
 417 371 417 371 417 341 c 0,0,1
EndSplineSet
Substitution2: "'case' +WSdlh1tXfUQwf3UoMGuKv2V0MFcwX1tXX2IA lookup 17 +MLUw1jDGMPww1jDr" Bullet
EndChar

StartChar: endash
Encoding: 8211 8211 115
Width: 500
Flags: W
LayerCount: 2
Fore
SplineSet
75 330 m 1,0,-1
 465 330 l 1,1,-1
 465 255 l 1,2,-1
 75 255 l 1,3,-1
 75 330 l 1,0,-1
EndSplineSet
Substitution2: "'case' +WSdlh1tXfUQwf3UoMGuKv2V0MFcwX1tXX2IA lookup 17 +MLUw1jDGMPww1jDr" Endash
EndChar

StartChar: emdash
Encoding: 8212 8212 116
Width: 500
Flags: W
LayerCount: 2
Fore
SplineSet
0 330 m 1,0,-1
 540 330 l 1,1,-1
 540 255 l 1,2,-1
 0 255 l 1,3,-1
 0 330 l 1,0,-1
EndSplineSet
Substitution2: "'case' +WSdlh1tXfUQwf3UoMGuKv2V0MFcwX1tXX2IA lookup 17 +MLUw1jDGMPww1jDr" Emdash
EndChar

StartChar: tilde
Encoding: 732 732 117
Width: 500
Flags: W
LayerCount: 2
Fore
SplineSet
419 686 m 1,0,1
 416 674 416 674 408 659 c 128,-1,2
 400 644 400 644 388 631 c 128,-1,3
 376 618 376 618 359.5 608.5 c 128,-1,4
 343 599 343 599 323 599 c 0,5,6
 309 599 309 599 290 607 c 128,-1,7
 271 615 271 615 259 620 c 1,8,9
 231 635 231 635 214 635 c 0,10,11
 200 635 200 635 187 621 c 128,-1,12
 174 607 174 607 167 592 c 1,13,-1
 121 617 l 1,14,15
 124 629 124 629 132 644 c 128,-1,16
 140 659 140 659 152 672 c 128,-1,17
 164 685 164 685 180.5 694 c 128,-1,18
 197 703 197 703 216 703 c 0,19,20
 230 703 230 703 249 695 c 128,-1,21
 268 687 268 687 280 681 c 0,22,23
 308 666 308 666 325 666 c 0,24,25
 339 666 339 666 352.5 680 c 128,-1,26
 366 694 366 694 373 710 c 1,27,-1
 419 686 l 1,0,1
EndSplineSet
EndChar

StartChar: trademark
Encoding: 8482 8482 118
Width: 500
Flags: W
LayerCount: 2
Fore
SplineSet
352 460 m 1,0,-1
 310 585 l 1,1,2
 308 563 308 563 307 531 c 128,-1,3
 306 499 306 499 305.5 468 c 128,-1,4
 305 437 305 437 304 413.5 c 128,-1,5
 303 390 303 390 303 386 c 1,6,-1
 241 386 l 1,7,8
 244 440 244 440 247.5 479.5 c 128,-1,9
 251 519 251 519 254.5 551.5 c 128,-1,10
 258 584 258 584 262 611.5 c 128,-1,11
 266 639 266 639 271 669 c 1,12,-1
 329 669 l 1,13,-1
 377 522 l 1,14,-1
 428 669 l 1,15,-1
 486 669 l 1,16,17
 491 640 491 640 495 611.5 c 128,-1,18
 499 583 499 583 502 550.5 c 128,-1,19
 505 518 505 518 508 478 c 128,-1,20
 511 438 511 438 514 386 c 1,21,-1
 451 386 l 1,22,23
 451 390 451 390 450.5 413.5 c 128,-1,24
 450 437 450 437 449.5 468 c 128,-1,25
 449 499 449 499 448 531.5 c 128,-1,26
 447 564 447 564 446 585 c 1,27,-1
 401 460 l 1,28,-1
 352 460 l 1,0,-1
220 669 m 1,29,-1
 220 615 l 1,30,-1
 151 615 l 1,31,-1
 151 386 l 1,32,-1
 89 386 l 1,33,-1
 89 615 l 1,34,-1
 19 615 l 1,35,-1
 19 669 l 1,36,-1
 220 669 l 1,29,-1
EndSplineSet
EndChar

StartChar: scaron
Encoding: 353 353 119
Width: 500
Flags: W
LayerCount: 2
Fore
SplineSet
379 125 m 0,0,1
 379 152 379 152 357 169.5 c 128,-1,2
 335 187 335 187 302 200 c 128,-1,3
 269 213 269 213 230 225.5 c 128,-1,4
 191 238 191 238 158 256 c 128,-1,5
 125 274 125 274 103 301 c 128,-1,6
 81 328 81 328 81 372 c 0,7,8
 81 432 81 432 130 472.5 c 128,-1,9
 179 513 179 513 284 513 c 0,10,11
 325 513 325 513 369 507 c 128,-1,12
 413 501 413 501 444 491 c 1,13,-1
 428 411 l 1,14,15
 419 415 419 415 404 420.5 c 128,-1,16
 389 426 389 426 369.5 429.5 c 128,-1,17
 350 433 350 433 328 435 c 128,-1,18
 306 437 306 437 285 437 c 0,19,20
 168 437 168 437 168 374 c 0,21,22
 168 351 168 351 190.5 335.5 c 128,-1,23
 213 320 213 320 246.5 307 c 128,-1,24
 280 294 280 294 318.5 280.5 c 128,-1,25
 357 267 357 267 390.5 247.5 c 128,-1,26
 424 228 424 228 446.5 200.5 c 128,-1,27
 469 173 469 173 469 131 c 0,28,29
 469 63 469 63 416 25.5 c 128,-1,30
 363 -12 363 -12 248 -12 c 0,31,32
 196 -12 196 -12 153 -3.5 c 128,-1,33
 110 5 110 5 71 23 c 1,34,-1
 89 104 l 1,35,36
 127 87 127 87 168.5 75.5 c 128,-1,37
 210 64 210 64 257 64 c 0,38,39
 379 63 379 63 379 125 c 0,0,1
150 703 m 1,40,-1
 187 745 l 1,41,-1
 281 661 l 1,42,-1
 375 745 l 1,43,-1
 411 703 l 1,44,-1
 281 565 l 1,45,-1
 150 703 l 1,40,-1
EndSplineSet
Substitution2: "'case' +WSdlh1tXfUQwf3UoMGuKv2V0MFcwX1tXX2IA lookup 18 +MLUw1jDGMPww1jDr" Scaron
EndChar

StartChar: guilsinglright
Encoding: 8250 8250 120
Width: 500
Flags: W
LayerCount: 2
Fore
SplineSet
234 60 m 1,0,-1
 172 95 l 1,1,-1
 279 274 l 1,2,-1
 172 454 l 1,3,-1
 234 487 l 1,4,-1
 384 274 l 1,5,-1
 234 60 l 1,0,-1
EndSplineSet
Substitution2: "'case' +WSdlh1tXfUQwf3UoMGuKv2V0MFcwX1tXX2IA lookup 17 +MLUw1jDGMPww1jDr" Guilsinglright
EndChar

StartChar: oe
Encoding: 339 339 121
Width: 500
Flags: W
LayerCount: 2
Fore
SplineSet
435 299 m 1,0,1
 435 363 435 363 421 400 c 128,-1,2
 407 437 407 437 386 437 c 0,3,4
 359 437 359 437 343 399 c 128,-1,5
 327 361 327 361 327 299 c 1,6,-1
 435 299 l 1,0,1
183 67 m 0,7,8
 199 67 199 67 209.5 82 c 128,-1,9
 220 97 220 97 227 122.5 c 128,-1,10
 234 148 234 148 237 180.5 c 128,-1,11
 240 213 240 213 240 247.5 c 128,-1,12
 240 282 240 282 236.5 316 c 128,-1,13
 233 350 233 350 225.5 376.5 c 128,-1,14
 218 403 218 403 205.5 419.5 c 128,-1,15
 193 436 193 436 176 436 c 0,16,17
 160 436 160 436 148 420.5 c 128,-1,18
 136 405 136 405 129 380 c 128,-1,19
 122 355 122 355 119 322 c 128,-1,20
 116 289 116 289 116 256 c 0,21,22
 116 220 116 220 119.5 186.5 c 128,-1,23
 123 153 123 153 131 126 c 128,-1,24
 139 99 139 99 152 83 c 128,-1,25
 165 67 165 67 183 67 c 0,7,8
502 16 m 1,26,27
 480 1 480 1 455.5 -5.5 c 128,-1,28
 431 -12 431 -12 407 -12 c 0,29,30
 369 -12 369 -12 337 9 c 128,-1,31
 305 30 305 30 283 85 c 1,32,33
 265 35 265 35 240 11.5 c 128,-1,34
 215 -12 215 -12 170 -12 c 0,35,36
 134 -12 134 -12 108.5 10.5 c 128,-1,37
 83 33 83 33 66.5 70.5 c 128,-1,38
 50 108 50 108 41.5 155.5 c 128,-1,39
 33 203 33 203 33 253 c 0,40,41
 33 302 33 302 41.5 348.5 c 128,-1,42
 50 395 50 395 66 432 c 128,-1,43
 82 469 82 469 108 491 c 128,-1,44
 134 513 134 513 170 513 c 0,45,46
 210 513 210 513 239 490.5 c 128,-1,47
 268 468 268 468 283 416 c 1,48,49
 302 467 302 467 328 490 c 128,-1,50
 354 513 354 513 386 513 c 0,51,52
 517 513 517 513 516 258 c 0,53,54
 516 252 516 252 516 244.5 c 128,-1,55
 516 237 516 237 515 227 c 1,56,-1
 325 227 l 1,57,58
 325 197 325 197 331 168 c 128,-1,59
 337 139 337 139 348.5 117 c 128,-1,60
 360 95 360 95 377.5 81.5 c 128,-1,61
 395 68 395 68 419 68 c 0,62,63
 433 68 433 68 449 72.5 c 128,-1,64
 465 77 465 77 490 92 c 1,65,-1
 502 16 l 1,26,27
EndSplineSet
Substitution2: "'case' +WSdlh1tXfUQwf3UoMGuKv2V0MFcwX1tXX2IA lookup 18 +MLUw1jDGMPww1jDr" OE
EndChar

StartChar: Ydieresis
Encoding: 376 376 122
Width: 500
Flags: W
LayerCount: 2
Fore
SplineSet
227 0 m 1,0,-1
 227 248 l 1,1,2
 161 356 161 356 107.5 459 c 128,-1,3
 54 562 54 562 14 669 c 1,4,-1
 113 669 l 1,5,6
 144 578 144 578 185 495.5 c 128,-1,7
 226 413 226 413 272 325 c 1,8,9
 322 417 322 417 360.5 499.5 c 128,-1,10
 399 582 399 582 430 669 c 1,11,-1
 527 669 l 1,12,13
 486 563 486 563 433 462.5 c 128,-1,14
 380 362 380 362 315 251 c 1,15,-1
 315 0 l 1,16,-1
 227 0 l 1,0,-1
364 744 m 128,-1,18
 341 744 341 744 324.5 760.5 c 128,-1,19
 308 777 308 777 308 801.5 c 128,-1,20
 308 826 308 826 324.5 842 c 128,-1,21
 341 858 341 858 364 858 c 128,-1,22
 387 858 387 858 403.5 842 c 128,-1,23
 420 826 420 826 420 801.5 c 128,-1,24
 420 777 420 777 403.5 760.5 c 128,-1,17
 387 744 387 744 364 744 c 128,-1,18
180 744 m 0,25,26
 158 744 158 744 141 760.5 c 128,-1,27
 124 777 124 777 124 801.5 c 128,-1,28
 124 826 124 826 141.5 842 c 128,-1,29
 159 858 159 858 180 858 c 0,30,31
 203 858 203 858 220 842 c 128,-1,32
 237 826 237 826 237 801.5 c 128,-1,33
 237 777 237 777 220 760.5 c 128,-1,34
 203 744 203 744 180 744 c 0,25,26
EndSplineSet
EndChar

StartChar: exclamdown
Encoding: 161 161 124
Width: 500
Flags: W
LayerCount: 2
Fore
SplineSet
269 502 m 0,0,1
 299 502 299 502 320 482 c 128,-1,2
 341 462 341 462 341 428.5 c 128,-1,3
 341 395 341 395 320 375.5 c 128,-1,4
 299 356 299 356 269 356 c 0,5,6
 240 356 240 356 218.5 375.5 c 128,-1,7
 197 395 197 395 197 428.5 c 128,-1,8
 197 462 197 462 218.5 482 c 128,-1,9
 240 502 240 502 269 502 c 0,0,1
220 3 m 2,10,11
 220 43 220 43 222 76.5 c 128,-1,12
 224 110 224 110 226 140.5 c 128,-1,13
 228 171 228 171 231.5 200.5 c 128,-1,14
 235 230 235 230 239 262 c 1,15,-1
 300 262 l 1,16,17
 303 230 303 230 306.5 200.5 c 128,-1,18
 310 171 310 171 312.5 140.5 c 128,-1,19
 315 110 315 110 316.5 76.5 c 128,-1,20
 318 43 318 43 318 3 c 2,21,-1
 318 -178 l 1,22,-1
 220 -178 l 1,23,-1
 220 3 l 2,10,11
EndSplineSet
Substitution2: "'case' +WSdlh1tXfUQwf3UoMGuKv2V0MFcwX1tXX2IA lookup 17 +MLUw1jDGMPww1jDr" Exclamdown
EndChar

StartChar: cent
Encoding: 162 162 125
Width: 500
Flags: W
LayerCount: 2
Fore
SplineSet
53 281 m 0,0,1
 53 338 53 338 69 382 c 128,-1,2
 85 426 85 426 114.5 457 c 128,-1,3
 144 488 144 488 184.5 506.5 c 128,-1,4
 225 525 225 525 272 531 c 1,5,-1
 272 669 l 1,6,-1
 352 669 l 1,7,-1
 352 535 l 1,8,9
 381 533 381 533 410.5 528 c 128,-1,10
 440 523 440 523 473 512 c 1,11,-1
 454 437 l 1,12,13
 418 450 418 450 389 454 c 128,-1,14
 360 458 360 458 329 458 c 0,15,16
 290 458 290 458 256 447.5 c 128,-1,17
 222 437 222 437 197.5 416 c 128,-1,18
 173 395 173 395 159 361 c 128,-1,19
 145 327 145 327 145 281 c 0,20,21
 145 191 145 191 198.5 148.5 c 128,-1,22
 252 106 252 106 338 106 c 0,23,24
 373 106 373 106 404 110 c 128,-1,25
 435 114 435 114 473 127 c 1,26,-1
 486 54 l 1,27,28
 454 42 454 42 421.5 36.5 c 128,-1,29
 389 31 389 31 352 29 c 1,30,-1
 352 -105 l 1,31,-1
 272 -105 l 1,32,-1
 272 31 l 1,33,34
 173 45 173 45 113 108 c 128,-1,35
 53 171 53 171 53 281 c 0,0,1
EndSplineSet
EndChar

StartChar: sterling
Encoding: 163 163 126
Width: 500
Flags: W
LayerCount: 2
Fore
SplineSet
227 360 m 1,0,-1
 410 360 l 1,1,-1
 410 287 l 1,2,-1
 227 287 l 1,3,-1
 227 280 l 2,4,5
 227 231 227 231 223 178 c 128,-1,6
 219 125 219 125 212 77 c 1,7,-1
 491 77 l 1,8,-1
 491 0 l 1,9,-1
 111 0 l 1,10,11
 122 69 122 69 130 136.5 c 128,-1,12
 138 204 138 204 138 273 c 2,13,-1
 138 287 l 1,14,-1
 49 287 l 1,15,-1
 49 360 l 1,16,-1
 138 360 l 1,17,-1
 138 440 l 2,18,19
 138 511 138 511 153 558 c 128,-1,20
 168 605 168 605 195 632 c 128,-1,21
 222 659 222 659 260.5 669.5 c 128,-1,22
 299 680 299 680 347 680 c 0,23,24
 389 680 389 680 417.5 673 c 128,-1,25
 446 666 446 666 473 654 c 1,26,-1
 451 578 l 1,27,28
 402 602 402 602 342 602 c 0,29,30
 316 602 316 602 295 594 c 128,-1,31
 274 586 274 586 258.5 568 c 128,-1,32
 243 550 243 550 235 519 c 128,-1,33
 227 488 227 488 227 442 c 2,34,-1
 227 360 l 1,0,-1
EndSplineSet
EndChar

StartChar: currency
Encoding: 164 164 127
Width: 500
Flags: W
LayerCount: 2
Fore
SplineSet
383 335 m 128,-1,1
 383 390 383 390 349.5 422.5 c 128,-1,2
 316 455 316 455 270 455 c 128,-1,3
 224 455 224 455 190.5 422.5 c 128,-1,4
 157 390 157 390 157 335 c 128,-1,5
 157 280 157 280 190.5 247.5 c 128,-1,6
 224 215 224 215 270 215 c 128,-1,7
 316 215 316 215 349.5 247.5 c 128,-1,0
 383 280 383 280 383 335 c 128,-1,1
84 335 m 0,8,9
 84 394 84 394 111 437 c 1,10,-1
 41 509 l 1,11,-1
 96 564 l 1,12,-1
 167 491 l 1,13,14
 213 519 213 519 270 519 c 0,15,16
 325 519 325 519 372 491 c 1,17,-1
 444 564 l 1,18,-1
 500 509 l 1,19,-1
 428 437 l 1,20,21
 456 394 456 394 456 335 c 0,22,23
 456 304 456 304 449 279 c 128,-1,24
 442 254 442 254 428 232 c 1,25,-1
 500 161 l 1,26,-1
 444 105 l 1,27,-1
 372 176 l 1,28,29
 326 149 326 149 270 149 c 0,30,31
 212 149 212 149 167 176 c 1,32,-1
 96 105 l 1,33,-1
 41 161 l 1,34,-1
 111 231 l 1,35,36
 84 275 84 275 84 335 c 0,8,9
EndSplineSet
EndChar

StartChar: yen
Encoding: 165 165 128
Width: 500
Flags: W
LayerCount: 2
Fore
SplineSet
227 0 m 1,0,-1
 227 103 l 1,1,-1
 70 103 l 1,2,-1
 70 171 l 1,3,-1
 227 171 l 1,4,-1
 227 269 l 1,5,-1
 70 269 l 1,6,-1
 70 338 l 1,7,-1
 202 338 l 1,8,9
 149 422 149 422 102 506 c 128,-1,10
 55 590 55 590 14 669 c 1,11,-1
 112 669 l 1,12,13
 147 593 147 593 188 518 c 128,-1,14
 229 443 229 443 273 374 c 1,15,16
 315 443 315 443 354.5 518 c 128,-1,17
 394 593 394 593 429 669 c 1,18,-1
 527 669 l 1,19,20
 484 588 484 588 437.5 505 c 128,-1,21
 391 422 391 422 338 338 c 1,22,-1
 471 338 l 1,23,-1
 471 269 l 1,24,-1
 315 269 l 1,25,-1
 315 171 l 1,26,-1
 471 171 l 1,27,-1
 471 103 l 1,28,-1
 315 103 l 1,29,-1
 315 0 l 1,30,-1
 227 0 l 1,0,-1
EndSplineSet
EndChar

StartChar: brokenbar
Encoding: 166 166 129
Width: 500
Flags: W
LayerCount: 2
Fore
SplineSet
229 755 m 1,0,-1
 312 755 l 1,1,-1
 312 386 l 1,2,-1
 229 386 l 1,3,-1
 229 755 l 1,0,-1
229 191 m 1,4,-1
 312 191 l 1,5,-1
 312 -178 l 1,6,-1
 229 -178 l 1,7,-1
 229 191 l 1,4,-1
EndSplineSet
EndChar

StartChar: section
Encoding: 167 167 130
Width: 500
Flags: W
LayerCount: 2
Fore
SplineSet
218 403 m 1,0,1
 190 385 190 385 173 360.5 c 128,-1,2
 156 336 156 336 156 307 c 0,3,4
 156 282 156 282 167 264.5 c 128,-1,5
 178 247 178 247 197.5 234 c 128,-1,6
 217 221 217 221 244 211.5 c 128,-1,7
 271 202 271 202 302 191 c 1,8,-1
 321 185 l 1,9,10
 349 203 349 203 366 227 c 128,-1,11
 383 251 383 251 383 281 c 0,12,13
 383 306 383 306 372 322.5 c 128,-1,14
 361 339 361 339 342 351 c 128,-1,15
 323 363 323 363 297.5 372.5 c 128,-1,16
 272 382 272 382 244 393 c 2,17,-1
 218 403 l 1,0,1
97 -1 m 1,18,19
 126 -13 126 -13 160.5 -22 c 128,-1,20
 195 -31 195 -31 249 -31 c 0,21,22
 358 -31 358 -31 359 36 c 0,23,24
 359 71 359 71 333 89.5 c 128,-1,25
 307 108 307 108 245 129 c 0,26,27
 209 141 209 141 178.5 154 c 128,-1,28
 148 167 148 167 124 186 c 128,-1,29
 100 205 100 205 86.5 232 c 128,-1,30
 73 259 73 259 73 298 c 0,31,32
 73 323 73 323 81.5 344.5 c 128,-1,33
 90 366 90 366 102 384 c 128,-1,34
 114 402 114 402 129.5 415.5 c 128,-1,35
 145 429 145 429 159 437 c 1,36,37
 135 456 135 456 121 481.5 c 128,-1,38
 107 507 107 507 107 539 c 0,39,40
 107 606 107 606 154 645 c 128,-1,41
 201 684 201 684 285 684 c 0,42,43
 335 684 335 684 377 674.5 c 128,-1,44
 419 665 419 665 445 657 c 1,45,-1
 424 582 l 1,46,47
 400 591 400 591 367.5 600.5 c 128,-1,48
 335 610 335 610 284 610 c 0,49,50
 246 610 246 610 219 594.5 c 128,-1,51
 192 579 192 579 192 546 c 128,-1,52
 192 513 192 513 216 494.5 c 128,-1,53
 240 476 240 476 294 459 c 0,54,55
 330 447 330 447 360.5 433.5 c 128,-1,56
 391 420 391 420 414.5 400.5 c 128,-1,57
 438 381 438 381 451.5 354.5 c 128,-1,58
 465 328 465 328 465 289 c 0,59,60
 465 265 465 265 457.5 244.5 c 128,-1,61
 450 224 450 224 438.5 206 c 128,-1,62
 427 188 427 188 412 174 c 128,-1,63
 397 160 397 160 383 151 c 1,64,65
 411 130 411 130 428.5 103.5 c 128,-1,66
 446 77 446 77 446 41 c 0,67,68
 446 -31 446 -31 394.5 -68 c 128,-1,69
 343 -105 343 -105 248 -105 c 0,70,71
 183 -105 183 -105 141.5 -94.5 c 128,-1,72
 100 -84 100 -84 76 -72 c 1,73,-1
 97 -1 l 1,18,19
EndSplineSet
EndChar

StartChar: dieresis
Encoding: 168 168 131
Width: 500
Flags: W
LayerCount: 2
Fore
SplineSet
361.5 594 m 128,-1,1
 339 594 339 594 322.5 610 c 128,-1,2
 306 626 306 626 306 651 c 128,-1,3
 306 676 306 676 322.5 691.5 c 128,-1,4
 339 707 339 707 361.5 707 c 128,-1,5
 384 707 384 707 401 691.5 c 128,-1,6
 418 676 418 676 418 651 c 128,-1,7
 418 626 418 626 401 610 c 128,-1,0
 384 594 384 594 361.5 594 c 128,-1,1
178 594 m 0,8,9
 156 594 156 594 139 610 c 128,-1,10
 122 626 122 626 122 651 c 128,-1,11
 122 676 122 676 139.5 691.5 c 128,-1,12
 157 707 157 707 178 707 c 0,13,14
 201 707 201 707 217.5 691.5 c 128,-1,15
 234 676 234 676 234 651 c 128,-1,16
 234 626 234 626 217.5 610 c 128,-1,17
 201 594 201 594 178 594 c 0,8,9
EndSplineSet
EndChar

StartChar: copyright
Encoding: 169 169 132
Width: 500
Flags: W
LayerCount: 2
Fore
SplineSet
37 249 m 0,0,1
 37 315 37 315 57.5 365 c 128,-1,2
 78 415 78 415 111 448 c 128,-1,3
 144 481 144 481 186 497 c 128,-1,4
 228 513 228 513 271 513 c 128,-1,5
 314 513 314 513 356.5 497 c 128,-1,6
 399 481 399 481 431 448 c 128,-1,7
 463 415 463 415 483 365.5 c 128,-1,8
 503 316 503 316 503 252 c 0,9,10
 503 186 503 186 482.5 136.5 c 128,-1,11
 462 87 462 87 429 54.5 c 128,-1,12
 396 22 396 22 354 5 c 128,-1,13
 312 -12 312 -12 269 -12 c 0,14,15
 225 -12 225 -12 183 5 c 128,-1,16
 141 22 141 22 109 54 c 128,-1,17
 77 86 77 86 57 135 c 128,-1,18
 37 184 37 184 37 249 c 0,0,1
353 130 m 1,19,20
 335 121 335 121 315 116.5 c 128,-1,21
 295 112 295 112 276 112 c 0,22,23
 245 112 245 112 222 123.5 c 128,-1,24
 199 135 199 135 183.5 154 c 128,-1,25
 168 173 168 173 160.5 197 c 128,-1,26
 153 221 153 221 153 247 c 128,-1,27
 153 273 153 273 160.5 298 c 128,-1,28
 168 323 168 323 183.5 342.5 c 128,-1,29
 199 362 199 362 222 374 c 128,-1,30
 245 386 245 386 278 386 c 0,31,32
 295 386 295 386 314 383 c 128,-1,33
 333 380 333 380 351 372 c 1,34,-1
 329 313 l 1,35,36
 317 318 317 318 305.5 320 c 128,-1,37
 294 322 294 322 284 322 c 0,38,39
 249 322 249 322 234.5 300.5 c 128,-1,40
 220 279 220 279 220 252 c 0,41,42
 220 217 220 217 238 197 c 128,-1,43
 256 177 256 177 288 177 c 0,44,45
 298 177 298 177 310.5 179 c 128,-1,46
 323 181 323 181 335 187 c 1,47,-1
 353 130 l 1,19,20
441 249 m 0,48,49
 441 301 441 301 426 339.5 c 128,-1,50
 411 378 411 378 387 403.5 c 128,-1,51
 363 429 363 429 332.5 442 c 128,-1,52
 302 455 302 455 270 455 c 128,-1,53
 238 455 238 455 207.5 442 c 128,-1,54
 177 429 177 429 153 403.5 c 128,-1,55
 129 378 129 378 114 339.5 c 128,-1,56
 99 301 99 301 99 252 c 0,57,58
 99 200 99 200 114 161.5 c 128,-1,59
 129 123 129 123 153 97.5 c 128,-1,60
 177 72 177 72 207.5 59 c 128,-1,61
 238 46 238 46 270 46 c 128,-1,62
 302 46 302 46 333 59 c 128,-1,63
 364 72 364 72 387.5 97.5 c 128,-1,64
 411 123 411 123 426 160.5 c 128,-1,65
 441 198 441 198 441 249 c 0,48,49
EndSplineSet
EndChar

StartChar: ordfeminine
Encoding: 170 170 133
Width: 500
Flags: W
LayerCount: 2
Fore
SplineSet
273 680 m 0,0,1
 352 680 352 680 383.5 643.5 c 128,-1,2
 415 607 415 607 415 546 c 2,3,-1
 415 330 l 1,4,5
 391 325 391 325 352 321.5 c 128,-1,6
 313 318 313 318 273 318 c 0,7,8
 209 318 209 318 168 343.5 c 128,-1,9
 127 369 127 369 127 430 c 0,10,11
 127 460 127 460 139.5 481 c 128,-1,12
 152 502 152 502 173.5 515 c 128,-1,13
 195 528 195 528 223 534 c 128,-1,14
 251 540 251 540 282 540 c 0,15,16
 296 540 296 540 311.5 539 c 128,-1,17
 327 538 327 538 348 536 c 1,18,-1
 348 538 l 2,19,20
 348 552 348 552 345 566.5 c 128,-1,21
 342 581 342 581 333.5 592.5 c 128,-1,22
 325 604 325 604 309.5 611 c 128,-1,23
 294 618 294 618 269 618 c 0,24,25
 246 618 246 618 220 615 c 128,-1,26
 194 612 194 612 175 606 c 1,27,-1
 165 666 l 1,28,29
 183 671 183 671 212.5 675.5 c 128,-1,30
 242 680 242 680 273 680 c 0,0,1
280 377 m 0,31,32
 302 377 302 377 322 378 c 128,-1,33
 342 379 342 379 348 381 c 1,34,-1
 348 477 l 1,35,36
 337 479 337 479 321 480.5 c 128,-1,37
 305 482 305 482 289 482 c 128,-1,38
 273 482 273 482 256.5 479.5 c 128,-1,39
 240 477 240 477 226 472 c 128,-1,40
 212 467 212 467 203 456.5 c 128,-1,41
 194 446 194 446 194 430 c 0,42,43
 194 402 194 402 217 389.5 c 128,-1,44
 240 377 240 377 280 377 c 0,31,32
EndSplineSet
EndChar

StartChar: guillemotleft
Encoding: 171 171 134
Width: 500
Flags: W
LayerCount: 2
Fore
SplineSet
261 274 m 1,0,-1
 391 464 l 1,1,-1
 446 435 l 1,2,-1
 356 274 l 1,3,-1
 443 119 l 1,4,-1
 389 85 l 1,5,-1
 261 274 l 1,0,-1
68 274 m 1,6,-1
 197 464 l 1,7,-1
 253 435 l 1,8,-1
 162 274 l 1,9,-1
 248 119 l 1,10,-1
 194 85 l 1,11,-1
 68 274 l 1,6,-1
EndSplineSet
Substitution2: "'case' +WSdlh1tXfUQwf3UoMGuKv2V0MFcwX1tXX2IA lookup 17 +MLUw1jDGMPww1jDr" Guillemotleft
EndChar

StartChar: logicalnot
Encoding: 172 172 135
Width: 500
Flags: W
LayerCount: 2
Fore
SplineSet
486 375 m 1,0,-1
 486 46 l 1,1,-1
 409 46 l 1,2,-1
 409 299 l 1,3,-1
 44 299 l 1,4,-1
 44 375 l 1,5,-1
 486 375 l 1,0,-1
EndSplineSet
EndChar

StartChar: uni00AD
Encoding: 173 173 136
Width: 500
Flags: W
LayerCount: 2
Fore
SplineSet
151 316 m 1,0,-1
 389 316 l 1,1,-1
 389 232 l 1,2,-1
 151 232 l 1,3,-1
 151 316 l 1,0,-1
EndSplineSet
EndChar

StartChar: registered
Encoding: 174 174 137
Width: 500
Flags: W
LayerCount: 2
Fore
SplineSet
238 256 m 1,0,-1
 257 256 l 2,1,2
 286 256 286 256 300 263.5 c 128,-1,3
 314 271 314 271 314 296 c 0,4,5
 314 318 314 318 297 325 c 128,-1,6
 280 332 280 332 261 332 c 0,7,8
 255 332 255 332 249 331 c 128,-1,9
 243 330 243 330 238 329 c 1,10,-1
 238 256 l 1,0,-1
238 202 m 1,11,-1
 238 119 l 1,12,-1
 179 119 l 1,13,-1
 179 376 l 1,14,15
 194 380 194 380 212.5 383 c 128,-1,16
 231 386 231 386 252 386 c 0,17,18
 314 386 314 386 343.5 362 c 128,-1,19
 373 338 373 338 373 293 c 0,20,21
 373 241 373 241 329 216 c 1,22,23
 342 198 342 198 356 172.5 c 128,-1,24
 370 147 370 147 384 119 c 1,25,-1
 323 119 l 1,26,27
 309 145 309 145 298 165 c 128,-1,28
 287 185 287 185 276 202 c 1,29,-1
 238 202 l 1,11,-1
37 249 m 0,30,31
 37 315 37 315 57.5 365 c 128,-1,32
 78 415 78 415 111 448 c 128,-1,33
 144 481 144 481 186 497 c 128,-1,34
 228 513 228 513 271 513 c 128,-1,35
 314 513 314 513 356.5 497 c 128,-1,36
 399 481 399 481 431 448 c 128,-1,37
 463 415 463 415 483 365.5 c 128,-1,38
 503 316 503 316 503 252 c 0,39,40
 503 186 503 186 482.5 136.5 c 128,-1,41
 462 87 462 87 429 54.5 c 128,-1,42
 396 22 396 22 354 5 c 128,-1,43
 312 -12 312 -12 269 -12 c 0,44,45
 225 -12 225 -12 183 5 c 128,-1,46
 141 22 141 22 109 54 c 128,-1,47
 77 86 77 86 57 135 c 128,-1,48
 37 184 37 184 37 249 c 0,30,31
441 249 m 0,49,50
 441 301 441 301 426 339.5 c 128,-1,51
 411 378 411 378 387 403.5 c 128,-1,52
 363 429 363 429 332.5 442 c 128,-1,53
 302 455 302 455 270 455 c 128,-1,54
 238 455 238 455 207.5 442 c 128,-1,55
 177 429 177 429 153 403.5 c 128,-1,56
 129 378 129 378 114 339.5 c 128,-1,57
 99 301 99 301 99 252 c 0,58,59
 99 200 99 200 114 161.5 c 128,-1,60
 129 123 129 123 153 97.5 c 128,-1,61
 177 72 177 72 207.5 59 c 128,-1,62
 238 46 238 46 270 46 c 128,-1,63
 302 46 302 46 333 59 c 128,-1,64
 364 72 364 72 387.5 97.5 c 128,-1,65
 411 123 411 123 426 160.5 c 128,-1,66
 441 198 441 198 441 249 c 0,49,50
EndSplineSet
EndChar

StartChar: macron
Encoding: 175 175 138
Width: 500
Flags: W
LayerCount: 2
Fore
SplineSet
133 686 m 1,0,-1
 407 686 l 1,1,-1
 407 617 l 1,2,-1
 133 617 l 1,3,-1
 133 686 l 1,0,-1
EndSplineSet
EndChar

StartChar: degree
Encoding: 176 176 139
Width: 500
Flags: W
LayerCount: 2
Fore
SplineSet
340 614.5 m 128,-1,1
 340 649 340 649 319.5 668.5 c 128,-1,2
 299 688 299 688 270 688 c 128,-1,3
 241 688 241 688 220.5 668.5 c 128,-1,4
 200 649 200 649 200 614.5 c 128,-1,5
 200 580 200 580 220.5 560.5 c 128,-1,6
 241 541 241 541 270 541 c 128,-1,7
 299 541 299 541 319.5 560.5 c 128,-1,0
 340 580 340 580 340 614.5 c 128,-1,1
405 614.5 m 128,-1,9
 405 583 405 583 394 558.5 c 128,-1,10
 383 534 383 534 364.5 516.5 c 128,-1,11
 346 499 346 499 321.5 490 c 128,-1,12
 297 481 297 481 270 481 c 128,-1,13
 243 481 243 481 218.5 490 c 128,-1,14
 194 499 194 499 175.5 516.5 c 128,-1,15
 157 534 157 534 146 558.5 c 128,-1,16
 135 583 135 583 135 614.5 c 128,-1,17
 135 646 135 646 146 671 c 128,-1,18
 157 696 157 696 175.5 713 c 128,-1,19
 194 730 194 730 218.5 739 c 128,-1,20
 243 748 243 748 270 748 c 128,-1,21
 297 748 297 748 321.5 739 c 128,-1,22
 346 730 346 730 364.5 713 c 128,-1,23
 383 696 383 696 394 671 c 128,-1,8
 405 646 405 646 405 614.5 c 128,-1,9
EndSplineSet
EndChar

StartChar: plusminus
Encoding: 177 177 140
Width: 500
Flags: W
LayerCount: 2
Fore
SplineSet
50 77 m 1,0,-1
 491 77 l 1,1,-1
 491 0 l 1,2,-1
 50 0 l 1,3,-1
 50 77 l 1,0,-1
50 404 m 1,4,-1
 231 404 l 1,5,-1
 231 598 l 1,6,-1
 309 598 l 1,7,-1
 309 404 l 1,8,-1
 491 404 l 1,9,-1
 491 328 l 1,10,-1
 309 328 l 1,11,-1
 309 134 l 1,12,-1
 231 134 l 1,13,-1
 231 328 l 1,14,-1
 50 328 l 1,15,-1
 50 404 l 1,4,-1
EndSplineSet
EndChar

StartChar: twosuperior
Encoding: 178 178 141
Width: 500
Flags: W
LayerCount: 2
Fore
SplineSet
391 577 m 0,0,1
 391 556 391 556 382 537 c 128,-1,2
 373 518 373 518 357 499.5 c 128,-1,3
 341 481 341 481 320.5 461.5 c 128,-1,4
 300 442 300 442 278 422 c 0,5,6
 262 408 262 408 245.5 392.5 c 128,-1,7
 229 377 229 377 227 365 c 1,8,-1
 406 365 l 1,9,-1
 406 303 l 1,10,-1
 149 303 l 1,11,12
 146 335 146 335 153.5 359.5 c 128,-1,13
 161 384 161 384 175 405 c 128,-1,14
 189 426 189 426 208 442.5 c 128,-1,15
 227 459 227 459 246 476 c 0,16,17
 278 504 278 504 299 528 c 128,-1,18
 320 552 320 552 320 575 c 0,19,20
 320 624 320 624 260 623 c 0,21,22
 244 623 244 623 229.5 619 c 128,-1,23
 215 615 215 615 203 609 c 128,-1,24
 191 603 191 603 182.5 596.5 c 128,-1,25
 174 590 174 590 168 585 c 1,26,-1
 134 633 l 1,27,28
 151 650 151 650 184 667 c 128,-1,29
 217 684 217 684 260 684 c 0,30,31
 327 684 327 684 359 656.5 c 128,-1,32
 391 629 391 629 391 577 c 0,0,1
EndSplineSet
Substitution2: "+U1h9FH9uY9sA lookup 22 +MLUw1jDGMPww1jDr" twoinferior
Substitution2: "'sinf' +edFbZmWHcy51KE4LMGQwTWWHW1cA lookup 11 +MLUw1jDGMPww1jDr" two.sinf
Substitution2: "'subs' +TgswZDBNZYdbVwAA lookup 10 +MLUw1jDGMPww1jDr" two.sinf
Substitution2: "'sups' +TgowZDBNZYdbVwAA lookup 9 +MLUw1jDGMPww1jDr" two.sups
Substitution2: "'dnom' +UgZrzQAA lookup 8 +MLUw1jDGMPww1jDr" twoinferior
EndChar

StartChar: threesuperior
Encoding: 179 179 142
Width: 500
Flags: W
LayerCount: 2
Fore
SplineSet
244 356 m 0,0,1
 296 356 296 356 315 372 c 128,-1,2
 334 388 334 388 334 413 c 0,3,4
 334 429 334 429 325 440 c 128,-1,5
 316 451 316 451 301.5 459 c 128,-1,6
 287 467 287 467 267.5 470 c 128,-1,7
 248 473 248 473 228 473 c 2,8,-1
 210 473 l 1,9,-1
 210 528 l 1,10,-1
 233 528 l 2,11,12
 247 528 247 528 261.5 531 c 128,-1,13
 276 534 276 534 288 539.5 c 128,-1,14
 300 545 300 545 308 555 c 128,-1,15
 316 565 316 565 316 580 c 0,16,17
 316 604 316 604 298.5 614 c 128,-1,18
 281 624 281 624 253 624 c 0,19,20
 227 624 227 624 205 615 c 128,-1,21
 183 606 183 606 166 598 c 1,22,-1
 141 651 l 1,23,24
 156 662 156 662 189 673 c 128,-1,25
 222 684 222 684 255 684 c 0,26,27
 325 684 325 684 354 655.5 c 128,-1,28
 383 627 383 627 383 582 c 0,29,30
 383 536 383 536 330 505 c 1,31,32
 365 494 365 494 384.5 470 c 128,-1,33
 404 446 404 446 404 411 c 0,34,35
 404 362 404 362 367 329 c 128,-1,36
 330 296 330 296 245 296 c 0,37,38
 215 296 215 296 184 303 c 128,-1,39
 153 310 153 310 136 319 c 1,40,-1
 150 376 l 1,41,42
 172 367 172 367 195.5 361.5 c 128,-1,43
 219 356 219 356 244 356 c 0,0,1
EndSplineSet
Substitution2: "+U1h9FH9uY9sA lookup 22 +MLUw1jDGMPww1jDr" threeinferior
Substitution2: "'sinf' +edFbZmWHcy51KE4LMGQwTWWHW1cA lookup 11 +MLUw1jDGMPww1jDr" three.sinf
Substitution2: "'subs' +TgswZDBNZYdbVwAA lookup 10 +MLUw1jDGMPww1jDr" three.sinf
Substitution2: "'sups' +TgowZDBNZYdbVwAA lookup 9 +MLUw1jDGMPww1jDr" three.sups
Substitution2: "'dnom' +UgZrzQAA lookup 8 +MLUw1jDGMPww1jDr" threeinferior
EndChar

StartChar: acute
Encoding: 180 180 143
Width: 500
Flags: W
LayerCount: 2
Fore
SplineSet
365 691 m 1,0,-1
 229 559 l 1,1,-1
 184 599 l 1,2,-1
 307 748 l 1,3,-1
 365 691 l 1,0,-1
EndSplineSet
EndChar

StartChar: mu
Encoding: 181 181 144
Width: 500
Flags: W
LayerCount: 2
Fore
SplineSet
463 14 m 1,0,1
 434 6 434 6 386 -3 c 128,-1,2
 338 -12 338 -12 273 -12 c 0,3,4
 229 -12 229 -12 204.5 -2 c 128,-1,5
 180 8 180 8 162 24 c 1,6,7
 165 -1 165 -1 165.5 -26 c 128,-1,8
 166 -51 166 -51 166 -79 c 2,9,-1
 166 -178 l 1,10,-1
 77 -178 l 1,11,-1
 77 501 l 1,12,-1
 166 501 l 1,13,-1
 166 239 l 2,14,15
 166 193 166 193 172 160 c 128,-1,16
 178 127 178 127 191.5 106.5 c 128,-1,17
 205 86 205 86 227 77 c 128,-1,18
 249 68 249 68 282 68 c 0,19,20
 296 68 296 68 310.5 69 c 128,-1,21
 325 70 325 70 338 71 c 128,-1,22
 351 72 351 72 360.5 74 c 128,-1,23
 370 76 370 76 374 77 c 1,24,-1
 374 501 l 1,25,-1
 463 501 l 1,26,-1
 463 14 l 1,0,1
EndSplineSet
EndChar

StartChar: paragraph
Encoding: 182 182 145
Width: 500
Flags: W
LayerCount: 2
Fore
SplineSet
407 597 m 1,0,1
 357 603 357 603 313 599 c 1,2,-1
 313 -178 l 1,3,-1
 239 -178 l 1,4,-1
 239 253 l 1,5,6
 139 264 139 264 84.5 313.5 c 128,-1,7
 30 363 30 363 30 462 c 0,8,9
 30 515 30 515 50 554.5 c 128,-1,10
 70 594 70 594 108 621 c 128,-1,11
 146 648 146 648 199.5 661.5 c 128,-1,12
 253 675 253 675 320 675 c 0,13,14
 358 675 358 675 401 672 c 128,-1,15
 444 669 444 669 483 658 c 1,16,-1
 483 -178 l 1,17,-1
 407 -178 l 1,18,-1
 407 597 l 1,0,1
EndSplineSet
EndChar

StartChar: periodcentered
Encoding: 183 183 146
Width: 500
Flags: W
LayerCount: 2
Fore
SplineSet
350 281 m 0,0,1
 350 249 350 249 328.5 224 c 128,-1,2
 307 199 307 199 271 199 c 0,3,4
 234 199 234 199 212.5 223.5 c 128,-1,5
 191 248 191 248 191 281 c 128,-1,6
 191 314 191 314 212.5 339 c 128,-1,7
 234 364 234 364 271 364 c 0,8,9
 307 364 307 364 328.5 339 c 128,-1,10
 350 314 350 314 350 281 c 0,0,1
EndSplineSet
EndChar

StartChar: cedilla
Encoding: 184 184 147
Width: 500
Flags: W
LayerCount: 2
Fore
SplineSet
294 -36 m 1,0,1
 322 -49 322 -49 334.5 -65 c 128,-1,2
 347 -81 347 -81 347 -112 c 0,3,4
 347 -123 347 -123 342 -135.5 c 128,-1,5
 337 -148 337 -148 325.5 -158 c 128,-1,6
 314 -168 314 -168 295 -175.5 c 128,-1,7
 276 -183 276 -183 248 -183 c 0,8,9
 223 -183 223 -183 201.5 -179 c 128,-1,10
 180 -175 180 -175 168 -170 c 1,11,-1
 179 -114 l 1,12,13
 191 -118 191 -118 204 -121 c 128,-1,14
 217 -124 217 -124 233 -124 c 0,15,16
 268 -124 268 -124 268 -102.5 c 128,-1,17
 268 -81 268 -81 228 -69 c 1,18,-1
 220 -67 l 1,19,20
 223 -57 223 -57 229 -44 c 128,-1,21
 235 -31 235 -31 241 -18 c 128,-1,22
 247 -5 247 -5 252.5 5 c 128,-1,23
 258 15 258 15 260 19 c 1,24,-1
 322 19 l 1,25,26
 317 7 317 7 308 -8.5 c 128,-1,27
 299 -24 299 -24 294 -36 c 1,0,1
EndSplineSet
EndChar

StartChar: onesuperior
Encoding: 185 185 148
Width: 500
Flags: W
LayerCount: 2
Fore
SplineSet
249 365 m 1,0,-1
 249 588 l 1,1,2
 227 574 227 574 200.5 563 c 128,-1,3
 174 552 174 552 154 546 c 1,4,-1
 136 599 l 1,5,6
 173 611 173 611 208.5 631 c 128,-1,7
 244 651 244 651 270 676 c 1,8,-1
 318 676 l 1,9,-1
 318 365 l 1,10,-1
 414 365 l 1,11,-1
 414 303 l 1,12,-1
 144 303 l 1,13,-1
 144 365 l 1,14,-1
 249 365 l 1,0,-1
EndSplineSet
Substitution2: "+U1h9FH9uY9sA lookup 22 +MLUw1jDGMPww1jDr" oneinferior
Substitution2: "'sinf' +edFbZmWHcy51KE4LMGQwTWWHW1cA lookup 11 +MLUw1jDGMPww1jDr" one.sinf
Substitution2: "'subs' +TgswZDBNZYdbVwAA lookup 10 +MLUw1jDGMPww1jDr" one.sinf
Substitution2: "'sups' +TgowZDBNZYdbVwAA lookup 9 +MLUw1jDGMPww1jDr" one.sups
Substitution2: "'dnom' +UgZrzQAA lookup 8 +MLUw1jDGMPww1jDr" oneinferior
EndChar

StartChar: ordmasculine
Encoding: 186 186 149
Width: 500
Flags: W
LayerCount: 2
Fore
SplineSet
373 500 m 0,0,1
 373 555 373 555 346.5 586.5 c 128,-1,2
 320 618 320 618 270 618 c 0,3,4
 221 618 221 618 194 586.5 c 128,-1,5
 167 555 167 555 167 500 c 0,6,7
 167 446 167 446 193.5 413.5 c 128,-1,8
 220 381 220 381 270 381 c 128,-1,9
 320 381 320 381 346.5 413.5 c 128,-1,10
 373 446 373 446 373 500 c 0,0,1
444 500 m 128,-1,12
 444 458 444 458 431 424.5 c 128,-1,13
 418 391 418 391 395 366.5 c 128,-1,14
 372 342 372 342 340 329 c 128,-1,15
 308 316 308 316 270 316 c 128,-1,16
 232 316 232 316 200 329 c 128,-1,17
 168 342 168 342 145 366.5 c 128,-1,18
 122 391 122 391 109 424.5 c 128,-1,19
 96 458 96 458 96 500 c 128,-1,20
 96 542 96 542 109 575.5 c 128,-1,21
 122 609 122 609 145 633 c 128,-1,22
 168 657 168 657 200 670 c 128,-1,23
 232 683 232 683 270 683 c 128,-1,24
 308 683 308 683 340 670 c 128,-1,25
 372 657 372 657 395 633 c 128,-1,26
 418 609 418 609 431 575.5 c 128,-1,11
 444 542 444 542 444 500 c 128,-1,12
EndSplineSet
EndChar

StartChar: guillemotright
Encoding: 187 187 150
Width: 500
Flags: W
LayerCount: 2
Fore
SplineSet
276 275 m 1,0,-1
 148 85 l 1,1,-1
 92 114 l 1,2,-1
 183 275 l 1,3,-1
 95 431 l 1,4,-1
 149 464 l 1,5,-1
 276 275 l 1,0,-1
472 275 m 1,6,-1
 342 85 l 1,7,-1
 286 114 l 1,8,-1
 377 275 l 1,9,-1
 291 431 l 1,10,-1
 345 464 l 1,11,-1
 472 275 l 1,6,-1
EndSplineSet
Substitution2: "'case' +WSdlh1tXfUQwf3UoMGuKv2V0MFcwX1tXX2IA lookup 17 +MLUw1jDGMPww1jDr" Guillemotright
EndChar

StartChar: onequarter
Encoding: 188 188 151
Width: 500
Flags: W
LayerCount: 2
Fore
SplineSet
103 -4 m 1,0,-1
 27 -4 l 1,1,-1
 436 664 l 1,2,-1
 512 664 l 1,3,-1
 103 -4 l 1,0,-1
413 224 m 1,4,5
 390 195 390 195 371.5 164.5 c 128,-1,6
 353 134 353 134 337 106 c 1,7,-1
 413 106 l 1,8,-1
 413 224 l 1,4,5
476 270 m 1,9,-1
 476 106 l 1,10,-1
 515 106 l 1,11,-1
 515 52 l 1,12,-1
 476 52 l 1,13,-1
 476 0 l 1,14,-1
 413 0 l 1,15,-1
 413 52 l 1,16,-1
 273 52 l 1,17,-1
 273 96 l 1,18,19
 301 146 301 146 327 186.5 c 128,-1,20
 353 227 353 227 387 270 c 1,21,-1
 476 270 l 1,9,-1
19 606 m 1,22,23
 56 621 56 621 82 636 c 128,-1,24
 108 651 108 651 134 676 c 1,25,-1
 177 676 l 1,26,-1
 177 406 l 1,27,-1
 113 406 l 1,28,-1
 113 588 l 1,29,30
 91 576 91 576 74 568.5 c 128,-1,31
 57 561 57 561 38 554 c 1,32,-1
 19 606 l 1,22,23
EndSplineSet
Ligature2: "'frac' +ZZwwgTBuUgZlcAAA lookup 13 +MLUw1jDGMPww1jDr" one.sinf fraction four.sinf
Ligature2: "'frac' +ZZwwgTBuUgZlcAAA lookup 13 +MLUw1jDGMPww1jDr" one.sinf fraction four.sups
Ligature2: "'frac' +ZZwwgTBuUgZlcAAA lookup 13 +MLUw1jDGMPww1jDr" one.sinf fraction fourinferior
Ligature2: "'frac' +ZZwwgTBuUgZlcAAA lookup 13 +MLUw1jDGMPww1jDr" one.sinf fraction foursuperior
Ligature2: "'frac' +ZZwwgTBuUgZlcAAA lookup 13 +MLUw1jDGMPww1jDr" one.sinf fraction four
Ligature2: "'frac' +ZZwwgTBuUgZlcAAA lookup 13 +MLUw1jDGMPww1jDr" one.sups fraction four.sinf
Ligature2: "'frac' +ZZwwgTBuUgZlcAAA lookup 13 +MLUw1jDGMPww1jDr" one.sups fraction four.sups
Ligature2: "'frac' +ZZwwgTBuUgZlcAAA lookup 13 +MLUw1jDGMPww1jDr" one.sups fraction fourinferior
Ligature2: "'frac' +ZZwwgTBuUgZlcAAA lookup 13 +MLUw1jDGMPww1jDr" one.sups fraction foursuperior
Ligature2: "'frac' +ZZwwgTBuUgZlcAAA lookup 13 +MLUw1jDGMPww1jDr" one.sups fraction four
Ligature2: "'frac' +ZZwwgTBuUgZlcAAA lookup 13 +MLUw1jDGMPww1jDr" oneinferior fraction four.sinf
Ligature2: "'frac' +ZZwwgTBuUgZlcAAA lookup 13 +MLUw1jDGMPww1jDr" oneinferior fraction four.sups
Ligature2: "'frac' +ZZwwgTBuUgZlcAAA lookup 13 +MLUw1jDGMPww1jDr" oneinferior fraction fourinferior
Ligature2: "'frac' +ZZwwgTBuUgZlcAAA lookup 13 +MLUw1jDGMPww1jDr" oneinferior fraction foursuperior
Ligature2: "'frac' +ZZwwgTBuUgZlcAAA lookup 13 +MLUw1jDGMPww1jDr" oneinferior fraction four
Ligature2: "'frac' +ZZwwgTBuUgZlcAAA lookup 13 +MLUw1jDGMPww1jDr" onesuperior fraction four.sinf
Ligature2: "'frac' +ZZwwgTBuUgZlcAAA lookup 13 +MLUw1jDGMPww1jDr" onesuperior fraction four.sups
Ligature2: "'frac' +ZZwwgTBuUgZlcAAA lookup 13 +MLUw1jDGMPww1jDr" onesuperior fraction fourinferior
Ligature2: "'frac' +ZZwwgTBuUgZlcAAA lookup 13 +MLUw1jDGMPww1jDr" onesuperior fraction foursuperior
Ligature2: "'frac' +ZZwwgTBuUgZlcAAA lookup 13 +MLUw1jDGMPww1jDr" onesuperior fraction four
Ligature2: "'frac' +ZZwwgTBuUgZlcAAA lookup 13 +MLUw1jDGMPww1jDr" one fraction four.sinf
Ligature2: "'frac' +ZZwwgTBuUgZlcAAA lookup 13 +MLUw1jDGMPww1jDr" one fraction four.sups
Ligature2: "'frac' +ZZwwgTBuUgZlcAAA lookup 13 +MLUw1jDGMPww1jDr" one fraction fourinferior
Ligature2: "'frac' +ZZwwgTBuUgZlcAAA lookup 13 +MLUw1jDGMPww1jDr" one fraction foursuperior
Ligature2: "'frac' +ZZwwgTBuUgZlcAAA lookup 13 +MLUw1jDGMPww1jDr" one fraction four
EndChar

StartChar: onehalf
Encoding: 189 189 152
Width: 500
Flags: W
LayerCount: 2
Fore
SplineSet
94 0 m 1,0,-1
 18 0 l 1,1,-1
 428 669 l 1,2,-1
 503 669 l 1,3,-1
 94 0 l 1,0,-1
26 606 m 1,4,5
 64 621 64 621 89 636 c 128,-1,6
 114 651 114 651 140 676 c 1,7,-1
 185 676 l 1,8,-1
 185 406 l 1,9,-1
 121 406 l 1,10,-1
 121 588 l 1,11,12
 99 576 99 576 81.5 568.5 c 128,-1,13
 64 561 64 561 44 554 c 1,14,-1
 26 606 l 1,4,5
521 54 m 1,15,-1
 521 0 l 1,16,-1
 308 0 l 1,17,18
 307 3 307 3 307 12.5 c 128,-1,19
 307 22 307 22 307 25 c 0,20,21
 307 60 307 60 328.5 78.5 c 128,-1,22
 350 97 350 97 378 114 c 1,23,-1
 402 131 l 1,24,25
 428 146 428 146 437.5 159.5 c 128,-1,26
 447 173 447 173 447 188 c 0,27,28
 447 206 447 206 434.5 215 c 128,-1,29
 422 224 422 224 405 224 c 0,30,31
 389 224 389 224 371.5 217 c 128,-1,32
 354 210 354 210 341 195 c 1,33,-1
 307 239 l 1,34,35
 325 260 325 260 353 270 c 128,-1,36
 381 280 381 280 409 280 c 0,37,38
 460 280 460 280 485.5 253 c 128,-1,39
 511 226 511 226 511 191 c 0,40,41
 511 163 511 163 497 143 c 128,-1,42
 483 123 483 123 462.5 108 c 128,-1,43
 442 93 442 93 420.5 80 c 128,-1,44
 399 67 399 67 384 54 c 1,45,-1
 521 54 l 1,15,-1
EndSplineSet
Ligature2: "'frac' +ZZwwgTBuUgZlcAAA lookup 13 +MLUw1jDGMPww1jDr" one.sinf fraction two.sinf
Ligature2: "'frac' +ZZwwgTBuUgZlcAAA lookup 13 +MLUw1jDGMPww1jDr" one.sinf fraction two.sups
Ligature2: "'frac' +ZZwwgTBuUgZlcAAA lookup 13 +MLUw1jDGMPww1jDr" one.sinf fraction twoinferior
Ligature2: "'frac' +ZZwwgTBuUgZlcAAA lookup 13 +MLUw1jDGMPww1jDr" one.sinf fraction twosuperior
Ligature2: "'frac' +ZZwwgTBuUgZlcAAA lookup 13 +MLUw1jDGMPww1jDr" one.sinf fraction two
Ligature2: "'frac' +ZZwwgTBuUgZlcAAA lookup 13 +MLUw1jDGMPww1jDr" one.sups fraction two.sinf
Ligature2: "'frac' +ZZwwgTBuUgZlcAAA lookup 13 +MLUw1jDGMPww1jDr" one.sups fraction two.sups
Ligature2: "'frac' +ZZwwgTBuUgZlcAAA lookup 13 +MLUw1jDGMPww1jDr" one.sups fraction twoinferior
Ligature2: "'frac' +ZZwwgTBuUgZlcAAA lookup 13 +MLUw1jDGMPww1jDr" one.sups fraction twosuperior
Ligature2: "'frac' +ZZwwgTBuUgZlcAAA lookup 13 +MLUw1jDGMPww1jDr" one.sups fraction two
Ligature2: "'frac' +ZZwwgTBuUgZlcAAA lookup 13 +MLUw1jDGMPww1jDr" oneinferior fraction two.sinf
Ligature2: "'frac' +ZZwwgTBuUgZlcAAA lookup 13 +MLUw1jDGMPww1jDr" oneinferior fraction two.sups
Ligature2: "'frac' +ZZwwgTBuUgZlcAAA lookup 13 +MLUw1jDGMPww1jDr" oneinferior fraction twoinferior
Ligature2: "'frac' +ZZwwgTBuUgZlcAAA lookup 13 +MLUw1jDGMPww1jDr" oneinferior fraction twosuperior
Ligature2: "'frac' +ZZwwgTBuUgZlcAAA lookup 13 +MLUw1jDGMPww1jDr" oneinferior fraction two
Ligature2: "'frac' +ZZwwgTBuUgZlcAAA lookup 13 +MLUw1jDGMPww1jDr" onesuperior fraction two.sinf
Ligature2: "'frac' +ZZwwgTBuUgZlcAAA lookup 13 +MLUw1jDGMPww1jDr" onesuperior fraction two.sups
Ligature2: "'frac' +ZZwwgTBuUgZlcAAA lookup 13 +MLUw1jDGMPww1jDr" onesuperior fraction twoinferior
Ligature2: "'frac' +ZZwwgTBuUgZlcAAA lookup 13 +MLUw1jDGMPww1jDr" onesuperior fraction twosuperior
Ligature2: "'frac' +ZZwwgTBuUgZlcAAA lookup 13 +MLUw1jDGMPww1jDr" onesuperior fraction two
Ligature2: "'frac' +ZZwwgTBuUgZlcAAA lookup 13 +MLUw1jDGMPww1jDr" one fraction two.sinf
Ligature2: "'frac' +ZZwwgTBuUgZlcAAA lookup 13 +MLUw1jDGMPww1jDr" one fraction two.sups
Ligature2: "'frac' +ZZwwgTBuUgZlcAAA lookup 13 +MLUw1jDGMPww1jDr" one fraction twoinferior
Ligature2: "'frac' +ZZwwgTBuUgZlcAAA lookup 13 +MLUw1jDGMPww1jDr" one fraction twosuperior
Ligature2: "'frac' +ZZwwgTBuUgZlcAAA lookup 13 +MLUw1jDGMPww1jDr" one fraction two
EndChar

StartChar: threequarters
Encoding: 190 190 153
Width: 500
Flags: W
LayerCount: 2
Fore
SplineSet
108 0 m 1,0,-1
 32 0 l 1,1,-1
 442 669 l 1,2,-1
 517 669 l 1,3,-1
 108 0 l 1,0,-1
413 224 m 1,4,5
 390 195 390 195 371.5 164.5 c 128,-1,6
 353 134 353 134 337 106 c 1,7,-1
 413 106 l 1,8,-1
 413 224 l 1,4,5
39 464 m 1,9,10
 51 459 51 459 68.5 454.5 c 128,-1,11
 86 450 86 450 108 450 c 0,12,13
 132 450 132 450 149.5 457 c 128,-1,14
 167 464 167 464 167 483 c 0,15,16
 167 506 167 506 146.5 512 c 128,-1,17
 126 518 126 518 85 518 c 2,18,-1
 72 518 l 1,19,-1
 72 572 l 1,20,-1
 96 572 l 2,21,22
 124 572 124 572 139 578 c 128,-1,23
 154 584 154 584 154 604 c 0,24,25
 154 620 154 620 140.5 625 c 128,-1,26
 127 630 127 630 112 630 c 128,-1,27
 97 630 97 630 77.5 624.5 c 128,-1,28
 58 619 58 619 45 613 c 1,29,-1
 25 660 l 1,30,31
 41 670 41 670 67.5 677 c 128,-1,32
 94 684 94 684 122 684 c 0,33,34
 140 684 140 684 157.5 680 c 128,-1,35
 175 676 175 676 188.5 668 c 128,-1,36
 202 660 202 660 210 646.5 c 128,-1,37
 218 633 218 633 218 613 c 0,38,39
 218 597 218 597 210 581 c 128,-1,40
 202 565 202 565 185 553 c 1,41,42
 231 531 231 531 231 483 c 0,43,44
 231 468 231 468 224.5 452 c 128,-1,45
 218 436 218 436 204 423.5 c 128,-1,46
 190 411 190 411 167.5 403.5 c 128,-1,47
 145 396 145 396 112 396 c 0,48,49
 62 396 62 396 23 411 c 1,50,-1
 39 464 l 1,9,10
476 270 m 1,51,-1
 476 106 l 1,52,-1
 515 106 l 1,53,-1
 515 52 l 1,54,-1
 476 52 l 1,55,-1
 476 0 l 1,56,-1
 413 0 l 1,57,-1
 413 52 l 1,58,-1
 273 52 l 1,59,-1
 273 96 l 1,60,61
 301 146 301 146 327 186.5 c 128,-1,62
 353 227 353 227 387 270 c 1,63,-1
 476 270 l 1,51,-1
EndSplineSet
Ligature2: "'frac' +ZZwwgTBuUgZlcAAA lookup 13 +MLUw1jDGMPww1jDr" three.sinf fraction four.sinf
Ligature2: "'frac' +ZZwwgTBuUgZlcAAA lookup 13 +MLUw1jDGMPww1jDr" three.sinf fraction four.sups
Ligature2: "'frac' +ZZwwgTBuUgZlcAAA lookup 13 +MLUw1jDGMPww1jDr" three.sinf fraction fourinferior
Ligature2: "'frac' +ZZwwgTBuUgZlcAAA lookup 13 +MLUw1jDGMPww1jDr" three.sinf fraction foursuperior
Ligature2: "'frac' +ZZwwgTBuUgZlcAAA lookup 13 +MLUw1jDGMPww1jDr" three.sinf fraction four
Ligature2: "'frac' +ZZwwgTBuUgZlcAAA lookup 13 +MLUw1jDGMPww1jDr" three.sups fraction four.sinf
Ligature2: "'frac' +ZZwwgTBuUgZlcAAA lookup 13 +MLUw1jDGMPww1jDr" three.sups fraction four.sups
Ligature2: "'frac' +ZZwwgTBuUgZlcAAA lookup 13 +MLUw1jDGMPww1jDr" three.sups fraction fourinferior
Ligature2: "'frac' +ZZwwgTBuUgZlcAAA lookup 13 +MLUw1jDGMPww1jDr" three.sups fraction foursuperior
Ligature2: "'frac' +ZZwwgTBuUgZlcAAA lookup 13 +MLUw1jDGMPww1jDr" three.sups fraction four
Ligature2: "'frac' +ZZwwgTBuUgZlcAAA lookup 13 +MLUw1jDGMPww1jDr" threeinferior fraction four.sinf
Ligature2: "'frac' +ZZwwgTBuUgZlcAAA lookup 13 +MLUw1jDGMPww1jDr" threeinferior fraction four.sups
Ligature2: "'frac' +ZZwwgTBuUgZlcAAA lookup 13 +MLUw1jDGMPww1jDr" threeinferior fraction fourinferior
Ligature2: "'frac' +ZZwwgTBuUgZlcAAA lookup 13 +MLUw1jDGMPww1jDr" threeinferior fraction foursuperior
Ligature2: "'frac' +ZZwwgTBuUgZlcAAA lookup 13 +MLUw1jDGMPww1jDr" threeinferior fraction four
Ligature2: "'frac' +ZZwwgTBuUgZlcAAA lookup 13 +MLUw1jDGMPww1jDr" threesuperior fraction four.sinf
Ligature2: "'frac' +ZZwwgTBuUgZlcAAA lookup 13 +MLUw1jDGMPww1jDr" threesuperior fraction four.sups
Ligature2: "'frac' +ZZwwgTBuUgZlcAAA lookup 13 +MLUw1jDGMPww1jDr" threesuperior fraction fourinferior
Ligature2: "'frac' +ZZwwgTBuUgZlcAAA lookup 13 +MLUw1jDGMPww1jDr" threesuperior fraction foursuperior
Ligature2: "'frac' +ZZwwgTBuUgZlcAAA lookup 13 +MLUw1jDGMPww1jDr" threesuperior fraction four
Ligature2: "'frac' +ZZwwgTBuUgZlcAAA lookup 13 +MLUw1jDGMPww1jDr" three fraction four.sinf
Ligature2: "'frac' +ZZwwgTBuUgZlcAAA lookup 13 +MLUw1jDGMPww1jDr" three fraction four.sups
Ligature2: "'frac' +ZZwwgTBuUgZlcAAA lookup 13 +MLUw1jDGMPww1jDr" three fraction fourinferior
Ligature2: "'frac' +ZZwwgTBuUgZlcAAA lookup 13 +MLUw1jDGMPww1jDr" three fraction foursuperior
Ligature2: "'frac' +ZZwwgTBuUgZlcAAA lookup 13 +MLUw1jDGMPww1jDr" three fraction four
EndChar

StartChar: questiondown
Encoding: 191 191 154
Width: 500
Flags: W
LayerCount: 2
Fore
SplineSet
296 502 m 0,0,1
 326 502 326 502 347 482 c 128,-1,2
 368 462 368 462 368 428.5 c 128,-1,3
 368 395 368 395 347 375.5 c 128,-1,4
 326 356 326 356 296 356 c 0,5,6
 267 356 267 356 245.5 375.5 c 128,-1,7
 224 395 224 395 224 428.5 c 128,-1,8
 224 462 224 462 245.5 482 c 128,-1,9
 267 502 267 502 296 502 c 0,0,1
342 262 m 1,10,-1
 343 241 l 1,11,12
 343 210 343 210 332 186 c 128,-1,13
 321 162 321 162 304 141.5 c 128,-1,14
 287 121 287 121 267 103 c 128,-1,15
 247 85 247 85 230.5 67 c 128,-1,16
 214 49 214 49 202.5 28.5 c 128,-1,17
 191 8 191 8 191 -17 c 0,18,19
 191 -58 191 -58 217 -83 c 128,-1,20
 243 -108 243 -108 293 -108 c 0,21,22
 357 -108 357 -108 418 -76 c 1,23,-1
 443 -145 l 1,24,25
 411 -162 411 -162 369.5 -173 c 128,-1,26
 328 -184 328 -184 282 -184 c 0,27,28
 227 -184 227 -184 192 -168.5 c 128,-1,29
 157 -153 157 -153 136.5 -130 c 128,-1,30
 116 -107 116 -107 107.5 -79 c 128,-1,31
 99 -51 99 -51 99 -25 c 0,32,33
 99 7 99 7 111.5 32 c 128,-1,34
 124 57 124 57 142.5 78 c 128,-1,35
 161 99 161 99 182.5 118.5 c 128,-1,36
 204 138 204 138 222.5 159.5 c 128,-1,37
 241 181 241 181 253.5 205.5 c 128,-1,38
 266 230 266 230 266 262 c 1,39,-1
 342 262 l 1,10,-1
EndSplineSet
Substitution2: "'case' +WSdlh1tXfUQwf3UoMGuKv2V0MFcwX1tXX2IA lookup 17 +MLUw1jDGMPww1jDr" Questiondown
EndChar

StartChar: Agrave
Encoding: 192 192 155
Width: 500
Flags: W
LayerCount: 2
Fore
SplineSet
269 591 m 1,0,1
 244 523 244 523 215 433 c 128,-1,2
 186 343 186 343 160 248 c 1,3,-1
 376 248 l 1,4,5
 351 345 351 345 322.5 435.5 c 128,-1,6
 294 526 294 526 269 591 c 1,0,1
436 0 m 1,7,-1
 396 175 l 1,8,-1
 139 175 l 1,9,-1
 100 0 l 1,10,-1
 10 0 l 1,11,12
 28 71 28 71 50.5 154.5 c 128,-1,13
 73 238 73 238 99.5 325.5 c 128,-1,14
 126 413 126 413 155.5 501 c 128,-1,15
 185 589 185 589 217 669 c 1,16,-1
 327 669 l 1,17,18
 358 589 358 589 387 501 c 128,-1,19
 416 413 416 413 441.5 325.5 c 128,-1,20
 467 238 467 238 489.5 154.5 c 128,-1,21
 512 71 512 71 530 0 c 1,22,-1
 436 0 l 1,7,-1
238 896 m 1,23,-1
 361 747 l 1,24,-1
 315 707 l 1,25,-1
 180 839 l 1,26,-1
 238 896 l 1,23,-1
EndSplineSet
EndChar

StartChar: Aacute
Encoding: 193 193 156
Width: 500
Flags: W
LayerCount: 2
Fore
SplineSet
269 591 m 1,0,1
 244 523 244 523 215 433 c 128,-1,2
 186 343 186 343 160 248 c 1,3,-1
 376 248 l 1,4,5
 351 345 351 345 322.5 435.5 c 128,-1,6
 294 526 294 526 269 591 c 1,0,1
436 0 m 1,7,-1
 396 175 l 1,8,-1
 139 175 l 1,9,-1
 100 0 l 1,10,-1
 10 0 l 1,11,12
 28 71 28 71 50.5 154.5 c 128,-1,13
 73 238 73 238 99.5 325.5 c 128,-1,14
 126 413 126 413 155.5 501 c 128,-1,15
 185 589 185 589 217 669 c 1,16,-1
 327 669 l 1,17,18
 358 589 358 589 387 501 c 128,-1,19
 416 413 416 413 441.5 325.5 c 128,-1,20
 467 238 467 238 489.5 154.5 c 128,-1,21
 512 71 512 71 530 0 c 1,22,-1
 436 0 l 1,7,-1
362 839 m 1,23,-1
 226 707 l 1,24,-1
 180 747 l 1,25,-1
 303 896 l 1,26,-1
 362 839 l 1,23,-1
EndSplineSet
EndChar

StartChar: Acircumflex
Encoding: 194 194 157
Width: 500
Flags: W
LayerCount: 2
Fore
SplineSet
269 591 m 1,0,1
 244 523 244 523 215 433 c 128,-1,2
 186 343 186 343 160 248 c 1,3,-1
 376 248 l 1,4,5
 351 345 351 345 322.5 435.5 c 128,-1,6
 294 526 294 526 269 591 c 1,0,1
436 0 m 1,7,-1
 396 175 l 1,8,-1
 139 175 l 1,9,-1
 100 0 l 1,10,-1
 10 0 l 1,11,12
 28 71 28 71 50.5 154.5 c 128,-1,13
 73 238 73 238 99.5 325.5 c 128,-1,14
 126 413 126 413 155.5 501 c 128,-1,15
 185 589 185 589 217 669 c 1,16,-1
 327 669 l 1,17,18
 358 589 358 589 387 501 c 128,-1,19
 416 413 416 413 441.5 325.5 c 128,-1,20
 467 238 467 238 489.5 154.5 c 128,-1,21
 512 71 512 71 530 0 c 1,22,-1
 436 0 l 1,7,-1
270 892 m 1,23,-1
 401 754 l 1,24,-1
 364 712 l 1,25,-1
 270 796 l 1,26,-1
 176 712 l 1,27,-1
 139 754 l 1,28,-1
 270 892 l 1,23,-1
EndSplineSet
EndChar

StartChar: Atilde
Encoding: 195 195 158
Width: 500
Flags: W
LayerCount: 2
Fore
SplineSet
269 591 m 1,0,1
 244 523 244 523 215 433 c 128,-1,2
 186 343 186 343 160 248 c 1,3,-1
 376 248 l 1,4,5
 351 345 351 345 322.5 435.5 c 128,-1,6
 294 526 294 526 269 591 c 1,0,1
436 0 m 1,7,-1
 396 175 l 1,8,-1
 139 175 l 1,9,-1
 100 0 l 1,10,-1
 10 0 l 1,11,12
 28 71 28 71 50.5 154.5 c 128,-1,13
 73 238 73 238 99.5 325.5 c 128,-1,14
 126 413 126 413 155.5 501 c 128,-1,15
 185 589 185 589 217 669 c 1,16,-1
 327 669 l 1,17,18
 358 589 358 589 387 501 c 128,-1,19
 416 413 416 413 441.5 325.5 c 128,-1,20
 467 238 467 238 489.5 154.5 c 128,-1,21
 512 71 512 71 530 0 c 1,22,-1
 436 0 l 1,7,-1
419 836 m 1,23,24
 416 824 416 824 408 809 c 128,-1,25
 400 794 400 794 388 781 c 128,-1,26
 376 768 376 768 359.5 759 c 128,-1,27
 343 750 343 750 323 750 c 0,28,29
 309 750 309 750 290 757.5 c 128,-1,30
 271 765 271 765 259 770 c 1,31,32
 231 785 231 785 214 785 c 0,33,34
 200 785 200 785 187 771 c 128,-1,35
 174 757 174 757 167 742 c 1,36,-1
 121 767 l 1,37,38
 124 779 124 779 132 794 c 128,-1,39
 140 809 140 809 152 822 c 128,-1,40
 164 835 164 835 180.5 844 c 128,-1,41
 197 853 197 853 216 853 c 0,42,43
 230 853 230 853 249 845 c 128,-1,44
 268 837 268 837 280 832 c 1,45,46
 308 817 308 817 325 816 c 0,47,48
 339 816 339 816 352.5 830.5 c 128,-1,49
 366 845 366 845 373 860 c 1,50,-1
 419 836 l 1,23,24
EndSplineSet
EndChar

StartChar: Adieresis
Encoding: 196 196 159
Width: 500
Flags: W
LayerCount: 2
Fore
SplineSet
269 591 m 1,0,1
 244 523 244 523 215 433 c 128,-1,2
 186 343 186 343 160 248 c 1,3,-1
 376 248 l 1,4,5
 351 345 351 345 322.5 435.5 c 128,-1,6
 294 526 294 526 269 591 c 1,0,1
436 0 m 1,7,-1
 396 175 l 1,8,-1
 139 175 l 1,9,-1
 100 0 l 1,10,-1
 10 0 l 1,11,12
 28 71 28 71 50.5 154.5 c 128,-1,13
 73 238 73 238 99.5 325.5 c 128,-1,14
 126 413 126 413 155.5 501 c 128,-1,15
 185 589 185 589 217 669 c 1,16,-1
 327 669 l 1,17,18
 358 589 358 589 387 501 c 128,-1,19
 416 413 416 413 441.5 325.5 c 128,-1,20
 467 238 467 238 489.5 154.5 c 128,-1,21
 512 71 512 71 530 0 c 1,22,-1
 436 0 l 1,7,-1
361.5 744 m 128,-1,24
 339 744 339 744 322.5 760.5 c 128,-1,25
 306 777 306 777 306 801.5 c 128,-1,26
 306 826 306 826 322.5 842 c 128,-1,27
 339 858 339 858 361.5 858 c 128,-1,28
 384 858 384 858 401 842 c 128,-1,29
 418 826 418 826 418 801.5 c 128,-1,30
 418 777 418 777 401 760.5 c 128,-1,23
 384 744 384 744 361.5 744 c 128,-1,24
178 744 m 0,31,32
 156 744 156 744 139 760.5 c 128,-1,33
 122 777 122 777 122 801.5 c 128,-1,34
 122 826 122 826 139.5 842 c 128,-1,35
 157 858 157 858 178 858 c 0,36,37
 201 858 201 858 217.5 842 c 128,-1,38
 234 826 234 826 234 801.5 c 128,-1,39
 234 777 234 777 217.5 760.5 c 128,-1,40
 201 744 201 744 178 744 c 0,31,32
EndSplineSet
EndChar

StartChar: Aring
Encoding: 197 197 160
Width: 500
Flags: W
LayerCount: 2
Fore
SplineSet
322 710.5 m 128,-1,1
 322 735 322 735 307.5 749.5 c 128,-1,2
 293 764 293 764 271 764 c 128,-1,3
 249 764 249 764 234.5 749.5 c 128,-1,4
 220 735 220 735 220 710.5 c 128,-1,5
 220 686 220 686 234.5 672 c 128,-1,6
 249 658 249 658 271 658 c 128,-1,7
 293 658 293 658 307.5 672 c 128,-1,0
 322 686 322 686 322 710.5 c 128,-1,1
269 591 m 1,8,9
 244 523 244 523 215 433 c 128,-1,10
 186 343 186 343 160 248 c 1,11,-1
 376 248 l 1,12,13
 351 345 351 345 322.5 435.5 c 128,-1,14
 294 526 294 526 269 591 c 1,8,9
436 0 m 1,15,-1
 396 175 l 1,16,-1
 139 175 l 1,17,-1
 100 0 l 1,18,-1
 10 0 l 1,19,20
 27 68 27 68 50 151.5 c 128,-1,21
 73 235 73 235 99 321 c 128,-1,22
 125 407 125 407 152.5 488 c 128,-1,23
 180 569 180 569 208 633 c 1,24,25
 193 646 193 646 182.5 666 c 128,-1,26
 172 686 172 686 172 711 c 0,27,28
 172 756 172 756 201.5 782.5 c 128,-1,29
 231 809 231 809 271 809 c 128,-1,30
 311 809 311 809 340.5 782.5 c 128,-1,31
 370 756 370 756 370 711 c 0,32,33
 370 687 370 687 360 666.5 c 128,-1,34
 350 646 350 646 335 634 c 1,35,36
 362 570 362 570 389.5 488.5 c 128,-1,37
 417 407 417 407 442.5 320.5 c 128,-1,38
 468 234 468 234 490 150.5 c 128,-1,39
 512 67 512 67 530 0 c 1,40,-1
 436 0 l 1,15,-1
EndSplineSet
EndChar

StartChar: AE
Encoding: 198 198 161
Width: 500
Flags: W
LayerCount: 2
Fore
SplineSet
284 611 m 1,0,1
 254 516 254 516 226.5 422 c 128,-1,2
 199 328 199 328 176 248 c 1,3,-1
 284 248 l 1,4,-1
 284 611 l 1,0,1
284 0 m 1,5,-1
 284 175 l 1,6,-1
 157 175 l 1,7,-1
 117 0 l 1,8,-1
 29 0 l 1,9,10
 78 188 78 188 127.5 352.5 c 128,-1,11
 177 517 177 517 237 669 c 1,12,-1
 507 669 l 1,13,-1
 507 593 l 1,14,-1
 368 593 l 1,15,-1
 368 388 l 1,16,-1
 482 388 l 1,17,-1
 482 312 l 1,18,-1
 368 312 l 1,19,-1
 368 76 l 1,20,-1
 521 76 l 1,21,-1
 521 0 l 1,22,-1
 284 0 l 1,5,-1
EndSplineSet
EndChar

StartChar: Ccedilla
Encoding: 199 199 162
Width: 500
Flags: W
LayerCount: 2
Fore
SplineSet
342 -36 m 1,0,1
 370 -49 370 -49 382.5 -65 c 128,-1,2
 395 -81 395 -81 395 -112 c 0,3,4
 395 -123 395 -123 390.5 -135.5 c 128,-1,5
 386 -148 386 -148 374.5 -158 c 128,-1,6
 363 -168 363 -168 344 -175.5 c 128,-1,7
 325 -183 325 -183 297 -183 c 0,8,9
 272 -183 272 -183 250.5 -179 c 128,-1,10
 229 -175 229 -175 217 -170 c 1,11,-1
 228 -114 l 1,12,13
 240 -118 240 -118 253 -121 c 128,-1,14
 266 -124 266 -124 282 -124 c 0,15,16
 317 -124 317 -124 316.5 -102.5 c 128,-1,17
 316 -81 316 -81 276 -69 c 2,18,-1
 269 -67 l 1,19,20
 273 -55 273 -55 279.5 -40.5 c 128,-1,21
 286 -26 286 -26 293 -12 c 1,22,23
 240 -7 240 -7 195 16.5 c 128,-1,24
 150 40 150 40 117.5 83 c 128,-1,25
 85 126 85 126 67.5 189 c 128,-1,26
 50 252 50 252 50 335 c 0,27,28
 50 420 50 420 72 485 c 128,-1,29
 94 550 94 550 132 594 c 128,-1,30
 170 638 170 638 220.5 661 c 128,-1,31
 271 684 271 684 328 684 c 0,32,33
 368 684 368 684 409.5 673 c 128,-1,34
 451 662 451 662 491 637 c 1,35,-1
 465 564 l 1,36,37
 394 605 394 605 332 605 c 0,38,39
 288 605 288 605 252.5 586 c 128,-1,40
 217 567 217 567 192 531.5 c 128,-1,41
 167 496 167 496 153.5 446 c 128,-1,42
 140 396 140 396 140 335 c 0,43,44
 140 266 140 266 155 215 c 128,-1,45
 170 164 170 164 195.5 130.5 c 128,-1,46
 221 97 221 97 257.5 81 c 128,-1,47
 294 65 294 65 336 65 c 0,48,49
 367 65 367 65 401.5 73 c 128,-1,50
 436 81 436 81 473 102 c 1,51,-1
 497 28 l 1,52,53
 434 -8 434 -8 354 -13 c 1,54,-1
 342 -36 l 1,0,1
EndSplineSet
EndChar

StartChar: Egrave
Encoding: 200 200 163
Width: 500
Flags: W
LayerCount: 2
Fore
SplineSet
98 0 m 1,0,-1
 98 669 l 1,1,-1
 473 669 l 1,2,-1
 473 593 l 1,3,-1
 187 593 l 1,4,-1
 187 388 l 1,5,-1
 437 388 l 1,6,-1
 437 312 l 1,7,-1
 187 312 l 1,8,-1
 187 76 l 1,9,-1
 497 76 l 1,10,-1
 497 0 l 1,11,-1
 98 0 l 1,0,-1
248 896 m 1,12,-1
 372 747 l 1,13,-1
 326 707 l 1,14,-1
 191 839 l 1,15,-1
 248 896 l 1,12,-1
EndSplineSet
EndChar

StartChar: Eacute
Encoding: 201 201 164
Width: 500
Flags: W
LayerCount: 2
Fore
SplineSet
98 0 m 1,0,-1
 98 669 l 1,1,-1
 473 669 l 1,2,-1
 473 593 l 1,3,-1
 187 593 l 1,4,-1
 187 388 l 1,5,-1
 437 388 l 1,6,-1
 437 312 l 1,7,-1
 187 312 l 1,8,-1
 187 76 l 1,9,-1
 497 76 l 1,10,-1
 497 0 l 1,11,-1
 98 0 l 1,0,-1
393 839 m 1,12,-1
 257 707 l 1,13,-1
 212 747 l 1,14,-1
 335 896 l 1,15,-1
 393 839 l 1,12,-1
EndSplineSet
EndChar

StartChar: Ecircumflex
Encoding: 202 202 165
Width: 500
Flags: W
LayerCount: 2
Fore
SplineSet
98 0 m 1,0,-1
 98 669 l 1,1,-1
 473 669 l 1,2,-1
 473 593 l 1,3,-1
 187 593 l 1,4,-1
 187 388 l 1,5,-1
 437 388 l 1,6,-1
 437 312 l 1,7,-1
 187 312 l 1,8,-1
 187 76 l 1,9,-1
 497 76 l 1,10,-1
 497 0 l 1,11,-1
 98 0 l 1,0,-1
289 892 m 1,12,-1
 420 754 l 1,13,-1
 383 712 l 1,14,-1
 289 796 l 1,15,-1
 195 712 l 1,16,-1
 159 754 l 1,17,-1
 289 892 l 1,12,-1
EndSplineSet
EndChar

StartChar: Edieresis
Encoding: 203 203 166
Width: 500
Flags: W
LayerCount: 2
Fore
SplineSet
98 0 m 1,0,-1
 98 669 l 1,1,-1
 473 669 l 1,2,-1
 473 593 l 1,3,-1
 187 593 l 1,4,-1
 187 388 l 1,5,-1
 437 388 l 1,6,-1
 437 312 l 1,7,-1
 187 312 l 1,8,-1
 187 76 l 1,9,-1
 497 76 l 1,10,-1
 497 0 l 1,11,-1
 98 0 l 1,0,-1
381.5 744 m 128,-1,13
 359 744 359 744 342 760.5 c 128,-1,14
 325 777 325 777 325 801.5 c 128,-1,15
 325 826 325 826 342 842 c 128,-1,16
 359 858 359 858 381.5 858 c 128,-1,17
 404 858 404 858 420.5 842 c 128,-1,18
 437 826 437 826 437 801.5 c 128,-1,19
 437 777 437 777 420.5 760.5 c 128,-1,12
 404 744 404 744 381.5 744 c 128,-1,13
198 744 m 0,20,21
 176 744 176 744 158.5 760.5 c 128,-1,22
 141 777 141 777 141 801.5 c 128,-1,23
 141 826 141 826 158.5 842 c 128,-1,24
 176 858 176 858 198 858 c 0,25,26
 221 858 221 858 237.5 842 c 128,-1,27
 254 826 254 826 254 801.5 c 128,-1,28
 254 777 254 777 237.5 760.5 c 128,-1,29
 221 744 221 744 198 744 c 0,20,21
EndSplineSet
EndChar

StartChar: Igrave
Encoding: 204 204 167
Width: 500
Flags: W
LayerCount: 2
Fore
SplineSet
314 593 m 1,0,-1
 314 76 l 1,1,-1
 444 76 l 1,2,-1
 444 0 l 1,3,-1
 96 0 l 1,4,-1
 96 76 l 1,5,-1
 226 76 l 1,6,-1
 226 593 l 1,7,-1
 96 593 l 1,8,-1
 96 669 l 1,9,-1
 444 669 l 1,10,-1
 444 593 l 1,11,-1
 314 593 l 1,0,-1
239 896 m 1,12,-1
 362 747 l 1,13,-1
 316 707 l 1,14,-1
 181 839 l 1,15,-1
 239 896 l 1,12,-1
EndSplineSet
EndChar

StartChar: Iacute
Encoding: 205 205 168
Width: 500
Flags: W
LayerCount: 2
Fore
SplineSet
314 593 m 1,0,-1
 314 76 l 1,1,-1
 444 76 l 1,2,-1
 444 0 l 1,3,-1
 96 0 l 1,4,-1
 96 76 l 1,5,-1
 226 76 l 1,6,-1
 226 593 l 1,7,-1
 96 593 l 1,8,-1
 96 669 l 1,9,-1
 444 669 l 1,10,-1
 444 593 l 1,11,-1
 314 593 l 1,0,-1
376 839 m 1,12,-1
 240 707 l 1,13,-1
 194 747 l 1,14,-1
 318 896 l 1,15,-1
 376 839 l 1,12,-1
EndSplineSet
EndChar

StartChar: Icircumflex
Encoding: 206 206 169
Width: 500
Flags: W
LayerCount: 2
Fore
SplineSet
314 593 m 1,0,-1
 314 76 l 1,1,-1
 444 76 l 1,2,-1
 444 0 l 1,3,-1
 96 0 l 1,4,-1
 96 76 l 1,5,-1
 226 76 l 1,6,-1
 226 593 l 1,7,-1
 96 593 l 1,8,-1
 96 669 l 1,9,-1
 444 669 l 1,10,-1
 444 593 l 1,11,-1
 314 593 l 1,0,-1
270 892 m 1,12,-1
 401 754 l 1,13,-1
 364 712 l 1,14,-1
 270 796 l 1,15,-1
 176 712 l 1,16,-1
 139 754 l 1,17,-1
 270 892 l 1,12,-1
EndSplineSet
EndChar

StartChar: Idieresis
Encoding: 207 207 170
Width: 500
Flags: W
LayerCount: 2
Fore
SplineSet
314 593 m 1,0,-1
 314 76 l 1,1,-1
 444 76 l 1,2,-1
 444 0 l 1,3,-1
 96 0 l 1,4,-1
 96 76 l 1,5,-1
 226 76 l 1,6,-1
 226 593 l 1,7,-1
 96 593 l 1,8,-1
 96 669 l 1,9,-1
 444 669 l 1,10,-1
 444 593 l 1,11,-1
 314 593 l 1,0,-1
361.5 744 m 128,-1,13
 339 744 339 744 322.5 760.5 c 128,-1,14
 306 777 306 777 306 801.5 c 128,-1,15
 306 826 306 826 322.5 842 c 128,-1,16
 339 858 339 858 361.5 858 c 128,-1,17
 384 858 384 858 401 842 c 128,-1,18
 418 826 418 826 418 801.5 c 128,-1,19
 418 777 418 777 401 760.5 c 128,-1,12
 384 744 384 744 361.5 744 c 128,-1,13
178 744 m 0,20,21
 156 744 156 744 139 760.5 c 128,-1,22
 122 777 122 777 122 801.5 c 128,-1,23
 122 826 122 826 139.5 842 c 128,-1,24
 157 858 157 858 178 858 c 0,25,26
 201 858 201 858 217.5 842 c 128,-1,27
 234 826 234 826 234 801.5 c 128,-1,28
 234 777 234 777 217.5 760.5 c 128,-1,29
 201 744 201 744 178 744 c 0,20,21
EndSplineSet
EndChar

StartChar: Eth
Encoding: 208 208 171
Width: 500
Flags: W
LayerCount: 2
Fore
SplineSet
166 75 m 1,0,1
 178 73 178 73 191 72 c 128,-1,2
 204 71 204 71 216 71 c 0,3,4
 261 71 261 71 296.5 85.5 c 128,-1,5
 332 100 332 100 356 132 c 128,-1,6
 380 164 380 164 393 214.5 c 128,-1,7
 406 265 406 265 406 335 c 0,8,9
 406 471 406 471 357 534.5 c 128,-1,10
 308 598 308 598 213 598 c 0,11,12
 186 598 186 598 166 595 c 1,13,-1
 166 383 l 1,14,-1
 272 383 l 1,15,-1
 272 314 l 1,16,-1
 166 314 l 1,17,-1
 166 75 l 1,0,1
497 335 m 0,18,19
 497 242 497 242 475 177 c 128,-1,20
 453 112 453 112 414.5 71.5 c 128,-1,21
 376 31 376 31 323 13 c 128,-1,22
 270 -5 270 -5 208 -5 c 0,23,24
 142 -5 142 -5 77 11 c 1,25,-1
 77 314 l 1,26,-1
 19 314 l 1,27,-1
 19 383 l 1,28,-1
 77 383 l 1,29,-1
 77 659 l 1,30,31
 143 675 143 675 208 675 c 0,32,33
 270 675 270 675 323 656.5 c 128,-1,34
 376 638 376 638 414.5 597 c 128,-1,35
 453 556 453 556 475 491.5 c 128,-1,36
 497 427 497 427 497 335 c 0,18,19
EndSplineSet
EndChar

StartChar: Ntilde
Encoding: 209 209 172
Width: 500
Flags: W
LayerCount: 2
Fore
SplineSet
390 0 m 1,0,1
 353 90 353 90 320.5 162.5 c 128,-1,2
 288 235 288 235 258.5 299 c 128,-1,3
 229 363 229 363 200 419.5 c 128,-1,4
 171 476 171 476 140 534 c 1,5,-1
 140 0 l 1,6,-1
 59 0 l 1,7,-1
 59 669 l 1,8,-1
 150 669 l 1,9,10
 194 588 194 588 227 527.5 c 128,-1,11
 260 467 260 467 287.5 410 c 128,-1,12
 315 353 315 353 341 293 c 128,-1,13
 367 233 367 233 400 154 c 1,14,-1
 400 669 l 1,15,-1
 481 669 l 1,16,-1
 481 0 l 1,17,-1
 390 0 l 1,0,1
419 836 m 1,18,19
 416 824 416 824 408 809 c 128,-1,20
 400 794 400 794 388 781 c 128,-1,21
 376 768 376 768 359.5 759 c 128,-1,22
 343 750 343 750 323 750 c 0,23,24
 309 750 309 750 290 757.5 c 128,-1,25
 271 765 271 765 259 770 c 1,26,27
 231 785 231 785 214 785 c 0,28,29
 200 785 200 785 187 771 c 128,-1,30
 174 757 174 757 167 742 c 1,31,-1
 121 767 l 1,32,33
 124 779 124 779 132 794 c 128,-1,34
 140 809 140 809 152 822 c 128,-1,35
 164 835 164 835 180.5 844 c 128,-1,36
 197 853 197 853 216 853 c 0,37,38
 230 853 230 853 249 845 c 128,-1,39
 268 837 268 837 280 832 c 1,40,41
 308 817 308 817 325 816 c 0,42,43
 339 816 339 816 352.5 830.5 c 128,-1,44
 366 845 366 845 373 860 c 1,45,-1
 419 836 l 1,18,19
EndSplineSet
EndChar

StartChar: Ograve
Encoding: 210 210 173
Width: 500
Flags: W
LayerCount: 2
Fore
SplineSet
122 335 m 128,-1,1
 122 203 122 203 157.5 133 c 128,-1,2
 193 63 193 63 268 63 c 0,3,4
 344 63 344 63 381.5 133 c 128,-1,5
 419 203 419 203 419 335 c 128,-1,6
 419 467 419 467 381 537 c 128,-1,7
 343 607 343 607 268 607 c 128,-1,8
 193 607 193 607 157.5 537 c 128,-1,0
 122 467 122 467 122 335 c 128,-1,1
31 334.5 m 128,-1,10
 31 424 31 424 48.5 490 c 128,-1,11
 66 556 66 556 97.5 599 c 128,-1,12
 129 642 129 642 172.5 663 c 128,-1,13
 216 684 216 684 270 684 c 0,14,15
 323 684 323 684 367 663 c 128,-1,16
 411 642 411 642 442.5 599 c 128,-1,17
 474 556 474 556 492 490 c 128,-1,18
 510 424 510 424 510 334.5 c 128,-1,19
 510 245 510 245 492 179 c 128,-1,20
 474 113 474 113 442.5 70 c 128,-1,21
 411 27 411 27 367 6.5 c 128,-1,22
 323 -14 323 -14 270 -14 c 0,23,24
 216 -14 216 -14 172.5 6.5 c 128,-1,25
 129 27 129 27 97.5 70 c 128,-1,26
 66 113 66 113 48.5 179 c 128,-1,9
 31 245 31 245 31 334.5 c 128,-1,10
239 896 m 1,27,-1
 362 747 l 1,28,-1
 316 707 l 1,29,-1
 181 839 l 1,30,-1
 239 896 l 1,27,-1
EndSplineSet
EndChar

StartChar: Oacute
Encoding: 211 211 174
Width: 500
Flags: W
LayerCount: 2
Fore
SplineSet
122 335 m 128,-1,1
 122 203 122 203 157.5 133 c 128,-1,2
 193 63 193 63 268 63 c 0,3,4
 344 63 344 63 381.5 133 c 128,-1,5
 419 203 419 203 419 335 c 128,-1,6
 419 467 419 467 381 537 c 128,-1,7
 343 607 343 607 268 607 c 128,-1,8
 193 607 193 607 157.5 537 c 128,-1,0
 122 467 122 467 122 335 c 128,-1,1
31 334.5 m 128,-1,10
 31 424 31 424 48.5 490 c 128,-1,11
 66 556 66 556 97.5 599 c 128,-1,12
 129 642 129 642 172.5 663 c 128,-1,13
 216 684 216 684 270 684 c 0,14,15
 323 684 323 684 367 663 c 128,-1,16
 411 642 411 642 442.5 599 c 128,-1,17
 474 556 474 556 492 490 c 128,-1,18
 510 424 510 424 510 334.5 c 128,-1,19
 510 245 510 245 492 179 c 128,-1,20
 474 113 474 113 442.5 70 c 128,-1,21
 411 27 411 27 367 6.5 c 128,-1,22
 323 -14 323 -14 270 -14 c 0,23,24
 216 -14 216 -14 172.5 6.5 c 128,-1,25
 129 27 129 27 97.5 70 c 128,-1,26
 66 113 66 113 48.5 179 c 128,-1,9
 31 245 31 245 31 334.5 c 128,-1,10
375 839 m 1,27,-1
 239 707 l 1,28,-1
 193 747 l 1,29,-1
 316 896 l 1,30,-1
 375 839 l 1,27,-1
EndSplineSet
EndChar

StartChar: Ocircumflex
Encoding: 212 212 175
Width: 500
Flags: W
LayerCount: 2
Fore
SplineSet
122 335 m 128,-1,1
 122 203 122 203 157.5 133 c 128,-1,2
 193 63 193 63 268 63 c 0,3,4
 344 63 344 63 381.5 133 c 128,-1,5
 419 203 419 203 419 335 c 128,-1,6
 419 467 419 467 381 537 c 128,-1,7
 343 607 343 607 268 607 c 128,-1,8
 193 607 193 607 157.5 537 c 128,-1,0
 122 467 122 467 122 335 c 128,-1,1
31 334.5 m 128,-1,10
 31 424 31 424 48.5 490 c 128,-1,11
 66 556 66 556 97.5 599 c 128,-1,12
 129 642 129 642 172.5 663 c 128,-1,13
 216 684 216 684 270 684 c 0,14,15
 323 684 323 684 367 663 c 128,-1,16
 411 642 411 642 442.5 599 c 128,-1,17
 474 556 474 556 492 490 c 128,-1,18
 510 424 510 424 510 334.5 c 128,-1,19
 510 245 510 245 492 179 c 128,-1,20
 474 113 474 113 442.5 70 c 128,-1,21
 411 27 411 27 367 6.5 c 128,-1,22
 323 -14 323 -14 270 -14 c 0,23,24
 216 -14 216 -14 172.5 6.5 c 128,-1,25
 129 27 129 27 97.5 70 c 128,-1,26
 66 113 66 113 48.5 179 c 128,-1,9
 31 245 31 245 31 334.5 c 128,-1,10
270 892 m 1,27,-1
 401 754 l 1,28,-1
 364 712 l 1,29,-1
 270 796 l 1,30,-1
 176 712 l 1,31,-1
 139 754 l 1,32,-1
 270 892 l 1,27,-1
EndSplineSet
EndChar

StartChar: Otilde
Encoding: 213 213 176
Width: 500
Flags: W
LayerCount: 2
Fore
SplineSet
122 335 m 128,-1,1
 122 203 122 203 157.5 133 c 128,-1,2
 193 63 193 63 268 63 c 0,3,4
 344 63 344 63 381.5 133 c 128,-1,5
 419 203 419 203 419 335 c 128,-1,6
 419 467 419 467 381 537 c 128,-1,7
 343 607 343 607 268 607 c 128,-1,8
 193 607 193 607 157.5 537 c 128,-1,0
 122 467 122 467 122 335 c 128,-1,1
31 334.5 m 128,-1,10
 31 424 31 424 48.5 490 c 128,-1,11
 66 556 66 556 97.5 599 c 128,-1,12
 129 642 129 642 172.5 663 c 128,-1,13
 216 684 216 684 270 684 c 0,14,15
 323 684 323 684 367 663 c 128,-1,16
 411 642 411 642 442.5 599 c 128,-1,17
 474 556 474 556 492 490 c 128,-1,18
 510 424 510 424 510 334.5 c 128,-1,19
 510 245 510 245 492 179 c 128,-1,20
 474 113 474 113 442.5 70 c 128,-1,21
 411 27 411 27 367 6.5 c 128,-1,22
 323 -14 323 -14 270 -14 c 0,23,24
 216 -14 216 -14 172.5 6.5 c 128,-1,25
 129 27 129 27 97.5 70 c 128,-1,26
 66 113 66 113 48.5 179 c 128,-1,9
 31 245 31 245 31 334.5 c 128,-1,10
419 836 m 1,27,28
 416 824 416 824 408 809 c 128,-1,29
 400 794 400 794 388 781 c 128,-1,30
 376 768 376 768 359.5 759 c 128,-1,31
 343 750 343 750 323 750 c 0,32,33
 309 750 309 750 290 757.5 c 128,-1,34
 271 765 271 765 259 770 c 1,35,36
 231 785 231 785 214 785 c 0,37,38
 200 785 200 785 187 771 c 128,-1,39
 174 757 174 757 167 742 c 1,40,-1
 121 767 l 1,41,42
 124 779 124 779 132 794 c 128,-1,43
 140 809 140 809 152 822 c 128,-1,44
 164 835 164 835 180.5 844 c 128,-1,45
 197 853 197 853 216 853 c 0,46,47
 230 853 230 853 249 845 c 128,-1,48
 268 837 268 837 280 832 c 1,49,50
 308 817 308 817 325 816 c 0,51,52
 339 816 339 816 352.5 830.5 c 128,-1,53
 366 845 366 845 373 860 c 1,54,-1
 419 836 l 1,27,28
EndSplineSet
EndChar

StartChar: Odieresis
Encoding: 214 214 177
Width: 500
Flags: W
LayerCount: 2
Fore
SplineSet
122 335 m 128,-1,1
 122 203 122 203 157.5 133 c 128,-1,2
 193 63 193 63 268 63 c 0,3,4
 344 63 344 63 381.5 133 c 128,-1,5
 419 203 419 203 419 335 c 128,-1,6
 419 467 419 467 381 537 c 128,-1,7
 343 607 343 607 268 607 c 128,-1,8
 193 607 193 607 157.5 537 c 128,-1,0
 122 467 122 467 122 335 c 128,-1,1
31 334.5 m 128,-1,10
 31 424 31 424 48.5 490 c 128,-1,11
 66 556 66 556 97.5 599 c 128,-1,12
 129 642 129 642 172.5 663 c 128,-1,13
 216 684 216 684 270 684 c 0,14,15
 323 684 323 684 367 663 c 128,-1,16
 411 642 411 642 442.5 599 c 128,-1,17
 474 556 474 556 492 490 c 128,-1,18
 510 424 510 424 510 334.5 c 128,-1,19
 510 245 510 245 492 179 c 128,-1,20
 474 113 474 113 442.5 70 c 128,-1,21
 411 27 411 27 367 6.5 c 128,-1,22
 323 -14 323 -14 270 -14 c 0,23,24
 216 -14 216 -14 172.5 6.5 c 128,-1,25
 129 27 129 27 97.5 70 c 128,-1,26
 66 113 66 113 48.5 179 c 128,-1,9
 31 245 31 245 31 334.5 c 128,-1,10
361.5 744 m 128,-1,28
 339 744 339 744 322.5 760.5 c 128,-1,29
 306 777 306 777 306 801.5 c 128,-1,30
 306 826 306 826 322.5 842 c 128,-1,31
 339 858 339 858 361.5 858 c 128,-1,32
 384 858 384 858 401 842 c 128,-1,33
 418 826 418 826 418 801.5 c 128,-1,34
 418 777 418 777 401 760.5 c 128,-1,27
 384 744 384 744 361.5 744 c 128,-1,28
178 744 m 0,35,36
 156 744 156 744 139 760.5 c 128,-1,37
 122 777 122 777 122 801.5 c 128,-1,38
 122 826 122 826 139.5 842 c 128,-1,39
 157 858 157 858 178 858 c 0,40,41
 201 858 201 858 217.5 842 c 128,-1,42
 234 826 234 826 234 801.5 c 128,-1,43
 234 777 234 777 217.5 760.5 c 128,-1,44
 201 744 201 744 178 744 c 0,35,36
EndSplineSet
EndChar

StartChar: multiply
Encoding: 215 215 178
Width: 500
Flags: W
LayerCount: 2
Fore
SplineSet
410 89 m 1,0,-1
 270 230 l 1,1,-1
 130 89 l 1,2,-1
 76 143 l 1,3,-1
 216 284 l 1,4,-1
 76 424 l 1,5,-1
 130 478 l 1,6,-1
 270 338 l 1,7,-1
 410 478 l 1,8,-1
 464 424 l 1,9,-1
 324 284 l 1,10,-1
 464 143 l 1,11,-1
 410 89 l 1,0,-1
EndSplineSet
EndChar

StartChar: Oslash
Encoding: 216 216 179
Width: 500
Flags: W
LayerCount: 2
Fore
SplineSet
122 335 m 0,0,1
 122 283 122 283 125.5 238 c 128,-1,2
 129 193 129 193 140 160 c 1,3,-1
 346 583 l 1,4,5
 330 596 330 596 310.5 601.5 c 128,-1,6
 291 607 291 607 268 607 c 0,7,8
 193 607 193 607 157.5 537 c 128,-1,9
 122 467 122 467 122 335 c 0,0,1
419 335 m 0,10,11
 419 389 419 389 413 434.5 c 128,-1,12
 407 480 407 480 394 513 c 1,13,-1
 188 87 l 1,14,15
 204 73 204 73 225 68 c 128,-1,16
 246 63 246 63 268 63 c 0,17,18
 344 63 344 63 381.5 133 c 128,-1,19
 419 203 419 203 419 335 c 0,10,11
31 335 m 0,20,21
 31 425 31 425 48.5 490.5 c 128,-1,22
 66 556 66 556 97.5 599 c 128,-1,23
 129 642 129 642 172.5 663 c 128,-1,24
 216 684 216 684 270 684 c 0,25,26
 330 684 330 684 381 654 c 1,27,-1
 404 703 l 1,28,-1
 471 670 l 1,29,-1
 438 604 l 1,30,31
 471 560 471 560 490.5 493.5 c 128,-1,32
 510 427 510 427 510 335 c 0,33,34
 510 245 510 245 492 179 c 128,-1,35
 474 113 474 113 442.5 70 c 128,-1,36
 411 27 411 27 367 6.5 c 128,-1,37
 323 -14 323 -14 270 -14 c 0,38,39
 203 -14 203 -14 153 16 c 1,40,-1
 129 -36 l 1,41,-1
 63 -2 l 1,42,-1
 97 69 l 1,43,44
 65 112 65 112 48 177.5 c 128,-1,45
 31 243 31 243 31 335 c 0,20,21
EndSplineSet
EndChar

StartChar: Ugrave
Encoding: 217 217 180
Width: 500
Flags: W
LayerCount: 2
Fore
SplineSet
270 -14 m 128,-1,1
 211 -14 211 -14 169 3.5 c 128,-1,2
 127 21 127 21 101.5 52 c 128,-1,3
 76 83 76 83 64 128.5 c 128,-1,4
 52 174 52 174 52 230 c 2,5,-1
 52 669 l 1,6,-1
 140 669 l 1,7,-1
 140 240 l 2,8,9
 140 189 140 189 149.5 155 c 128,-1,10
 159 121 159 121 175.5 100.5 c 128,-1,11
 192 80 192 80 216 71.5 c 128,-1,12
 240 63 240 63 270 63 c 128,-1,13
 300 63 300 63 324 71.5 c 128,-1,14
 348 80 348 80 364.5 100.5 c 128,-1,15
 381 121 381 121 390.5 155 c 128,-1,16
 400 189 400 189 400 240 c 2,17,-1
 400 669 l 1,18,-1
 488 669 l 1,19,-1
 488 230 l 2,20,21
 488 174 488 174 476 128.5 c 128,-1,22
 464 83 464 83 438.5 52 c 128,-1,23
 413 21 413 21 371 3.5 c 128,-1,0
 329 -14 329 -14 270 -14 c 128,-1,1
233 896 m 1,24,-1
 356 747 l 1,25,-1
 311 707 l 1,26,-1
 176 839 l 1,27,-1
 233 896 l 1,24,-1
EndSplineSet
EndChar

StartChar: Uacute
Encoding: 218 218 181
Width: 500
Flags: W
LayerCount: 2
Fore
SplineSet
270 -14 m 128,-1,1
 211 -14 211 -14 169 3.5 c 128,-1,2
 127 21 127 21 101.5 52 c 128,-1,3
 76 83 76 83 64 128.5 c 128,-1,4
 52 174 52 174 52 230 c 2,5,-1
 52 669 l 1,6,-1
 140 669 l 1,7,-1
 140 240 l 2,8,9
 140 189 140 189 149.5 155 c 128,-1,10
 159 121 159 121 175.5 100.5 c 128,-1,11
 192 80 192 80 216 71.5 c 128,-1,12
 240 63 240 63 270 63 c 128,-1,13
 300 63 300 63 324 71.5 c 128,-1,14
 348 80 348 80 364.5 100.5 c 128,-1,15
 381 121 381 121 390.5 155 c 128,-1,16
 400 189 400 189 400 240 c 2,17,-1
 400 669 l 1,18,-1
 488 669 l 1,19,-1
 488 230 l 2,20,21
 488 174 488 174 476 128.5 c 128,-1,22
 464 83 464 83 438.5 52 c 128,-1,23
 413 21 413 21 371 3.5 c 128,-1,0
 329 -14 329 -14 270 -14 c 128,-1,1
375 839 m 1,24,-1
 239 707 l 1,25,-1
 193 747 l 1,26,-1
 316 896 l 1,27,-1
 375 839 l 1,24,-1
EndSplineSet
EndChar

StartChar: Ucircumflex
Encoding: 219 219 182
Width: 500
Flags: W
LayerCount: 2
Fore
SplineSet
270 -14 m 128,-1,1
 211 -14 211 -14 169 3.5 c 128,-1,2
 127 21 127 21 101.5 52 c 128,-1,3
 76 83 76 83 64 128.5 c 128,-1,4
 52 174 52 174 52 230 c 2,5,-1
 52 669 l 1,6,-1
 140 669 l 1,7,-1
 140 240 l 2,8,9
 140 189 140 189 149.5 155 c 128,-1,10
 159 121 159 121 175.5 100.5 c 128,-1,11
 192 80 192 80 216 71.5 c 128,-1,12
 240 63 240 63 270 63 c 128,-1,13
 300 63 300 63 324 71.5 c 128,-1,14
 348 80 348 80 364.5 100.5 c 128,-1,15
 381 121 381 121 390.5 155 c 128,-1,16
 400 189 400 189 400 240 c 2,17,-1
 400 669 l 1,18,-1
 488 669 l 1,19,-1
 488 230 l 2,20,21
 488 174 488 174 476 128.5 c 128,-1,22
 464 83 464 83 438.5 52 c 128,-1,23
 413 21 413 21 371 3.5 c 128,-1,0
 329 -14 329 -14 270 -14 c 128,-1,1
270 892 m 1,24,-1
 401 754 l 1,25,-1
 364 712 l 1,26,-1
 270 796 l 1,27,-1
 176 712 l 1,28,-1
 139 754 l 1,29,-1
 270 892 l 1,24,-1
EndSplineSet
EndChar

StartChar: Udieresis
Encoding: 220 220 183
Width: 500
Flags: W
LayerCount: 2
Fore
SplineSet
270 -14 m 128,-1,1
 211 -14 211 -14 169 3.5 c 128,-1,2
 127 21 127 21 101.5 52 c 128,-1,3
 76 83 76 83 64 128.5 c 128,-1,4
 52 174 52 174 52 230 c 2,5,-1
 52 669 l 1,6,-1
 140 669 l 1,7,-1
 140 240 l 2,8,9
 140 189 140 189 149.5 155 c 128,-1,10
 159 121 159 121 175.5 100.5 c 128,-1,11
 192 80 192 80 216 71.5 c 128,-1,12
 240 63 240 63 270 63 c 128,-1,13
 300 63 300 63 324 71.5 c 128,-1,14
 348 80 348 80 364.5 100.5 c 128,-1,15
 381 121 381 121 390.5 155 c 128,-1,16
 400 189 400 189 400 240 c 2,17,-1
 400 669 l 1,18,-1
 488 669 l 1,19,-1
 488 230 l 2,20,21
 488 174 488 174 476 128.5 c 128,-1,22
 464 83 464 83 438.5 52 c 128,-1,23
 413 21 413 21 371 3.5 c 128,-1,0
 329 -14 329 -14 270 -14 c 128,-1,1
361.5 744 m 128,-1,25
 339 744 339 744 322.5 760.5 c 128,-1,26
 306 777 306 777 306 801.5 c 128,-1,27
 306 826 306 826 322.5 842 c 128,-1,28
 339 858 339 858 361.5 858 c 128,-1,29
 384 858 384 858 401 842 c 128,-1,30
 418 826 418 826 418 801.5 c 128,-1,31
 418 777 418 777 401 760.5 c 128,-1,24
 384 744 384 744 361.5 744 c 128,-1,25
178 744 m 0,32,33
 156 744 156 744 139 760.5 c 128,-1,34
 122 777 122 777 122 801.5 c 128,-1,35
 122 826 122 826 139.5 842 c 128,-1,36
 157 858 157 858 178 858 c 0,37,38
 201 858 201 858 217.5 842 c 128,-1,39
 234 826 234 826 234 801.5 c 128,-1,40
 234 777 234 777 217.5 760.5 c 128,-1,41
 201 744 201 744 178 744 c 0,32,33
EndSplineSet
EndChar

StartChar: Yacute
Encoding: 221 221 184
Width: 500
Flags: W
LayerCount: 2
Fore
SplineSet
227 0 m 1,0,-1
 227 248 l 1,1,2
 161 356 161 356 107.5 459 c 128,-1,3
 54 562 54 562 14 669 c 1,4,-1
 113 669 l 1,5,6
 144 578 144 578 185 495.5 c 128,-1,7
 226 413 226 413 272 325 c 1,8,9
 322 417 322 417 360.5 499.5 c 128,-1,10
 399 582 399 582 430 669 c 1,11,-1
 527 669 l 1,12,13
 486 563 486 563 433 462.5 c 128,-1,14
 380 362 380 362 315 251 c 1,15,-1
 315 0 l 1,16,-1
 227 0 l 1,0,-1
375 839 m 1,17,-1
 239 707 l 1,18,-1
 193 747 l 1,19,-1
 316 896 l 1,20,-1
 375 839 l 1,17,-1
EndSplineSet
EndChar

StartChar: Thorn
Encoding: 222 222 185
Width: 500
Flags: W
LayerCount: 2
Fore
SplineSet
247 483 m 0,0,1
 220 483 220 483 201.5 483 c 128,-1,2
 183 483 183 483 167 482 c 1,3,-1
 167 213 l 1,4,-1
 230 213 l 2,5,6
 268 213 268 213 299 220 c 128,-1,7
 330 227 330 227 353 244 c 128,-1,8
 376 261 376 261 388.5 290 c 128,-1,9
 401 319 401 319 401 363 c 0,10,11
 401 399 401 399 387.5 422 c 128,-1,12
 374 445 374 445 352 458.5 c 128,-1,13
 330 472 330 472 302.5 477.5 c 128,-1,14
 275 483 275 483 247 483 c 0,0,1
79 669 m 1,15,-1
 167 669 l 1,16,-1
 167 557 l 1,17,18
 200 560 200 560 233 561 c 1,19,20
 357 561 357 561 424 511.5 c 128,-1,21
 491 462 491 462 491 367 c 0,22,23
 491 303 491 303 472.5 260 c 128,-1,24
 454 217 454 217 419 189.5 c 128,-1,25
 384 162 384 162 335 150 c 128,-1,26
 286 138 286 138 227 138 c 2,27,-1
 167 138 l 1,28,-1
 167 0 l 1,29,-1
 79 0 l 1,30,-1
 79 669 l 1,15,-1
EndSplineSet
EndChar

StartChar: germandbls
Encoding: 223 223 186
Width: 500
Flags: W
LayerCount: 2
Fore
SplineSet
432 594 m 0,0,1
 432 568 432 568 424 546.5 c 128,-1,2
 416 525 416 525 404 507 c 128,-1,3
 392 489 392 489 377 474 c 128,-1,4
 362 459 362 459 349 445 c 0,5,6
 334 428 334 428 327 416.5 c 128,-1,7
 320 405 320 405 320 389 c 0,8,9
 320 367 320 367 334.5 353 c 128,-1,10
 349 339 349 339 370.5 326.5 c 128,-1,11
 392 314 392 314 417 301 c 128,-1,12
 442 288 442 288 463.5 269.5 c 128,-1,13
 485 251 485 251 499.5 223 c 128,-1,14
 514 195 514 195 514 153 c 0,15,16
 514 71 514 71 470 29.5 c 128,-1,17
 426 -12 426 -12 332 -12 c 0,18,19
 315 -12 315 -12 297 -8.5 c 128,-1,20
 279 -5 279 -5 263 -1 c 128,-1,21
 247 3 247 3 236 7.5 c 128,-1,22
 225 12 225 12 219 15 c 1,23,-1
 234 94 l 1,24,25
 239 91 239 91 250 86 c 128,-1,26
 261 81 261 81 275 76 c 128,-1,27
 289 71 289 71 305.5 68 c 128,-1,28
 322 65 322 65 338 65 c 0,29,30
 382 65 382 65 402.5 86.5 c 128,-1,31
 423 108 423 108 423 149 c 0,32,33
 423 178 423 178 408.5 197 c 128,-1,34
 394 216 394 216 372.5 230.5 c 128,-1,35
 351 245 351 245 325 257.5 c 128,-1,36
 299 270 299 270 277.5 285.5 c 128,-1,37
 256 301 256 301 241.5 322 c 128,-1,38
 227 343 227 343 227 376 c 0,39,40
 227 415 227 415 243 441 c 128,-1,41
 259 467 259 467 284 491 c 0,42,43
 307 513 307 513 324.5 534.5 c 128,-1,44
 342 556 342 556 342 581 c 0,45,46
 342 622 342 622 322.5 646.5 c 128,-1,47
 303 671 303 671 260 671 c 0,48,49
 215 671 215 671 190.5 634 c 128,-1,50
 166 597 166 597 166 532 c 2,51,-1
 166 0 l 1,52,-1
 77 0 l 1,53,-1
 77 535 l 2,54,55
 77 583 77 583 89.5 622 c 128,-1,56
 102 661 102 661 124.5 689 c 128,-1,57
 147 717 147 717 180 732.5 c 128,-1,58
 213 748 213 748 254 748 c 0,59,60
 304 748 304 748 338.5 736 c 128,-1,61
 373 724 373 724 393.5 702 c 128,-1,62
 414 680 414 680 423 652 c 128,-1,63
 432 624 432 624 432 594 c 0,0,1
EndSplineSet
EndChar

StartChar: agrave
Encoding: 224 224 187
Width: 500
Flags: W
LayerCount: 2
Fore
SplineSet
267 513 m 0,0,1
 323 513 323 513 361.5 499 c 128,-1,2
 400 485 400 485 423.5 460 c 128,-1,3
 447 435 447 435 457 399.5 c 128,-1,4
 467 364 467 364 467 322 c 2,5,-1
 467 9 l 1,6,7
 436 4 436 4 384.5 -4 c 128,-1,8
 333 -12 333 -12 279 -12 c 0,9,10
 238 -12 238 -12 199 -5 c 128,-1,11
 160 2 160 2 129.5 20 c 128,-1,12
 99 38 99 38 81 69 c 128,-1,13
 63 100 63 100 63 149 c 0,14,15
 63 192 63 192 81.5 222 c 128,-1,16
 100 252 100 252 130 270 c 128,-1,17
 160 288 160 288 198.5 296.5 c 128,-1,18
 237 305 237 305 275 305 c 0,19,20
 328 305 328 305 379 293 c 1,21,-1
 379 318 l 2,22,23
 379 341 379 341 374 361.5 c 128,-1,24
 369 382 369 382 355.5 399.5 c 128,-1,25
 342 417 342 417 319 427 c 128,-1,26
 296 437 296 437 259 437 c 0,27,28
 213 437 213 437 178.5 430.5 c 128,-1,29
 144 424 144 424 125 418 c 1,30,-1
 114 491 l 1,31,32
 132 500 132 500 175 506.5 c 128,-1,33
 218 513 218 513 267 513 c 0,0,1
275 64 m 0,34,35
 308 64 308 64 335 66 c 128,-1,36
 362 68 362 68 379 71 c 1,37,-1
 379 220 l 1,38,39
 362 225 362 225 337.5 228.5 c 128,-1,40
 313 232 313 232 286 232 c 0,41,42
 261 232 261 232 237.5 228.5 c 128,-1,43
 214 225 214 225 195.5 215 c 128,-1,44
 177 205 177 205 165 189.5 c 128,-1,45
 153 174 153 174 153 150 c 0,46,47
 153 101 153 101 186 82.5 c 128,-1,48
 219 64 219 64 275 64 c 0,34,35
233 748 m 1,49,-1
 356 599 l 1,50,-1
 311 559 l 1,51,-1
 176 691 l 1,52,-1
 233 748 l 1,49,-1
EndSplineSet
Substitution2: "'case' +WSdlh1tXfUQwf3UoMGuKv2V0MFcwX1tXX2IA lookup 18 +MLUw1jDGMPww1jDr" Agrave
EndChar

StartChar: aacute
Encoding: 225 225 188
Width: 500
Flags: W
LayerCount: 2
Fore
SplineSet
267 513 m 0,0,1
 323 513 323 513 361.5 499 c 128,-1,2
 400 485 400 485 423.5 460 c 128,-1,3
 447 435 447 435 457 399.5 c 128,-1,4
 467 364 467 364 467 322 c 2,5,-1
 467 9 l 1,6,7
 436 4 436 4 384.5 -4 c 128,-1,8
 333 -12 333 -12 279 -12 c 0,9,10
 238 -12 238 -12 199 -5 c 128,-1,11
 160 2 160 2 129.5 20 c 128,-1,12
 99 38 99 38 81 69 c 128,-1,13
 63 100 63 100 63 149 c 0,14,15
 63 192 63 192 81.5 222 c 128,-1,16
 100 252 100 252 130 270 c 128,-1,17
 160 288 160 288 198.5 296.5 c 128,-1,18
 237 305 237 305 275 305 c 0,19,20
 328 305 328 305 379 293 c 1,21,-1
 379 318 l 2,22,23
 379 341 379 341 374 361.5 c 128,-1,24
 369 382 369 382 355.5 399.5 c 128,-1,25
 342 417 342 417 319 427 c 128,-1,26
 296 437 296 437 259 437 c 0,27,28
 213 437 213 437 178.5 430.5 c 128,-1,29
 144 424 144 424 125 418 c 1,30,-1
 114 491 l 1,31,32
 132 500 132 500 175 506.5 c 128,-1,33
 218 513 218 513 267 513 c 0,0,1
275 64 m 0,34,35
 308 64 308 64 335 66 c 128,-1,36
 362 68 362 68 379 71 c 1,37,-1
 379 220 l 1,38,39
 362 225 362 225 337.5 228.5 c 128,-1,40
 313 232 313 232 286 232 c 0,41,42
 261 232 261 232 237.5 228.5 c 128,-1,43
 214 225 214 225 195.5 215 c 128,-1,44
 177 205 177 205 165 189.5 c 128,-1,45
 153 174 153 174 153 150 c 0,46,47
 153 101 153 101 186 82.5 c 128,-1,48
 219 64 219 64 275 64 c 0,34,35
384 691 m 1,49,-1
 248 559 l 1,50,-1
 203 599 l 1,51,-1
 326 748 l 1,52,-1
 384 691 l 1,49,-1
EndSplineSet
Substitution2: "'case' +WSdlh1tXfUQwf3UoMGuKv2V0MFcwX1tXX2IA lookup 18 +MLUw1jDGMPww1jDr" Aacute
EndChar

StartChar: acircumflex
Encoding: 226 226 189
Width: 500
Flags: W
LayerCount: 2
Fore
SplineSet
267 513 m 0,0,1
 323 513 323 513 361.5 499 c 128,-1,2
 400 485 400 485 423.5 460 c 128,-1,3
 447 435 447 435 457 399.5 c 128,-1,4
 467 364 467 364 467 322 c 2,5,-1
 467 9 l 1,6,7
 436 4 436 4 384.5 -4 c 128,-1,8
 333 -12 333 -12 279 -12 c 0,9,10
 238 -12 238 -12 199 -5 c 128,-1,11
 160 2 160 2 129.5 20 c 128,-1,12
 99 38 99 38 81 69 c 128,-1,13
 63 100 63 100 63 149 c 0,14,15
 63 192 63 192 81.5 222 c 128,-1,16
 100 252 100 252 130 270 c 128,-1,17
 160 288 160 288 198.5 296.5 c 128,-1,18
 237 305 237 305 275 305 c 0,19,20
 328 305 328 305 379 293 c 1,21,-1
 379 318 l 2,22,23
 379 341 379 341 374 361.5 c 128,-1,24
 369 382 369 382 355.5 399.5 c 128,-1,25
 342 417 342 417 319 427 c 128,-1,26
 296 437 296 437 259 437 c 0,27,28
 213 437 213 437 178.5 430.5 c 128,-1,29
 144 424 144 424 125 418 c 1,30,-1
 114 491 l 1,31,32
 132 500 132 500 175 506.5 c 128,-1,33
 218 513 218 513 267 513 c 0,0,1
275 64 m 0,34,35
 308 64 308 64 335 66 c 128,-1,36
 362 68 362 68 379 71 c 1,37,-1
 379 220 l 1,38,39
 362 225 362 225 337.5 228.5 c 128,-1,40
 313 232 313 232 286 232 c 0,41,42
 261 232 261 232 237.5 228.5 c 128,-1,43
 214 225 214 225 195.5 215 c 128,-1,44
 177 205 177 205 165 189.5 c 128,-1,45
 153 174 153 174 153 150 c 0,46,47
 153 101 153 101 186 82.5 c 128,-1,48
 219 64 219 64 275 64 c 0,34,35
280 742 m 1,49,-1
 410 604 l 1,50,-1
 374 562 l 1,51,-1
 280 646 l 1,52,-1
 186 562 l 1,53,-1
 149 604 l 1,54,-1
 280 742 l 1,49,-1
EndSplineSet
Substitution2: "'case' +WSdlh1tXfUQwf3UoMGuKv2V0MFcwX1tXX2IA lookup 18 +MLUw1jDGMPww1jDr" Acircumflex
EndChar

StartChar: atilde
Encoding: 227 227 190
Width: 500
Flags: W
LayerCount: 2
Fore
SplineSet
267 513 m 0,0,1
 323 513 323 513 361.5 499 c 128,-1,2
 400 485 400 485 423.5 460 c 128,-1,3
 447 435 447 435 457 399.5 c 128,-1,4
 467 364 467 364 467 322 c 2,5,-1
 467 9 l 1,6,7
 436 4 436 4 384.5 -4 c 128,-1,8
 333 -12 333 -12 279 -12 c 0,9,10
 238 -12 238 -12 199 -5 c 128,-1,11
 160 2 160 2 129.5 20 c 128,-1,12
 99 38 99 38 81 69 c 128,-1,13
 63 100 63 100 63 149 c 0,14,15
 63 192 63 192 81.5 222 c 128,-1,16
 100 252 100 252 130 270 c 128,-1,17
 160 288 160 288 198.5 296.5 c 128,-1,18
 237 305 237 305 275 305 c 0,19,20
 328 305 328 305 379 293 c 1,21,-1
 379 318 l 2,22,23
 379 341 379 341 374 361.5 c 128,-1,24
 369 382 369 382 355.5 399.5 c 128,-1,25
 342 417 342 417 319 427 c 128,-1,26
 296 437 296 437 259 437 c 0,27,28
 213 437 213 437 178.5 430.5 c 128,-1,29
 144 424 144 424 125 418 c 1,30,-1
 114 491 l 1,31,32
 132 500 132 500 175 506.5 c 128,-1,33
 218 513 218 513 267 513 c 0,0,1
275 64 m 0,34,35
 308 64 308 64 335 66 c 128,-1,36
 362 68 362 68 379 71 c 1,37,-1
 379 220 l 1,38,39
 362 225 362 225 337.5 228.5 c 128,-1,40
 313 232 313 232 286 232 c 0,41,42
 261 232 261 232 237.5 228.5 c 128,-1,43
 214 225 214 225 195.5 215 c 128,-1,44
 177 205 177 205 165 189.5 c 128,-1,45
 153 174 153 174 153 150 c 0,46,47
 153 101 153 101 186 82.5 c 128,-1,48
 219 64 219 64 275 64 c 0,34,35
419 686 m 1,49,50
 416 674 416 674 408 659 c 128,-1,51
 400 644 400 644 388 631 c 128,-1,52
 376 618 376 618 359.5 608.5 c 128,-1,53
 343 599 343 599 323 599 c 0,54,55
 309 599 309 599 290 607 c 128,-1,56
 271 615 271 615 259 620 c 1,57,58
 231 635 231 635 214 635 c 0,59,60
 200 635 200 635 187 621 c 128,-1,61
 174 607 174 607 167 592 c 1,62,-1
 121 617 l 1,63,64
 124 629 124 629 132 644 c 128,-1,65
 140 659 140 659 152 672 c 128,-1,66
 164 685 164 685 180.5 694 c 128,-1,67
 197 703 197 703 216 703 c 0,68,69
 230 703 230 703 249 695 c 128,-1,70
 268 687 268 687 280 681 c 0,71,72
 308 666 308 666 325 666 c 0,73,74
 339 666 339 666 352.5 680 c 128,-1,75
 366 694 366 694 373 710 c 1,76,-1
 419 686 l 1,49,50
EndSplineSet
Substitution2: "'case' +WSdlh1tXfUQwf3UoMGuKv2V0MFcwX1tXX2IA lookup 18 +MLUw1jDGMPww1jDr" Atilde
EndChar

StartChar: adieresis
Encoding: 228 228 191
Width: 500
Flags: W
LayerCount: 2
Fore
SplineSet
267 513 m 0,0,1
 323 513 323 513 361.5 499 c 128,-1,2
 400 485 400 485 423.5 460 c 128,-1,3
 447 435 447 435 457 399.5 c 128,-1,4
 467 364 467 364 467 322 c 2,5,-1
 467 9 l 1,6,7
 436 4 436 4 384.5 -4 c 128,-1,8
 333 -12 333 -12 279 -12 c 0,9,10
 238 -12 238 -12 199 -5 c 128,-1,11
 160 2 160 2 129.5 20 c 128,-1,12
 99 38 99 38 81 69 c 128,-1,13
 63 100 63 100 63 149 c 0,14,15
 63 192 63 192 81.5 222 c 128,-1,16
 100 252 100 252 130 270 c 128,-1,17
 160 288 160 288 198.5 296.5 c 128,-1,18
 237 305 237 305 275 305 c 0,19,20
 328 305 328 305 379 293 c 1,21,-1
 379 318 l 2,22,23
 379 341 379 341 374 361.5 c 128,-1,24
 369 382 369 382 355.5 399.5 c 128,-1,25
 342 417 342 417 319 427 c 128,-1,26
 296 437 296 437 259 437 c 0,27,28
 213 437 213 437 178.5 430.5 c 128,-1,29
 144 424 144 424 125 418 c 1,30,-1
 114 491 l 1,31,32
 132 500 132 500 175 506.5 c 128,-1,33
 218 513 218 513 267 513 c 0,0,1
275 64 m 0,34,35
 308 64 308 64 335 66 c 128,-1,36
 362 68 362 68 379 71 c 1,37,-1
 379 220 l 1,38,39
 362 225 362 225 337.5 228.5 c 128,-1,40
 313 232 313 232 286 232 c 0,41,42
 261 232 261 232 237.5 228.5 c 128,-1,43
 214 225 214 225 195.5 215 c 128,-1,44
 177 205 177 205 165 189.5 c 128,-1,45
 153 174 153 174 153 150 c 0,46,47
 153 101 153 101 186 82.5 c 128,-1,48
 219 64 219 64 275 64 c 0,34,35
361.5 594 m 128,-1,50
 339 594 339 594 322.5 610 c 128,-1,51
 306 626 306 626 306 651 c 128,-1,52
 306 676 306 676 322.5 691.5 c 128,-1,53
 339 707 339 707 361.5 707 c 128,-1,54
 384 707 384 707 401 691.5 c 128,-1,55
 418 676 418 676 418 651 c 128,-1,56
 418 626 418 626 401 610 c 128,-1,49
 384 594 384 594 361.5 594 c 128,-1,50
178 594 m 0,57,58
 156 594 156 594 139 610 c 128,-1,59
 122 626 122 626 122 651 c 128,-1,60
 122 676 122 676 139.5 691.5 c 128,-1,61
 157 707 157 707 178 707 c 0,62,63
 201 707 201 707 217.5 691.5 c 128,-1,64
 234 676 234 676 234 651 c 128,-1,65
 234 626 234 626 217.5 610 c 128,-1,66
 201 594 201 594 178 594 c 0,57,58
EndSplineSet
Substitution2: "'case' +WSdlh1tXfUQwf3UoMGuKv2V0MFcwX1tXX2IA lookup 18 +MLUw1jDGMPww1jDr" Adieresis
EndChar

StartChar: aring
Encoding: 229 229 192
Width: 500
Flags: W
LayerCount: 2
Fore
SplineSet
267 513 m 0,0,1
 323 513 323 513 361.5 499 c 128,-1,2
 400 485 400 485 423.5 460 c 128,-1,3
 447 435 447 435 457 399.5 c 128,-1,4
 467 364 467 364 467 322 c 2,5,-1
 467 9 l 1,6,7
 436 4 436 4 384.5 -4 c 128,-1,8
 333 -12 333 -12 279 -12 c 0,9,10
 238 -12 238 -12 199 -5 c 128,-1,11
 160 2 160 2 129.5 20 c 128,-1,12
 99 38 99 38 81 69 c 128,-1,13
 63 100 63 100 63 149 c 0,14,15
 63 192 63 192 81.5 222 c 128,-1,16
 100 252 100 252 130 270 c 128,-1,17
 160 288 160 288 198.5 296.5 c 128,-1,18
 237 305 237 305 275 305 c 0,19,20
 328 305 328 305 379 293 c 1,21,-1
 379 318 l 2,22,23
 379 341 379 341 374 361.5 c 128,-1,24
 369 382 369 382 355.5 399.5 c 128,-1,25
 342 417 342 417 319 427 c 128,-1,26
 296 437 296 437 259 437 c 0,27,28
 213 437 213 437 178.5 430.5 c 128,-1,29
 144 424 144 424 125 418 c 1,30,-1
 114 491 l 1,31,32
 132 500 132 500 175 506.5 c 128,-1,33
 218 513 218 513 267 513 c 0,0,1
275 64 m 0,34,35
 308 64 308 64 335 66 c 128,-1,36
 362 68 362 68 379 71 c 1,37,-1
 379 220 l 1,38,39
 362 225 362 225 337.5 228.5 c 128,-1,40
 313 232 313 232 286 232 c 0,41,42
 261 232 261 232 237.5 228.5 c 128,-1,43
 214 225 214 225 195.5 215 c 128,-1,44
 177 205 177 205 165 189.5 c 128,-1,45
 153 174 153 174 153 150 c 0,46,47
 153 101 153 101 186 82.5 c 128,-1,48
 219 64 219 64 275 64 c 0,34,35
321 653 m 0,49,50
 321 678 321 678 306.5 692 c 128,-1,51
 292 706 292 706 270 706 c 128,-1,52
 248 706 248 706 233.5 692 c 128,-1,53
 219 678 219 678 219 653 c 0,54,55
 219 627 219 627 233.5 613 c 128,-1,56
 248 599 248 599 270 599 c 128,-1,57
 292 599 292 599 306.5 613 c 128,-1,58
 321 627 321 627 321 653 c 0,49,50
369 653 m 0,59,60
 369 607 369 607 339.5 580.5 c 128,-1,61
 310 554 310 554 270 554 c 128,-1,62
 230 554 230 554 200.5 580.5 c 128,-1,63
 171 607 171 607 171 653 c 0,64,65
 171 698 171 698 200.5 725 c 128,-1,66
 230 752 230 752 270 752 c 128,-1,67
 310 752 310 752 339.5 725 c 128,-1,68
 369 698 369 698 369 653 c 0,59,60
EndSplineSet
Substitution2: "'case' +WSdlh1tXfUQwf3UoMGuKv2V0MFcwX1tXX2IA lookup 18 +MLUw1jDGMPww1jDr" Aring
EndChar

StartChar: ae
Encoding: 230 230 193
Width: 500
Flags: W
LayerCount: 2
Fore
SplineSet
435 299 m 1,0,1
 435 339 435 339 430.5 365.5 c 128,-1,2
 426 392 426 392 417.5 408 c 128,-1,3
 409 424 409 424 399.5 430.5 c 128,-1,4
 390 437 390 437 381 437 c 0,5,6
 356 437 356 437 337 406 c 128,-1,7
 318 375 318 375 318 299 c 1,8,-1
 435 299 l 1,0,1
186 232 m 0,9,10
 150 232 150 232 132 209.5 c 128,-1,11
 114 187 114 187 114 148 c 0,12,13
 114 116 114 116 131 90 c 128,-1,14
 148 64 148 64 183 64 c 0,15,16
 201 64 201 64 222 72.5 c 128,-1,17
 243 81 243 81 258 95 c 1,18,19
 246 122 246 122 239.5 154 c 128,-1,20
 233 186 233 186 231 220 c 1,21,22
 210 232 210 232 186 232 c 0,9,10
162 513 m 0,23,24
 210 513 210 513 240 494.5 c 128,-1,25
 270 476 270 476 286 444 c 1,26,27
 303 476 303 476 326 494.5 c 128,-1,28
 349 513 349 513 377 513 c 0,29,30
 516 513 516 513 516 258 c 0,31,32
 516 253 516 253 516 243.5 c 128,-1,33
 516 234 516 234 515 227 c 1,34,-1
 315 227 l 1,35,36
 315 149 315 149 343.5 108.5 c 128,-1,37
 372 68 372 68 416 68 c 0,38,39
 451 68 451 68 490 92 c 1,40,-1
 502 16 l 1,41,42
 498 12 498 12 487.5 7 c 128,-1,43
 477 2 477 2 464 -2 c 128,-1,44
 451 -6 451 -6 436 -9 c 128,-1,45
 421 -12 421 -12 407 -12 c 0,46,47
 371 -12 371 -12 343.5 0.5 c 128,-1,48
 316 13 316 13 296 35 c 1,49,50
 267 10 267 10 236.5 -1 c 128,-1,51
 206 -12 206 -12 175 -12 c 0,52,53
 139 -12 139 -12 112.5 1.5 c 128,-1,54
 86 15 86 15 68.5 36.5 c 128,-1,55
 51 58 51 58 42 85.5 c 128,-1,56
 33 113 33 113 33 143 c 0,57,58
 33 176 33 176 42.5 205.5 c 128,-1,59
 52 235 52 235 70.5 257.5 c 128,-1,60
 89 280 89 280 115 292.5 c 128,-1,61
 141 305 141 305 177 305 c 0,62,63
 190 305 190 305 205.5 302 c 128,-1,64
 221 299 221 299 234 293 c 1,65,-1
 234 318 l 2,66,67
 234 369 234 369 214.5 403 c 128,-1,68
 195 437 195 437 154 437 c 0,69,70
 130 437 130 437 107.5 430.5 c 128,-1,71
 85 424 85 424 77 418 c 1,72,-1
 67 491 l 1,73,74
 77 500 77 500 105.5 506.5 c 128,-1,75
 134 513 134 513 162 513 c 0,23,24
EndSplineSet
Substitution2: "'case' +WSdlh1tXfUQwf3UoMGuKv2V0MFcwX1tXX2IA lookup 18 +MLUw1jDGMPww1jDr" AE
EndChar

StartChar: ccedilla
Encoding: 231 231 194
Width: 500
Flags: W
LayerCount: 2
Fore
SplineSet
318 -36 m 1,0,1
 346 -49 346 -49 358 -65 c 128,-1,2
 370 -81 370 -81 370 -112 c 0,3,4
 370 -123 370 -123 365.5 -135.5 c 128,-1,5
 361 -148 361 -148 349.5 -158 c 128,-1,6
 338 -168 338 -168 319 -175.5 c 128,-1,7
 300 -183 300 -183 272 -183 c 0,8,9
 247 -183 247 -183 225.5 -179 c 128,-1,10
 204 -175 204 -175 192 -170 c 1,11,-1
 203 -114 l 1,12,13
 215 -118 215 -118 228 -121 c 128,-1,14
 241 -124 241 -124 257 -124 c 0,15,16
 292 -124 292 -124 292 -102.5 c 128,-1,17
 292 -81 292 -81 252 -69 c 1,18,-1
 244 -67 l 1,19,20
 248 -55 248 -55 255 -39 c 128,-1,21
 262 -23 262 -23 270 -8 c 1,22,23
 172 6 172 6 112.5 70.5 c 128,-1,24
 53 135 53 135 53 249 c 0,25,26
 53 317 53 317 74.5 367 c 128,-1,27
 96 417 96 417 134 449.5 c 128,-1,28
 172 482 172 482 222 497.5 c 128,-1,29
 272 513 272 513 329 513 c 0,30,31
 366 513 366 513 402 508 c 128,-1,32
 438 503 438 503 480 490 c 1,33,-1
 459 414 l 1,34,35
 423 427 423 427 393.5 430.5 c 128,-1,36
 364 434 364 434 334 434 c 0,37,38
 295 434 295 434 260.5 424 c 128,-1,39
 226 414 226 414 200.5 391.5 c 128,-1,40
 175 369 175 369 160 334 c 128,-1,41
 145 299 145 299 145 249 c 0,42,43
 145 201 145 201 159 167.5 c 128,-1,44
 173 134 173 134 198.5 112 c 128,-1,45
 224 90 224 90 259.5 79 c 128,-1,46
 295 68 295 68 338 68 c 0,47,48
 373 68 373 68 404.5 72 c 128,-1,49
 436 76 436 76 474 89 c 1,50,-1
 487 14 l 1,51,52
 450 1 450 1 412.5 -5 c 128,-1,53
 375 -11 375 -11 329 -12 c 1,54,-1
 318 -36 l 1,0,1
EndSplineSet
Substitution2: "'case' +WSdlh1tXfUQwf3UoMGuKv2V0MFcwX1tXX2IA lookup 18 +MLUw1jDGMPww1jDr" Ccedilla
EndChar

StartChar: egrave
Encoding: 232 232 195
Width: 500
Flags: W
LayerCount: 2
Fore
SplineSet
401 299 m 1,0,1
 401 363 401 363 367.5 400 c 128,-1,2
 334 437 334 437 279 437 c 0,3,4
 248 437 248 437 222.5 425.5 c 128,-1,5
 197 414 197 414 178.5 394.5 c 128,-1,6
 160 375 160 375 149 350 c 128,-1,7
 138 325 138 325 135 299 c 1,8,-1
 401 299 l 1,0,1
280 513 m 0,9,10
 382 513 382 513 436.5 450 c 128,-1,11
 491 387 491 387 491 258 c 2,12,-1
 491 227 l 1,13,-1
 133 227 l 1,14,15
 138 149 138 149 184 108.5 c 128,-1,16
 230 68 230 68 313 68 c 0,17,18
 361 68 361 68 394.5 75.5 c 128,-1,19
 428 83 428 83 445 92 c 1,20,-1
 457 16 l 1,21,22
 441 7 441 7 398.5 -2.5 c 128,-1,23
 356 -12 356 -12 303 -12 c 0,24,25
 238 -12 238 -12 189 8 c 128,-1,26
 140 28 140 28 108 62.5 c 128,-1,27
 76 97 76 97 59.5 145 c 128,-1,28
 43 193 43 193 43 249 c 0,29,30
 43 316 43 316 63.5 366 c 128,-1,31
 84 416 84 416 117.5 448.5 c 128,-1,32
 151 481 151 481 193.5 497 c 128,-1,33
 236 513 236 513 280 513 c 0,9,10
233 748 m 1,34,-1
 356 599 l 1,35,-1
 311 559 l 1,36,-1
 176 691 l 1,37,-1
 233 748 l 1,34,-1
EndSplineSet
Substitution2: "'case' +WSdlh1tXfUQwf3UoMGuKv2V0MFcwX1tXX2IA lookup 18 +MLUw1jDGMPww1jDr" Egrave
EndChar

StartChar: eacute
Encoding: 233 233 196
Width: 500
Flags: W
LayerCount: 2
Fore
SplineSet
401 299 m 1,0,1
 401 363 401 363 367.5 400 c 128,-1,2
 334 437 334 437 279 437 c 0,3,4
 248 437 248 437 222.5 425.5 c 128,-1,5
 197 414 197 414 178.5 394.5 c 128,-1,6
 160 375 160 375 149 350 c 128,-1,7
 138 325 138 325 135 299 c 1,8,-1
 401 299 l 1,0,1
280 513 m 0,9,10
 382 513 382 513 436.5 450 c 128,-1,11
 491 387 491 387 491 258 c 2,12,-1
 491 227 l 1,13,-1
 133 227 l 1,14,15
 138 149 138 149 184 108.5 c 128,-1,16
 230 68 230 68 313 68 c 0,17,18
 361 68 361 68 394.5 75.5 c 128,-1,19
 428 83 428 83 445 92 c 1,20,-1
 457 16 l 1,21,22
 441 7 441 7 398.5 -2.5 c 128,-1,23
 356 -12 356 -12 303 -12 c 0,24,25
 238 -12 238 -12 189 8 c 128,-1,26
 140 28 140 28 108 62.5 c 128,-1,27
 76 97 76 97 59.5 145 c 128,-1,28
 43 193 43 193 43 249 c 0,29,30
 43 316 43 316 63.5 366 c 128,-1,31
 84 416 84 416 117.5 448.5 c 128,-1,32
 151 481 151 481 193.5 497 c 128,-1,33
 236 513 236 513 280 513 c 0,9,10
384 691 m 1,34,-1
 248 559 l 1,35,-1
 203 599 l 1,36,-1
 326 748 l 1,37,-1
 384 691 l 1,34,-1
EndSplineSet
Substitution2: "'case' +WSdlh1tXfUQwf3UoMGuKv2V0MFcwX1tXX2IA lookup 18 +MLUw1jDGMPww1jDr" Eacute
EndChar

StartChar: ecircumflex
Encoding: 234 234 197
Width: 500
Flags: W
LayerCount: 2
Fore
SplineSet
401 299 m 1,0,1
 401 363 401 363 367.5 400 c 128,-1,2
 334 437 334 437 279 437 c 0,3,4
 248 437 248 437 222.5 425.5 c 128,-1,5
 197 414 197 414 178.5 394.5 c 128,-1,6
 160 375 160 375 149 350 c 128,-1,7
 138 325 138 325 135 299 c 1,8,-1
 401 299 l 1,0,1
280 513 m 0,9,10
 382 513 382 513 436.5 450 c 128,-1,11
 491 387 491 387 491 258 c 2,12,-1
 491 227 l 1,13,-1
 133 227 l 1,14,15
 138 149 138 149 184 108.5 c 128,-1,16
 230 68 230 68 313 68 c 0,17,18
 361 68 361 68 394.5 75.5 c 128,-1,19
 428 83 428 83 445 92 c 1,20,-1
 457 16 l 1,21,22
 441 7 441 7 398.5 -2.5 c 128,-1,23
 356 -12 356 -12 303 -12 c 0,24,25
 238 -12 238 -12 189 8 c 128,-1,26
 140 28 140 28 108 62.5 c 128,-1,27
 76 97 76 97 59.5 145 c 128,-1,28
 43 193 43 193 43 249 c 0,29,30
 43 316 43 316 63.5 366 c 128,-1,31
 84 416 84 416 117.5 448.5 c 128,-1,32
 151 481 151 481 193.5 497 c 128,-1,33
 236 513 236 513 280 513 c 0,9,10
284 742 m 1,34,-1
 415 604 l 1,35,-1
 378 562 l 1,36,-1
 284 646 l 1,37,-1
 190 562 l 1,38,-1
 153 604 l 1,39,-1
 284 742 l 1,34,-1
EndSplineSet
Substitution2: "'case' +WSdlh1tXfUQwf3UoMGuKv2V0MFcwX1tXX2IA lookup 18 +MLUw1jDGMPww1jDr" Ecircumflex
EndChar

StartChar: edieresis
Encoding: 235 235 198
Width: 500
Flags: W
LayerCount: 2
Fore
SplineSet
401 299 m 1,0,1
 401 363 401 363 367.5 400 c 128,-1,2
 334 437 334 437 279 437 c 0,3,4
 248 437 248 437 222.5 425.5 c 128,-1,5
 197 414 197 414 178.5 394.5 c 128,-1,6
 160 375 160 375 149 350 c 128,-1,7
 138 325 138 325 135 299 c 1,8,-1
 401 299 l 1,0,1
280 513 m 0,9,10
 382 513 382 513 436.5 450 c 128,-1,11
 491 387 491 387 491 258 c 2,12,-1
 491 227 l 1,13,-1
 133 227 l 1,14,15
 138 149 138 149 184 108.5 c 128,-1,16
 230 68 230 68 313 68 c 0,17,18
 361 68 361 68 394.5 75.5 c 128,-1,19
 428 83 428 83 445 92 c 1,20,-1
 457 16 l 1,21,22
 441 7 441 7 398.5 -2.5 c 128,-1,23
 356 -12 356 -12 303 -12 c 0,24,25
 238 -12 238 -12 189 8 c 128,-1,26
 140 28 140 28 108 62.5 c 128,-1,27
 76 97 76 97 59.5 145 c 128,-1,28
 43 193 43 193 43 249 c 0,29,30
 43 316 43 316 63.5 366 c 128,-1,31
 84 416 84 416 117.5 448.5 c 128,-1,32
 151 481 151 481 193.5 497 c 128,-1,33
 236 513 236 513 280 513 c 0,9,10
376 594 m 128,-1,35
 353 594 353 594 336.5 610 c 128,-1,36
 320 626 320 626 320 651 c 128,-1,37
 320 676 320 676 336.5 691.5 c 128,-1,38
 353 707 353 707 376 707 c 128,-1,39
 399 707 399 707 415.5 691.5 c 128,-1,40
 432 676 432 676 432 651 c 128,-1,41
 432 626 432 626 415.5 610 c 128,-1,34
 399 594 399 594 376 594 c 128,-1,35
192 594 m 0,42,43
 170 594 170 594 153 610 c 128,-1,44
 136 626 136 626 136 651 c 128,-1,45
 136 676 136 676 153.5 691.5 c 128,-1,46
 171 707 171 707 192 707 c 0,47,48
 215 707 215 707 231.5 691.5 c 128,-1,49
 248 676 248 676 248 651 c 128,-1,50
 248 626 248 626 231.5 610 c 128,-1,51
 215 594 215 594 192 594 c 0,42,43
EndSplineSet
Substitution2: "'case' +WSdlh1tXfUQwf3UoMGuKv2V0MFcwX1tXX2IA lookup 18 +MLUw1jDGMPww1jDr" Edieresis
EndChar

StartChar: igrave
Encoding: 236 236 199
Width: 500
Flags: W
LayerCount: 2
Fore
SplineSet
203 427 m 1,0,-1
 58 427 l 1,1,-1
 58 501 l 1,2,-1
 292 501 l 1,3,-1
 292 193 l 2,4,5
 292 118 292 118 312.5 93 c 128,-1,6
 333 68 333 68 374 68 c 0,7,8
 405 68 405 68 431.5 75.5 c 128,-1,9
 458 83 458 83 473 92 c 1,10,-1
 486 16 l 1,11,12
 480 13 480 13 468 8 c 128,-1,13
 456 3 456 3 440 -1 c 128,-1,14
 424 -5 424 -5 405.5 -8.5 c 128,-1,15
 387 -12 387 -12 366 -12 c 0,16,17
 318 -12 318 -12 287 1 c 128,-1,18
 256 14 256 14 237 40 c 128,-1,19
 218 66 218 66 210.5 104.5 c 128,-1,20
 203 143 203 143 203 193 c 2,21,-1
 203 427 l 1,0,-1
195 748 m 1,22,-1
 319 599 l 1,23,-1
 273 559 l 1,24,-1
 138 691 l 1,25,-1
 195 748 l 1,22,-1
EndSplineSet
Substitution2: "'case' +WSdlh1tXfUQwf3UoMGuKv2V0MFcwX1tXX2IA lookup 18 +MLUw1jDGMPww1jDr" Igrave
EndChar

StartChar: iacute
Encoding: 237 237 200
Width: 500
Flags: W
LayerCount: 2
Fore
SplineSet
203 427 m 1,0,-1
 58 427 l 1,1,-1
 58 501 l 1,2,-1
 292 501 l 1,3,-1
 292 193 l 2,4,5
 292 118 292 118 312.5 93 c 128,-1,6
 333 68 333 68 374 68 c 0,7,8
 405 68 405 68 431.5 75.5 c 128,-1,9
 458 83 458 83 473 92 c 1,10,-1
 486 16 l 1,11,12
 480 13 480 13 468 8 c 128,-1,13
 456 3 456 3 440 -1 c 128,-1,14
 424 -5 424 -5 405.5 -8.5 c 128,-1,15
 387 -12 387 -12 366 -12 c 0,16,17
 318 -12 318 -12 287 1 c 128,-1,18
 256 14 256 14 237 40 c 128,-1,19
 218 66 218 66 210.5 104.5 c 128,-1,20
 203 143 203 143 203 193 c 2,21,-1
 203 427 l 1,0,-1
337 691 m 1,22,-1
 201 559 l 1,23,-1
 156 599 l 1,24,-1
 279 748 l 1,25,-1
 337 691 l 1,22,-1
EndSplineSet
Substitution2: "'case' +WSdlh1tXfUQwf3UoMGuKv2V0MFcwX1tXX2IA lookup 18 +MLUw1jDGMPww1jDr" Iacute
EndChar

